<?xml version="1.0" encoding="UTF-8" standalone="no"?>
<!DOCTYPE svg PUBLIC "-//W3C//DTD SVG 1.1//EN"
 "http://www.w3.org/Graphics/SVG/1.1/DTD/svg11.dtd">
<!-- Generated by graphviz version 14.1.1 (20251213.1925)
 -->
<!-- Title: sdl::SDLHeatmap::draw_number Pages: 1 -->
<svg width="443pt" height="196pt"
 viewBox="0.00 0.00 443.00 196.00" xmlns="http://www.w3.org/2000/svg" xmlns:xlink="http://www.w3.org/1999/xlink">
<g id="graph0" class="graph" transform="scale(1 1) rotate(0) translate(4 191.68)">
<title>sdl::SDLHeatmap::draw_number</title>
<!-- Node1 -->
<g id="Node000001" class="node">
<title>Node1</title>
<g id="a_Node000001"><a xlink:title=" ">
<polygon fill="#999999" stroke="#666666" points="435,-101.68 314,-101.68 314,-71.18 435,-71.18 435,-101.68"/>
<text xml:space="preserve" text-anchor="start" x="322" y="-88.18" font-family="Helvetica,sans-Serif" font-size="10.00">sdl::SDLHeatmap::draw</text>
<text xml:space="preserve" text-anchor="middle" x="374.5" y="-76.93" font-family="Helvetica,sans-Serif" font-size="10.00">_number</text>
</a>
</g>
</g>
<!-- Node2 -->
<g id="Node000002" class="node">
<title>Node2</title>
<g id="a_Node000002"><a xlink:href="classsdl_1_1_s_d_l_heatmap.html#aeb321d70a2b70a27bab7bbecb1b1216b" target="_top" xlink:title=" ">
<polygon fill="white" stroke="#666666" points="278,-187.68 157,-187.68 157,-157.18 278,-157.18 278,-187.68"/>
<text xml:space="preserve" text-anchor="start" x="165" y="-174.18" font-family="Helvetica,sans-Serif" font-size="10.00">sdl::SDLHeatmap::draw</text>
<text xml:space="preserve" text-anchor="middle" x="217.5" y="-162.93" font-family="Helvetica,sans-Serif" font-size="10.00">_1d_cell</text>
</a>
</g>
</g>
<!-- Node1&#45;&gt;Node2 -->
<g id="edge1_Node000001_Node000002" class="edge">
<title>Node1&#45;&gt;Node2</title>
<g id="a_edge1_Node000001_Node000002"><a xlink:title=" ">
<path fill="none" stroke="#63b8ff" d="M338.95,-108.01C320.99,-118.99 298.54,-132.33 278,-143.43 269.61,-147.97 260.41,-152.62 251.8,-156.82"/>
<polygon fill="#63b8ff" stroke="#63b8ff" points="340.72,-111.03 347.41,-102.82 337.06,-105.07 340.72,-111.03"/>
</a>
</g>
</g>
<!-- Node3 -->
<g id="Node000003" class="node">
<title>Node3</title>
<g id="a_Node000003"><a xlink:href="classsdl_1_1_s_d_l_heatmap.html#afc7885cf33b3281b986e3012a277160b" target="_top" xlink:title=" ">
<polygon fill="white" stroke="#666666" points="121,-111.68 0,-111.68 0,-81.18 121,-81.18 121,-111.68"/>
<text xml:space="preserve" text-anchor="start" x="8" y="-98.18" font-family="Helvetica,sans-Serif" font-size="10.00">sdl::SDLHeatmap::draw</text>
<text xml:space="preserve" text-anchor="middle" x="60.5" y="-86.93" font-family="Helvetica,sans-Serif" font-size="10.00">_1d_fullscreen</text>
</a>
</g>
</g>
<!-- Node1&#45;&gt;Node3 -->
<g id="edge2_Node000001_Node000003" class="edge">
<title>Node1&#45;&gt;Node3</title>
<g id="a_edge2_Node000001_Node000003"><a xlink:title=" ">
<path fill="none" stroke="#63b8ff" d="M309.48,-104.82C299.04,-107.15 288.28,-109.16 278,-110.43 224.63,-117.04 210.64,-114.35 157,-110.43 145.47,-109.59 133.22,-108.19 121.47,-106.59"/>
<polygon fill="#63b8ff" stroke="#63b8ff" points="310.25,-108.23 319.18,-102.53 308.64,-101.42 310.25,-108.23"/>
</a>
</g>
</g>
<!-- Node4 -->
<g id="Node000004" class="node">
<title>Node4</title>
<g id="a_Node000004"><a xlink:href="classsdl_1_1_s_d_l_heatmap.html#a4f0cc9ea87a260bc10ebfc6b2c9fd6bf" target="_top" xlink:title=" ">
<polygon fill="white" stroke="#666666" points="278,-101.68 157,-101.68 157,-71.18 278,-71.18 278,-101.68"/>
<text xml:space="preserve" text-anchor="start" x="165" y="-88.18" font-family="Helvetica,sans-Serif" font-size="10.00">sdl::SDLHeatmap::draw</text>
<text xml:space="preserve" text-anchor="middle" x="217.5" y="-76.93" font-family="Helvetica,sans-Serif" font-size="10.00">_2d_cell</text>
</a>
</g>
</g>
<!-- Node1&#45;&gt;Node4 -->
<g id="edge3_Node000001_Node000004" class="edge">
<title>Node1&#45;&gt;Node4</title>
<g id="a_edge3_Node000001_Node000004"><a xlink:title=" ">
<path fill="none" stroke="#63b8ff" d="M302.31,-86.43C294.27,-86.43 286.14,-86.43 278.27,-86.43"/>
<polygon fill="#63b8ff" stroke="#63b8ff" points="302.06,-89.93 312.06,-86.43 302.06,-82.93 302.06,-89.93"/>
</a>
</g>
</g>
<!-- Node5 -->
<g id="Node000005" class="node">
<title>Node5</title>
<g id="a_Node000005"><a xlink:href="classsdl_1_1_s_d_l_heatmap.html#ae17c83b550b2baac23518b89c6512611" target="_top" xlink:title=" ">
<polygon fill="white" stroke="#666666" points="121,-30.68 0,-30.68 0,-0.18 121,-0.18 121,-30.68"/>
<text xml:space="preserve" text-anchor="start" x="8" y="-17.18" font-family="Helvetica,sans-Serif" font-size="10.00">sdl::SDLHeatmap::draw</text>
<text xml:space="preserve" text-anchor="middle" x="60.5" y="-5.93" font-family="Helvetica,sans-Serif" font-size="10.00">_2d_fullscreen</text>
</a>
</g>
</g>
<!-- Node1&#45;&gt;Node5 -->
<g id="edge4_Node000001_Node000005" class="edge">
<title>Node1&#45;&gt;Node5</title>
<g id="a_edge4_Node000001_Node000005"><a xlink:title=" ">
<path fill="none" stroke="#63b8ff" d="M351.46,-62.72C333.58,-45.34 306.71,-23.15 278,-13.43 227.09,3.8 165.5,1.15 121.05,-4.54"/>
<polygon fill="#63b8ff" stroke="#63b8ff" points="348.88,-65.09 358.42,-69.72 353.85,-60.16 348.88,-65.09"/>
</a>
</g>
</g>
<!-- Node6 -->
<g id="Node000006" class="node">
<title>Node6</title>
<g id="a_Node000006"><a xlink:href="classsdl_1_1_s_d_l_heatmap.html#a9eccaaefe82bc20e222c36d6b93e80af" target="_top" xlink:title=" ">
<polygon fill="white" stroke="#666666" points="278,-52.68 157,-52.68 157,-22.18 278,-22.18 278,-52.68"/>
<text xml:space="preserve" text-anchor="start" x="165" y="-39.18" font-family="Helvetica,sans-Serif" font-size="10.00">sdl::SDLHeatmap::draw</text>
<text xml:space="preserve" text-anchor="middle" x="217.5" y="-27.93" font-family="Helvetica,sans-Serif" font-size="10.00">_colorbar</text>
</a>
</g>
</g>
<!-- Node1&#45;&gt;Node6 -->
<g id="edge5_Node000001_Node000006" class="edge">
<title>Node1&#45;&gt;Node6</title>
<g id="a_edge5_Node000001_Node000006"><a xlink:title=" ">
<path fill="none" stroke="#63b8ff" d="M313.37,-67.43C298.46,-62.71 282.65,-57.71 268.3,-53.18"/>
<polygon fill="#63b8ff" stroke="#63b8ff" points="312,-70.66 322.59,-70.34 314.11,-63.99 312,-70.66"/>
</a>
</g>
</g>
<!-- Node6&#45;&gt;Node3 -->
<g id="edge6_Node000006_Node000003" class="edge">
<title>Node6&#45;&gt;Node3</title>
<g id="a_edge6_Node000006_Node000003"><a xlink:title=" ">
<path fill="none" stroke="#63b8ff" d="M164.79,-57.12C144.64,-64.79 121.85,-73.46 102.82,-80.71"/>
<polygon fill="#63b8ff" stroke="#63b8ff" points="165.85,-60.46 173.96,-53.63 163.36,-53.92 165.85,-60.46"/>
</a>
</g>
</g>
<!-- Node6&#45;&gt;Node5 -->
<g id="edge7_Node000006_Node000005" class="edge">
<title>Node6&#45;&gt;Node5</title>
<g id="a_edge7_Node000006_Node000005"><a xlink:title=" ">
<path fill="none" stroke="#63b8ff" d="M145.31,-27.33C137.27,-26.19 129.14,-25.04 121.27,-23.92"/>
<polygon fill="#63b8ff" stroke="#63b8ff" points="144.68,-30.78 155.07,-28.72 145.67,-23.85 144.68,-30.78"/>
</a>
</g>
</g>
</g>
</svg>
