<?xml version="1.0" encoding="UTF-8" standalone="no"?>
<!DOCTYPE svg PUBLIC "-//W3C//DTD SVG 1.1//EN"
 "http://www.w3.org/Graphics/SVG/1.1/DTD/svg11.dtd">
<!-- Generated by graphviz version 14.1.1 (20251213.1925)
 -->
<!-- Title: sdl::SDLHeatmap::draw_colorbar Pages: 1 -->
<svg width="402pt" height="88pt"
 viewBox="0.00 0.00 402.00 88.00" xmlns="http://www.w3.org/2000/svg" xmlns:xlink="http://www.w3.org/1999/xlink">
<g id="graph0" class="graph" transform="scale(1 1) rotate(0) translate(4 83.5)">
<title>sdl::SDLHeatmap::draw_colorbar</title>
<!-- Node1 -->
<g id="Node000001" class="node">
<title>Node1</title>
<g id="a_Node000001"><a xlink:title=" ">
<polygon fill="#999999" stroke="#666666" points="121,-54.5 0,-54.5 0,-24 121,-24 121,-54.5"/>
<text xml:space="preserve" text-anchor="start" x="8" y="-41" font-family="Helvetica,sans-Serif" font-size="10.00">sdl::SDLHeatmap::draw</text>
<text xml:space="preserve" text-anchor="middle" x="60.5" y="-29.75" font-family="Helvetica,sans-Serif" font-size="10.00">_colorbar</text>
</a>
</g>
</g>
<!-- Node2 -->
<g id="Node000002" class="node">
<title>Node2</title>
<g id="a_Node000002"><a xlink:href="classsdl_1_1_s_d_l_heatmap.html#a0b9fb36b9fafa26b4ba4725b8d985cd9" target="_top" xlink:title=" ">
<polygon fill="white" stroke="#666666" points="278.38,-79.5 157.38,-79.5 157.38,-49 278.38,-49 278.38,-79.5"/>
<text xml:space="preserve" text-anchor="start" x="165.38" y="-66" font-family="Helvetica,sans-Serif" font-size="10.00">sdl::SDLHeatmap::draw</text>
<text xml:space="preserve" text-anchor="middle" x="217.88" y="-54.75" font-family="Helvetica,sans-Serif" font-size="10.00">_number</text>
</a>
</g>
</g>
<!-- Node1&#45;&gt;Node2 -->
<g id="edge1_Node000001_Node000002" class="edge">
<title>Node1&#45;&gt;Node2</title>
<g id="a_edge1_Node000001_Node000002"><a xlink:title=" ">
<path fill="none" stroke="#63b8ff" d="M121.13,-48.84C129.19,-50.14 137.52,-51.48 145.76,-52.81"/>
<polygon fill="#63b8ff" stroke="#63b8ff" points="144.97,-56.23 155.4,-54.36 146.08,-49.31 144.97,-56.23"/>
</a>
</g>
</g>
<!-- Node4 -->
<g id="Node000004" class="node">
<title>Node4</title>
<g id="a_Node000004"><a xlink:href="classsdl_1_1_s_d_l_heatmap.html#a9b8e84cb883ff4143a80c670712a3f62" target="_top" xlink:title=" ">
<polygon fill="white" stroke="#666666" points="278.75,-30.5 157,-30.5 157,0 278.75,0 278.75,-30.5"/>
<text xml:space="preserve" text-anchor="start" x="165" y="-17" font-family="Helvetica,sans-Serif" font-size="10.00">sdl::SDLHeatmap::temp</text>
<text xml:space="preserve" text-anchor="middle" x="217.88" y="-5.75" font-family="Helvetica,sans-Serif" font-size="10.00">_to_rgb</text>
</a>
</g>
</g>
<!-- Node1&#45;&gt;Node4 -->
<g id="edge3_Node000001_Node000004" class="edge">
<title>Node1&#45;&gt;Node4</title>
<g id="a_edge3_Node000001_Node000004"><a xlink:title=" ">
<path fill="none" stroke="#63b8ff" d="M121.13,-30.04C129.04,-28.82 137.21,-27.55 145.3,-26.31"/>
<polygon fill="#63b8ff" stroke="#63b8ff" points="145.79,-29.77 155.14,-24.79 144.72,-22.85 145.79,-29.77"/>
</a>
</g>
</g>
<!-- Node3 -->
<g id="Node000003" class="node">
<title>Node3</title>
<g id="a_Node000003"><a xlink:href="namespacesdl.html#aa3e8187f011be2af6cdd67f41fca97d6" target="_top" xlink:title=" ">
<polygon fill="white" stroke="#666666" points="393.75,-73.88 314.75,-73.88 314.75,-54.62 393.75,-54.62 393.75,-73.88"/>
<text xml:space="preserve" text-anchor="middle" x="354.25" y="-60.38" font-family="Helvetica,sans-Serif" font-size="10.00">sdl::draw_digit</text>
</a>
</g>
</g>
<!-- Node2&#45;&gt;Node3 -->
<g id="edge2_Node000002_Node000003" class="edge">
<title>Node2&#45;&gt;Node3</title>
<g id="a_edge2_Node000002_Node000003"><a xlink:title=" ">
<path fill="none" stroke="#63b8ff" d="M278.6,-64.25C286.79,-64.25 295.14,-64.25 303.13,-64.25"/>
<polygon fill="#63b8ff" stroke="#63b8ff" points="303.03,-67.75 313.03,-64.25 303.03,-60.75 303.03,-67.75"/>
</a>
</g>
</g>
</g>
</svg>
