<?xml version="1.0" encoding="UTF-8" standalone="no"?>
<!DOCTYPE svg PUBLIC "-//W3C//DTD SVG 1.1//EN"
 "http://www.w3.org/Graphics/SVG/1.1/DTD/svg11.dtd">
<!-- Generated by graphviz version 14.1.1 (20251213.1925)
 -->
<!-- Title: sdl::SDLWindow::SDLWindow Pages: 1 -->
<svg width="342pt" height="64pt"
 viewBox="0.00 0.00 342.00 64.00" xmlns="http://www.w3.org/2000/svg" xmlns:xlink="http://www.w3.org/1999/xlink">
<g id="graph0" class="graph" transform="scale(1 1) rotate(0) translate(4 60.25)">
<title>sdl::SDLWindow::SDLWindow</title>
<!-- Node1 -->
<g id="Node000001" class="node">
<title>Node1</title>
<g id="a_Node000001"><a xlink:title=" ">
<polygon fill="#999999" stroke="#666666" points="333.5,-37.25 184.75,-37.25 184.75,-18 333.5,-18 333.5,-37.25"/>
<text xml:space="preserve" text-anchor="middle" x="259.12" y="-23.75" font-family="Helvetica,sans-Serif" font-size="10.00">sdl::SDLWindow::SDLWindow</text>
</a>
</g>
</g>
<!-- Node2 -->
<g id="Node000002" class="node">
<title>Node2</title>
<g id="a_Node000002"><a xlink:href="classsdl_1_1_s_d_l_window.html#adf6b32b7a8f6c1d6d4c2b45be0b016f6" target="_top" xlink:title=" ">
<polygon fill="white" stroke="#666666" points="142.38,-56.25 6.38,-56.25 6.38,-37 142.38,-37 142.38,-56.25"/>
<text xml:space="preserve" text-anchor="middle" x="74.38" y="-42.75" font-family="Helvetica,sans-Serif" font-size="10.00">sdl::SDLWindow::operator=</text>
</a>
</g>
</g>
<!-- Node1&#45;&gt;Node2 -->
<g id="edge1_Node000001_Node000002" class="edge">
<title>Node1&#45;&gt;Node2</title>
<g id="a_edge1_Node000001_Node000002"><a xlink:title=" ">
<path fill="none" stroke="#63b8ff" d="M172.93,-36.48C162.77,-37.54 152.52,-38.6 142.67,-39.63"/>
<polygon fill="#63b8ff" stroke="#63b8ff" points="173.23,-39.97 182.81,-35.45 172.51,-33.01 173.23,-39.97"/>
</a>
</g>
</g>
<!-- Node3 -->
<g id="Node000003" class="node">
<title>Node3</title>
<g id="a_Node000003"><a xlink:href="classsdl_1_1_s_d_l_window.html#af310ae3543f5d42e0918622eea513f87" target="_top" xlink:title=" ">
<polygon fill="white" stroke="#666666" points="148.75,-19.25 0,-19.25 0,0 148.75,0 148.75,-19.25"/>
<text xml:space="preserve" text-anchor="middle" x="74.38" y="-5.75" font-family="Helvetica,sans-Serif" font-size="10.00">sdl::SDLWindow::SDLWindow</text>
</a>
</g>
</g>
<!-- Node1&#45;&gt;Node3 -->
<g id="edge2_Node000001_Node000003" class="edge">
<title>Node1&#45;&gt;Node3</title>
<g id="a_edge2_Node000001_Node000003"><a xlink:title=" ">
<path fill="none" stroke="#63b8ff" d="M173.09,-19.25C165.09,-18.46 157.04,-17.67 149.16,-16.89"/>
<polygon fill="#63b8ff" stroke="#63b8ff" points="172.52,-22.71 182.81,-20.21 173.21,-15.74 172.52,-22.71"/>
</a>
</g>
</g>
</g>
</svg>
