<?xml version="1.0" encoding="UTF-8" standalone="no"?>
<!DOCTYPE svg PUBLIC "-//W3C//DTD SVG 1.1//EN"
 "http://www.w3.org/Graphics/SVG/1.1/DTD/svg11.dtd">
<!-- Generated by graphviz version 14.1.1 (20251213.1925)
 -->
<!-- Title: sdl::SDLHeatmap::draw_text Pages: 1 -->
<svg width="270pt" height="64pt"
 viewBox="0.00 0.00 270.00 64.00" xmlns="http://www.w3.org/2000/svg" xmlns:xlink="http://www.w3.org/1999/xlink">
<g id="graph0" class="graph" transform="scale(1 1) rotate(0) translate(4 60.25)">
<title>sdl::SDLHeatmap::draw_text</title>
<!-- Node1 -->
<g id="Node000001" class="node">
<title>Node1</title>
<g id="a_Node000001"><a xlink:title=" ">
<polygon fill="#999999" stroke="#666666" points="142.75,-37.25 0,-37.25 0,-18 142.75,-18 142.75,-37.25"/>
<text xml:space="preserve" text-anchor="middle" x="71.38" y="-23.75" font-family="Helvetica,sans-Serif" font-size="10.00">sdl::SDLHeatmap::draw_text</text>
</a>
</g>
</g>
<!-- Node2 -->
<g id="Node000002" class="node">
<title>Node2</title>
<g id="a_Node000002"><a xlink:href="namespacesdl.html#aa3e8187f011be2af6cdd67f41fca97d6" target="_top" xlink:title=" ">
<polygon fill="white" stroke="#666666" points="259.62,-56.25 180.62,-56.25 180.62,-37 259.62,-37 259.62,-56.25"/>
<text xml:space="preserve" text-anchor="middle" x="220.12" y="-42.75" font-family="Helvetica,sans-Serif" font-size="10.00">sdl::draw_digit</text>
</a>
</g>
</g>
<!-- Node1&#45;&gt;Node2 -->
<g id="edge1_Node000001_Node000002" class="edge">
<title>Node1&#45;&gt;Node2</title>
<g id="a_edge1_Node000001_Node000002"><a xlink:title=" ">
<path fill="none" stroke="#63b8ff" d="M143.17,-36.79C151.84,-37.91 160.56,-39.04 168.83,-40.11"/>
<polygon fill="#63b8ff" stroke="#63b8ff" points="168.33,-43.58 178.7,-41.39 169.23,-36.64 168.33,-43.58"/>
</a>
</g>
</g>
<!-- Node3 -->
<g id="Node000003" class="node">
<title>Node3</title>
<g id="a_Node000003"><a xlink:href="namespacesdl.html#af1063550d176be4c42d353aaad43c27a" target="_top" xlink:title=" ">
<polygon fill="white" stroke="#666666" points="261.5,-19.25 178.75,-19.25 178.75,0 261.5,0 261.5,-19.25"/>
<text xml:space="preserve" text-anchor="middle" x="220.12" y="-5.75" font-family="Helvetica,sans-Serif" font-size="10.00">sdl::draw_letter</text>
</a>
</g>
</g>
<!-- Node1&#45;&gt;Node3 -->
<g id="edge2_Node000001_Node000003" class="edge">
<title>Node1&#45;&gt;Node3</title>
<g id="a_edge2_Node000001_Node000003"><a xlink:title=" ">
<path fill="none" stroke="#63b8ff" d="M143.17,-18.94C151.35,-17.94 159.56,-16.93 167.42,-15.97"/>
<polygon fill="#63b8ff" stroke="#63b8ff" points="167.61,-19.47 177.11,-14.78 166.76,-12.52 167.61,-19.47"/>
</a>
</g>
</g>
</g>
</svg>
