<?xml version="1.0" encoding="UTF-8" standalone="no"?>
<!DOCTYPE svg PUBLIC "-//W3C//DTD SVG 1.1//EN"
 "http://www.w3.org/Graphics/SVG/1.1/DTD/svg11.dtd">
<!-- Generated by graphviz version 14.1.1 (20251213.1925)
 -->
<!-- Title: sdl::SDLHeatmap::draw_text Pages: 1 -->
<svg width="465pt" height="260pt"
 viewBox="0.00 0.00 465.00 260.00" xmlns="http://www.w3.org/2000/svg" xmlns:xlink="http://www.w3.org/1999/xlink">
<g id="graph0" class="graph" transform="scale(1 1) rotate(0) translate(4 255.5)">
<title>sdl::SDLHeatmap::draw_text</title>
<!-- Node1 -->
<g id="Node000001" class="node">
<title>Node1</title>
<g id="a_Node000001"><a xlink:title=" ">
<polygon fill="#999999" stroke="#666666" points="456.75,-134.88 314,-134.88 314,-115.62 456.75,-115.62 456.75,-134.88"/>
<text xml:space="preserve" text-anchor="middle" x="385.38" y="-121.38" font-family="Helvetica,sans-Serif" font-size="10.00">sdl::SDLHeatmap::draw_text</text>
</a>
</g>
</g>
<!-- Node2 -->
<g id="Node000002" class="node">
<title>Node2</title>
<g id="a_Node000002"><a xlink:href="classsdl_1_1_s_d_l_heatmap.html#aeb321d70a2b70a27bab7bbecb1b1216b" target="_top" xlink:title=" ">
<polygon fill="white" stroke="#666666" points="278,-251.5 157,-251.5 157,-221 278,-221 278,-251.5"/>
<text xml:space="preserve" text-anchor="start" x="165" y="-238" font-family="Helvetica,sans-Serif" font-size="10.00">sdl::SDLHeatmap::draw</text>
<text xml:space="preserve" text-anchor="middle" x="217.5" y="-226.75" font-family="Helvetica,sans-Serif" font-size="10.00">_1d_cell</text>
</a>
</g>
</g>
<!-- Node1&#45;&gt;Node2 -->
<g id="edge1_Node000001_Node000002" class="edge">
<title>Node1&#45;&gt;Node2</title>
<g id="a_edge1_Node000001_Node000002"><a xlink:title=" ">
<path fill="none" stroke="#63b8ff" d="M364.6,-142.47C343.88,-160.03 309.96,-187.43 278,-207.25 270.38,-211.97 261.88,-216.51 253.75,-220.54"/>
<polygon fill="#63b8ff" stroke="#63b8ff" points="366.66,-145.31 371.98,-136.15 362.11,-139.99 366.66,-145.31"/>
</a>
</g>
</g>
<!-- Node3 -->
<g id="Node000003" class="node">
<title>Node3</title>
<g id="a_Node000003"><a xlink:href="classsdl_1_1_s_d_l_heatmap.html#afc7885cf33b3281b986e3012a277160b" target="_top" xlink:title=" ">
<polygon fill="white" stroke="#666666" points="121,-165.5 0,-165.5 0,-135 121,-135 121,-165.5"/>
<text xml:space="preserve" text-anchor="start" x="8" y="-152" font-family="Helvetica,sans-Serif" font-size="10.00">sdl::SDLHeatmap::draw</text>
<text xml:space="preserve" text-anchor="middle" x="60.5" y="-140.75" font-family="Helvetica,sans-Serif" font-size="10.00">_1d_fullscreen</text>
</a>
</g>
</g>
<!-- Node1&#45;&gt;Node3 -->
<g id="edge2_Node000001_Node000003" class="edge">
<title>Node1&#45;&gt;Node3</title>
<g id="a_edge2_Node000001_Node000003"><a xlink:title=" ">
<path fill="none" stroke="#63b8ff" d="M358.88,-140.82C338,-152.61 307.22,-167.84 278,-174.25 225.47,-185.77 210.37,-180.85 157,-174.25 143,-172.52 128.11,-169.41 114.35,-165.99"/>
<polygon fill="#63b8ff" stroke="#63b8ff" points="360.37,-144 367.26,-135.96 356.85,-137.95 360.37,-144"/>
</a>
</g>
</g>
<!-- Node4 -->
<g id="Node000004" class="node">
<title>Node4</title>
<g id="a_Node000004"><a xlink:href="classsdl_1_1_s_d_l_heatmap.html#a4f0cc9ea87a260bc10ebfc6b2c9fd6bf" target="_top" xlink:title=" ">
<polygon fill="white" stroke="#666666" points="278,-30.5 157,-30.5 157,0 278,0 278,-30.5"/>
<text xml:space="preserve" text-anchor="start" x="165" y="-17" font-family="Helvetica,sans-Serif" font-size="10.00">sdl::SDLHeatmap::draw</text>
<text xml:space="preserve" text-anchor="middle" x="217.5" y="-5.75" font-family="Helvetica,sans-Serif" font-size="10.00">_2d_cell</text>
</a>
</g>
</g>
<!-- Node1&#45;&gt;Node4 -->
<g id="edge3_Node000001_Node000004" class="edge">
<title>Node1&#45;&gt;Node4</title>
<g id="a_edge3_Node000001_Node000004"><a xlink:title=" ">
<path fill="none" stroke="#63b8ff" d="M364.22,-107.98C343.45,-90.64 309.71,-63.78 278,-44.25 270.37,-39.55 261.86,-35.02 253.73,-31"/>
<polygon fill="#63b8ff" stroke="#63b8ff" points="361.75,-110.47 371.65,-114.24 366.26,-105.11 361.75,-110.47"/>
</a>
</g>
</g>
<!-- Node5 -->
<g id="Node000005" class="node">
<title>Node5</title>
<g id="a_Node000005"><a xlink:href="classsdl_1_1_s_d_l_heatmap.html#ae17c83b550b2baac23518b89c6512611" target="_top" xlink:title=" ">
<polygon fill="white" stroke="#666666" points="121,-116.5 0,-116.5 0,-86 121,-86 121,-116.5"/>
<text xml:space="preserve" text-anchor="start" x="8" y="-103" font-family="Helvetica,sans-Serif" font-size="10.00">sdl::SDLHeatmap::draw</text>
<text xml:space="preserve" text-anchor="middle" x="60.5" y="-91.75" font-family="Helvetica,sans-Serif" font-size="10.00">_2d_fullscreen</text>
</a>
</g>
</g>
<!-- Node1&#45;&gt;Node5 -->
<g id="edge4_Node000001_Node000005" class="edge">
<title>Node1&#45;&gt;Node5</title>
<g id="a_edge4_Node000001_Node000005"><a xlink:title=" ">
<path fill="none" stroke="#63b8ff" d="M358.19,-109.64C337.29,-98.13 306.84,-83.46 278,-77.25 225.43,-65.94 210.37,-70.65 157,-77.25 143,-78.98 128.11,-82.09 114.35,-85.51"/>
<polygon fill="#63b8ff" stroke="#63b8ff" points="356.44,-112.67 366.87,-114.55 359.89,-106.58 356.44,-112.67"/>
</a>
</g>
</g>
<!-- Node6 -->
<g id="Node000006" class="node">
<title>Node6</title>
<g id="a_Node000006"><a xlink:href="classsdl_1_1_s_d_l_heatmap.html#a9eccaaefe82bc20e222c36d6b93e80af" target="_top" xlink:title=" ">
<polygon fill="white" stroke="#666666" points="278,-165.5 157,-165.5 157,-135 278,-135 278,-165.5"/>
<text xml:space="preserve" text-anchor="start" x="165" y="-152" font-family="Helvetica,sans-Serif" font-size="10.00">sdl::SDLHeatmap::draw</text>
<text xml:space="preserve" text-anchor="middle" x="217.5" y="-140.75" font-family="Helvetica,sans-Serif" font-size="10.00">_colorbar</text>
</a>
</g>
</g>
<!-- Node1&#45;&gt;Node6 -->
<g id="edge5_Node000001_Node000006" class="edge">
<title>Node1&#45;&gt;Node6</title>
<g id="a_edge5_Node000001_Node000006"><a xlink:title=" ">
<path fill="none" stroke="#63b8ff" d="M306.05,-137.05C296.71,-138.46 287.28,-139.88 278.25,-141.24"/>
<polygon fill="#63b8ff" stroke="#63b8ff" points="306.52,-140.52 315.89,-135.57 305.48,-133.6 306.52,-140.52"/>
</a>
</g>
</g>
<!-- Node7 -->
<g id="Node000007" class="node">
<title>Node7</title>
<g id="a_Node000007"><a xlink:href="classsdl_1_1_s_d_l_heatmap.html#afb950bdd4b18f9356775188a8af3b56a" target="_top" xlink:title=" ">
<polygon fill="white" stroke="#666666" points="278,-116.5 157,-116.5 157,-86 278,-86 278,-116.5"/>
<text xml:space="preserve" text-anchor="start" x="165" y="-103" font-family="Helvetica,sans-Serif" font-size="10.00">sdl::SDLHeatmap::draw</text>
<text xml:space="preserve" text-anchor="middle" x="217.5" y="-91.75" font-family="Helvetica,sans-Serif" font-size="10.00">_info_panel</text>
</a>
</g>
</g>
<!-- Node1&#45;&gt;Node7 -->
<g id="edge8_Node000001_Node000007" class="edge">
<title>Node1&#45;&gt;Node7</title>
<g id="a_edge8_Node000001_Node000007"><a xlink:title=" ">
<path fill="none" stroke="#63b8ff" d="M303.14,-113.5C294.77,-112.29 286.38,-111.07 278.3,-109.9"/>
<polygon fill="#63b8ff" stroke="#63b8ff" points="302.61,-116.96 313.01,-114.92 303.62,-110.03 302.61,-116.96"/>
</a>
</g>
</g>
<!-- Node6&#45;&gt;Node3 -->
<g id="edge6_Node000006_Node000003" class="edge">
<title>Node6&#45;&gt;Node3</title>
<g id="a_edge6_Node000006_Node000003"><a xlink:title=" ">
<path fill="none" stroke="#63b8ff" d="M145.31,-150.25C137.27,-150.25 129.14,-150.25 121.27,-150.25"/>
<polygon fill="#63b8ff" stroke="#63b8ff" points="145.06,-153.75 155.06,-150.25 145.06,-146.75 145.06,-153.75"/>
</a>
</g>
</g>
<!-- Node6&#45;&gt;Node5 -->
<g id="edge7_Node000006_Node000005" class="edge">
<title>Node6&#45;&gt;Node5</title>
<g id="a_edge7_Node000006_Node000005"><a xlink:title=" ">
<path fill="none" stroke="#63b8ff" d="M156.37,-131.24C141.46,-126.53 125.65,-121.53 111.3,-116.99"/>
<polygon fill="#63b8ff" stroke="#63b8ff" points="155,-134.48 165.59,-134.16 157.11,-127.8 155,-134.48"/>
</a>
</g>
</g>
<!-- Node7&#45;&gt;Node3 -->
<g id="edge9_Node000007_Node000003" class="edge">
<title>Node7&#45;&gt;Node3</title>
<g id="a_edge9_Node000007_Node000003"><a xlink:title=" ">
<path fill="none" stroke="#63b8ff" d="M156.37,-120.26C141.46,-124.97 125.65,-129.97 111.3,-134.51"/>
<polygon fill="#63b8ff" stroke="#63b8ff" points="157.11,-123.7 165.59,-117.34 155,-117.02 157.11,-123.7"/>
</a>
</g>
</g>
<!-- Node7&#45;&gt;Node5 -->
<g id="edge10_Node000007_Node000005" class="edge">
<title>Node7&#45;&gt;Node5</title>
<g id="a_edge10_Node000007_Node000005"><a xlink:title=" ">
<path fill="none" stroke="#63b8ff" d="M145.31,-101.25C137.27,-101.25 129.14,-101.25 121.27,-101.25"/>
<polygon fill="#63b8ff" stroke="#63b8ff" points="145.06,-104.75 155.06,-101.25 145.06,-97.75 145.06,-104.75"/>
</a>
</g>
</g>
</g>
</svg>
