<?xml version="1.0" encoding="UTF-8" standalone="no"?>
<!DOCTYPE svg PUBLIC "-//W3C//DTD SVG 1.1//EN"
 "http://www.w3.org/Graphics/SVG/1.1/DTD/svg11.dtd">
<!-- Generated by graphviz version 14.1.1 (20251213.1925)
 -->
<!-- Title: sdl::SDLHeatmap::draw_grid Pages: 1 -->
<svg width="307pt" height="88pt"
 viewBox="0.00 0.00 307.00 88.00" xmlns="http://www.w3.org/2000/svg" xmlns:xlink="http://www.w3.org/1999/xlink">
<g id="graph0" class="graph" transform="scale(1 1) rotate(0) translate(4 83.5)">
<title>sdl::SDLHeatmap::draw_grid</title>
<!-- Node1 -->
<g id="Node000001" class="node">
<title>Node1</title>
<g id="a_Node000001"><a xlink:title=" ">
<polygon fill="#999999" stroke="#666666" points="299,-48.88 157,-48.88 157,-29.62 299,-29.62 299,-48.88"/>
<text xml:space="preserve" text-anchor="middle" x="228" y="-35.38" font-family="Helvetica,sans-Serif" font-size="10.00">sdl::SDLHeatmap::draw_grid</text>
</a>
</g>
</g>
<!-- Node2 -->
<g id="Node000002" class="node">
<title>Node2</title>
<g id="a_Node000002"><a xlink:href="classsdl_1_1_s_d_l_heatmap.html#afc7885cf33b3281b986e3012a277160b" target="_top" xlink:title=" ">
<polygon fill="white" stroke="#666666" points="121,-79.5 0,-79.5 0,-49 121,-49 121,-79.5"/>
<text xml:space="preserve" text-anchor="start" x="8" y="-66" font-family="Helvetica,sans-Serif" font-size="10.00">sdl::SDLHeatmap::draw</text>
<text xml:space="preserve" text-anchor="middle" x="60.5" y="-54.75" font-family="Helvetica,sans-Serif" font-size="10.00">_1d_fullscreen</text>
</a>
</g>
</g>
<!-- Node1&#45;&gt;Node2 -->
<g id="edge1_Node000001_Node000002" class="edge">
<title>Node1&#45;&gt;Node2</title>
<g id="a_edge1_Node000001_Node000002"><a xlink:title=" ">
<path fill="none" stroke="#63b8ff" d="M148.94,-51.04C139.67,-52.44 130.33,-53.85 121.38,-55.2"/>
<polygon fill="#63b8ff" stroke="#63b8ff" points="149.3,-54.53 158.67,-49.57 148.25,-47.61 149.3,-54.53"/>
</a>
</g>
</g>
<!-- Node3 -->
<g id="Node000003" class="node">
<title>Node3</title>
<g id="a_Node000003"><a xlink:href="classsdl_1_1_s_d_l_heatmap.html#ae17c83b550b2baac23518b89c6512611" target="_top" xlink:title=" ">
<polygon fill="white" stroke="#666666" points="121,-30.5 0,-30.5 0,0 121,0 121,-30.5"/>
<text xml:space="preserve" text-anchor="start" x="8" y="-17" font-family="Helvetica,sans-Serif" font-size="10.00">sdl::SDLHeatmap::draw</text>
<text xml:space="preserve" text-anchor="middle" x="60.5" y="-5.75" font-family="Helvetica,sans-Serif" font-size="10.00">_2d_fullscreen</text>
</a>
</g>
</g>
<!-- Node1&#45;&gt;Node3 -->
<g id="edge2_Node000001_Node000003" class="edge">
<title>Node1&#45;&gt;Node3</title>
<g id="a_edge2_Node000001_Node000003"><a xlink:title=" ">
<path fill="none" stroke="#63b8ff" d="M146.03,-27.51C137.75,-26.31 129.43,-25.1 121.43,-23.94"/>
<polygon fill="#63b8ff" stroke="#63b8ff" points="145.4,-30.95 155.79,-28.92 146.4,-24.03 145.4,-30.95"/>
</a>
</g>
</g>
</g>
</svg>
