<?xml version="1.0" encoding="UTF-8" standalone="no"?>
<!DOCTYPE svg PUBLIC "-//W3C//DTD SVG 1.1//EN"
 "http://www.w3.org/Graphics/SVG/1.1/DTD/svg11.dtd">
<!-- Generated by graphviz version 14.1.1 (20251213.1925)
 -->
<!-- Title: sdl::SDLApp::run Pages: 1 -->
<svg width="261pt" height="150pt"
 viewBox="0.00 0.00 261.00 150.00" xmlns="http://www.w3.org/2000/svg" xmlns:xlink="http://www.w3.org/1999/xlink">
<g id="graph0" class="graph" transform="scale(1 1) rotate(0) translate(4 146.25)">
<title>sdl::SDLApp::run</title>
<!-- Node1 -->
<g id="Node000001" class="node">
<title>Node1</title>
<g id="a_Node000001"><a xlink:title=" ">
<polygon fill="#999999" stroke="#666666" points="91,-77.25 0,-77.25 0,-58 91,-58 91,-77.25"/>
<text xml:space="preserve" text-anchor="middle" x="45.5" y="-63.75" font-family="Helvetica,sans-Serif" font-size="10.00">sdl::SDLApp::run</text>
</a>
</g>
</g>
<!-- Node2 -->
<g id="Node000002" class="node">
<title>Node2</title>
<g id="a_Node000002"><a xlink:href="classsdl_1_1_s_d_l_core.html#a72cf07dd648be5695d5500c1459cffba" target="_top" xlink:title=" ">
<polygon fill="white" stroke="#666666" points="242,-142.25 137.5,-142.25 137.5,-123 242,-123 242,-142.25"/>
<text xml:space="preserve" text-anchor="middle" x="189.75" y="-128.75" font-family="Helvetica,sans-Serif" font-size="10.00">sdl::SDLCore::delay</text>
</a>
</g>
</g>
<!-- Node1&#45;&gt;Node2 -->
<g id="edge1_Node000001_Node000002" class="edge">
<title>Node1&#45;&gt;Node2</title>
<g id="a_edge1_Node000001_Node000002"><a xlink:title=" ">
<path fill="none" stroke="#63b8ff" d="M61.71,-77.67C77.51,-87.78 103.22,-103.32 127,-113.62 131.34,-115.51 135.93,-117.28 140.56,-118.94"/>
<polygon fill="#63b8ff" stroke="#63b8ff" points="139.34,-122.22 149.94,-122.09 141.58,-115.59 139.34,-122.22"/>
</a>
</g>
</g>
<!-- Node3 -->
<g id="Node000003" class="node">
<title>Node3</title>
<g id="a_Node000003"><a xlink:href="classsdl_1_1_s_d_l_app.html#ab968b0b1b52b88ccba2f2ce6e5c0440a" target="_top" xlink:title=" ">
<polygon fill="white" stroke="#666666" points="245.75,-104.88 133.75,-104.88 133.75,-74.38 245.75,-74.38 245.75,-104.88"/>
<text xml:space="preserve" text-anchor="start" x="141.75" y="-91.38" font-family="Helvetica,sans-Serif" font-size="10.00">sdl::SDLApp::process</text>
<text xml:space="preserve" text-anchor="middle" x="189.75" y="-80.12" font-family="Helvetica,sans-Serif" font-size="10.00">_events</text>
</a>
</g>
</g>
<!-- Node1&#45;&gt;Node3 -->
<g id="edge2_Node000001_Node000003" class="edge">
<title>Node1&#45;&gt;Node3</title>
<g id="a_edge2_Node000001_Node000003"><a xlink:title=" ">
<path fill="none" stroke="#63b8ff" d="M91.12,-74.53C100.93,-76.04 111.53,-77.68 122,-79.3"/>
<polygon fill="#63b8ff" stroke="#63b8ff" points="121.36,-82.74 131.78,-80.81 122.43,-75.83 121.36,-82.74"/>
</a>
</g>
</g>
<!-- Node4 -->
<g id="Node000004" class="node">
<title>Node4</title>
<g id="a_Node000004"><a xlink:href="classsdl_1_1_s_d_l_app.html#adbaa5896ae80063ae1fbb05a4ce81cac" target="_top" xlink:title=" ">
<polygon fill="white" stroke="#666666" points="242,-56.25 137.5,-56.25 137.5,-37 242,-37 242,-56.25"/>
<text xml:space="preserve" text-anchor="middle" x="189.75" y="-42.75" font-family="Helvetica,sans-Serif" font-size="10.00">sdl::SDLApp::render</text>
</a>
</g>
</g>
<!-- Node1&#45;&gt;Node4 -->
<g id="edge3_Node000001_Node000004" class="edge">
<title>Node1&#45;&gt;Node4</title>
<g id="a_edge3_Node000001_Node000004"><a xlink:title=" ">
<path fill="none" stroke="#63b8ff" d="M91.12,-61.04C102.17,-59.41 114.22,-57.63 125.96,-55.89"/>
<polygon fill="#63b8ff" stroke="#63b8ff" points="126.2,-59.4 135.59,-54.47 125.18,-52.47 126.2,-59.4"/>
</a>
</g>
</g>
<!-- Node5 -->
<g id="Node000005" class="node">
<title>Node5</title>
<g id="a_Node000005"><a xlink:href="classsdl_1_1_s_d_l_app.html#a3cdf9dcd297d4d63bffcbc4ee95c9a8b" target="_top" xlink:title=" ">
<polygon fill="white" stroke="#666666" points="252.5,-19.25 127,-19.25 127,0 252.5,0 252.5,-19.25"/>
<text xml:space="preserve" text-anchor="middle" x="189.75" y="-5.75" font-family="Helvetica,sans-Serif" font-size="10.00">sdl::SDLApp::render_grid</text>
</a>
</g>
</g>
<!-- Node1&#45;&gt;Node5 -->
<g id="edge4_Node000001_Node000005" class="edge">
<title>Node1&#45;&gt;Node5</title>
<g id="a_edge4_Node000001_Node000005"><a xlink:title=" ">
<path fill="none" stroke="#63b8ff" d="M64.31,-57.63C80.35,-48.9 104.76,-36.31 127,-27.62 131.04,-26.05 135.27,-24.53 139.55,-23.1"/>
<polygon fill="#63b8ff" stroke="#63b8ff" points="140.27,-26.55 148.74,-20.18 138.15,-19.87 140.27,-26.55"/>
</a>
</g>
</g>
</g>
</svg>
