<?xml version="1.0" encoding="UTF-8" standalone="no"?>
<!DOCTYPE svg PUBLIC "-//W3C//DTD SVG 1.1//EN"
 "http://www.w3.org/Graphics/SVG/1.1/DTD/svg11.dtd">
<!-- Generated by graphviz version 14.1.1 (20251213.1925)
 -->
<!-- Title: sdl::SDLHeatmap::temp_to_rgb Pages: 1 -->
<svg width="444pt" height="196pt"
 viewBox="0.00 0.00 444.00 196.00" xmlns="http://www.w3.org/2000/svg" xmlns:xlink="http://www.w3.org/1999/xlink">
<g id="graph0" class="graph" transform="scale(1 1) rotate(0) translate(4 191.65)">
<title>sdl::SDLHeatmap::temp_to_rgb</title>
<!-- Node1 -->
<g id="Node000001" class="node">
<title>Node1</title>
<g id="a_Node000001"><a xlink:title=" ">
<polygon fill="#999999" stroke="#666666" points="435.75,-101.65 314,-101.65 314,-71.15 435.75,-71.15 435.75,-101.65"/>
<text xml:space="preserve" text-anchor="start" x="322" y="-88.15" font-family="Helvetica,sans-Serif" font-size="10.00">sdl::SDLHeatmap::temp</text>
<text xml:space="preserve" text-anchor="middle" x="374.88" y="-76.9" font-family="Helvetica,sans-Serif" font-size="10.00">_to_rgb</text>
</a>
</g>
</g>
<!-- Node2 -->
<g id="Node000002" class="node">
<title>Node2</title>
<g id="a_Node000002"><a xlink:href="classsdl_1_1_s_d_l_heatmap.html#aeb321d70a2b70a27bab7bbecb1b1216b" target="_top" xlink:title=" ">
<polygon fill="white" stroke="#666666" points="278,-187.65 157,-187.65 157,-157.15 278,-157.15 278,-187.65"/>
<text xml:space="preserve" text-anchor="start" x="165" y="-174.15" font-family="Helvetica,sans-Serif" font-size="10.00">sdl::SDLHeatmap::draw</text>
<text xml:space="preserve" text-anchor="middle" x="217.5" y="-162.9" font-family="Helvetica,sans-Serif" font-size="10.00">_1d_cell</text>
</a>
</g>
</g>
<!-- Node1&#45;&gt;Node2 -->
<g id="edge1_Node000001_Node000002" class="edge">
<title>Node1&#45;&gt;Node2</title>
<g id="a_edge1_Node000001_Node000002"><a xlink:title=" ">
<path fill="none" stroke="#63b8ff" d="M339.18,-107.96C321.14,-118.94 298.61,-132.27 278,-143.4 269.61,-147.93 260.4,-152.57 251.79,-156.77"/>
<polygon fill="#63b8ff" stroke="#63b8ff" points="340.98,-110.97 347.68,-102.76 337.32,-105 340.98,-110.97"/>
</a>
</g>
</g>
<!-- Node3 -->
<g id="Node000003" class="node">
<title>Node3</title>
<g id="a_Node000003"><a xlink:href="classsdl_1_1_s_d_l_heatmap.html#afc7885cf33b3281b986e3012a277160b" target="_top" xlink:title=" ">
<polygon fill="white" stroke="#666666" points="121,-111.65 0,-111.65 0,-81.15 121,-81.15 121,-111.65"/>
<text xml:space="preserve" text-anchor="start" x="8" y="-98.15" font-family="Helvetica,sans-Serif" font-size="10.00">sdl::SDLHeatmap::draw</text>
<text xml:space="preserve" text-anchor="middle" x="60.5" y="-86.9" font-family="Helvetica,sans-Serif" font-size="10.00">_1d_fullscreen</text>
</a>
</g>
</g>
<!-- Node1&#45;&gt;Node3 -->
<g id="edge2_Node000001_Node000003" class="edge">
<title>Node1&#45;&gt;Node3</title>
<g id="a_edge2_Node000001_Node000003"><a xlink:title=" ">
<path fill="none" stroke="#63b8ff" d="M309.94,-104.7C299.35,-107.07 288.43,-109.11 278,-110.4 224.63,-116.97 210.64,-114.31 157,-110.4 145.47,-109.56 133.22,-108.15 121.47,-106.55"/>
<polygon fill="#63b8ff" stroke="#63b8ff" points="310.41,-108.19 319.34,-102.49 308.8,-101.37 310.41,-108.19"/>
</a>
</g>
</g>
<!-- Node4 -->
<g id="Node000004" class="node">
<title>Node4</title>
<g id="a_Node000004"><a xlink:href="classsdl_1_1_s_d_l_heatmap.html#a4f0cc9ea87a260bc10ebfc6b2c9fd6bf" target="_top" xlink:title=" ">
<polygon fill="white" stroke="#666666" points="278,-101.65 157,-101.65 157,-71.15 278,-71.15 278,-101.65"/>
<text xml:space="preserve" text-anchor="start" x="165" y="-88.15" font-family="Helvetica,sans-Serif" font-size="10.00">sdl::SDLHeatmap::draw</text>
<text xml:space="preserve" text-anchor="middle" x="217.5" y="-76.9" font-family="Helvetica,sans-Serif" font-size="10.00">_2d_cell</text>
</a>
</g>
</g>
<!-- Node1&#45;&gt;Node4 -->
<g id="edge3_Node000001_Node000004" class="edge">
<title>Node1&#45;&gt;Node4</title>
<g id="a_edge3_Node000001_Node000004"><a xlink:title=" ">
<path fill="none" stroke="#63b8ff" d="M302.51,-86.4C294.45,-86.4 286.3,-86.4 278.41,-86.4"/>
<polygon fill="#63b8ff" stroke="#63b8ff" points="302.29,-89.9 312.29,-86.4 302.29,-82.9 302.29,-89.9"/>
</a>
</g>
</g>
<!-- Node5 -->
<g id="Node000005" class="node">
<title>Node5</title>
<g id="a_Node000005"><a xlink:href="classsdl_1_1_s_d_l_heatmap.html#ae17c83b550b2baac23518b89c6512611" target="_top" xlink:title=" ">
<polygon fill="white" stroke="#666666" points="121,-30.65 0,-30.65 0,-0.15 121,-0.15 121,-30.65"/>
<text xml:space="preserve" text-anchor="start" x="8" y="-17.15" font-family="Helvetica,sans-Serif" font-size="10.00">sdl::SDLHeatmap::draw</text>
<text xml:space="preserve" text-anchor="middle" x="60.5" y="-5.9" font-family="Helvetica,sans-Serif" font-size="10.00">_2d_fullscreen</text>
</a>
</g>
</g>
<!-- Node1&#45;&gt;Node5 -->
<g id="edge4_Node000001_Node000005" class="edge">
<title>Node1&#45;&gt;Node5</title>
<g id="a_edge4_Node000001_Node000005"><a xlink:title=" ">
<path fill="none" stroke="#63b8ff" d="M351.73,-62.68C333.77,-45.3 306.79,-23.11 278,-13.4 227.07,3.79 165.48,1.15 121.04,-4.53"/>
<polygon fill="#63b8ff" stroke="#63b8ff" points="349.18,-65.08 358.72,-69.68 354.13,-60.13 349.18,-65.08"/>
</a>
</g>
</g>
<!-- Node6 -->
<g id="Node000006" class="node">
<title>Node6</title>
<g id="a_Node000006"><a xlink:href="classsdl_1_1_s_d_l_heatmap.html#a9eccaaefe82bc20e222c36d6b93e80af" target="_top" xlink:title=" ">
<polygon fill="white" stroke="#666666" points="278,-52.65 157,-52.65 157,-22.15 278,-22.15 278,-52.65"/>
<text xml:space="preserve" text-anchor="start" x="165" y="-39.15" font-family="Helvetica,sans-Serif" font-size="10.00">sdl::SDLHeatmap::draw</text>
<text xml:space="preserve" text-anchor="middle" x="217.5" y="-27.9" font-family="Helvetica,sans-Serif" font-size="10.00">_colorbar</text>
</a>
</g>
</g>
<!-- Node1&#45;&gt;Node6 -->
<g id="edge5_Node000001_Node000006" class="edge">
<title>Node1&#45;&gt;Node6</title>
<g id="a_edge5_Node000001_Node000006"><a xlink:title=" ">
<path fill="none" stroke="#63b8ff" d="M313.6,-67.39C298.65,-62.67 282.8,-57.68 268.42,-53.14"/>
<polygon fill="#63b8ff" stroke="#63b8ff" points="312.25,-70.63 322.84,-70.3 314.36,-63.96 312.25,-70.63"/>
</a>
</g>
</g>
<!-- Node6&#45;&gt;Node3 -->
<g id="edge6_Node000006_Node000003" class="edge">
<title>Node6&#45;&gt;Node3</title>
<g id="a_edge6_Node000006_Node000003"><a xlink:title=" ">
<path fill="none" stroke="#63b8ff" d="M164.79,-57.08C144.64,-64.75 121.85,-73.42 102.82,-80.67"/>
<polygon fill="#63b8ff" stroke="#63b8ff" points="165.85,-60.42 173.96,-53.59 163.36,-53.88 165.85,-60.42"/>
</a>
</g>
</g>
<!-- Node6&#45;&gt;Node5 -->
<g id="edge7_Node000006_Node000005" class="edge">
<title>Node6&#45;&gt;Node5</title>
<g id="a_edge7_Node000006_Node000005"><a xlink:title=" ">
<path fill="none" stroke="#63b8ff" d="M145.31,-27.29C137.27,-26.15 129.14,-25 121.27,-23.88"/>
<polygon fill="#63b8ff" stroke="#63b8ff" points="144.68,-30.74 155.07,-28.68 145.67,-23.81 144.68,-30.74"/>
</a>
</g>
</g>
</g>
</svg>
