<?xml version="1.0" encoding="UTF-8" standalone="no"?>
<!DOCTYPE svg PUBLIC "-//W3C//DTD SVG 1.1//EN"
 "http://www.w3.org/Graphics/SVG/1.1/DTD/svg11.dtd">
<!-- Generated by graphviz version 14.1.1 (20251213.1925)
 -->
<!-- Title: sdl::SDLHeatmap::draw_1d_fullscreen Pages: 1 -->
<svg width="605pt" height="224pt"
 viewBox="0.00 0.00 605.00 224.00" xmlns="http://www.w3.org/2000/svg" xmlns:xlink="http://www.w3.org/1999/xlink">
<g id="graph0" class="graph" transform="scale(1 1) rotate(0) translate(4 220.13)">
<title>sdl::SDLHeatmap::draw_1d_fullscreen</title>
<!-- Node1 -->
<g id="Node000001" class="node">
<title>Node1</title>
<g id="a_Node000001"><a xlink:title=" ">
<polygon fill="#999999" stroke="#666666" points="121,-130.5 0,-130.5 0,-100 121,-100 121,-130.5"/>
<text xml:space="preserve" text-anchor="start" x="8" y="-117" font-family="Helvetica,sans-Serif" font-size="10.00">sdl::SDLHeatmap::draw</text>
<text xml:space="preserve" text-anchor="middle" x="60.5" y="-105.75" font-family="Helvetica,sans-Serif" font-size="10.00">_1d_fullscreen</text>
</a>
</g>
</g>
<!-- Node2 -->
<g id="Node000002" class="node">
<title>Node2</title>
<g id="a_Node000002"><a xlink:href="classsdl_1_1_s_d_l_heatmap.html#a9eccaaefe82bc20e222c36d6b93e80af" target="_top" xlink:title=" ">
<polygon fill="white" stroke="#666666" points="288.5,-192.5 167.5,-192.5 167.5,-162 288.5,-162 288.5,-192.5"/>
<text xml:space="preserve" text-anchor="start" x="175.5" y="-179" font-family="Helvetica,sans-Serif" font-size="10.00">sdl::SDLHeatmap::draw</text>
<text xml:space="preserve" text-anchor="middle" x="228" y="-167.75" font-family="Helvetica,sans-Serif" font-size="10.00">_colorbar</text>
</a>
</g>
</g>
<!-- Node1&#45;&gt;Node2 -->
<g id="edge1_Node000001_Node000002" class="edge">
<title>Node1&#45;&gt;Node2</title>
<g id="a_edge1_Node000001_Node000002"><a xlink:title=" ">
<path fill="none" stroke="#63b8ff" d="M103.26,-130.9C124.84,-138.98 151.39,-148.92 174.35,-157.53"/>
<polygon fill="#63b8ff" stroke="#63b8ff" points="172.95,-160.74 183.55,-160.97 175.41,-154.19 172.95,-160.74"/>
</a>
</g>
</g>
<!-- Node3 -->
<g id="Node000003" class="node">
<title>Node3</title>
<g id="a_Node000003"><a xlink:href="classsdl_1_1_s_d_l_heatmap.html#a0b9fb36b9fafa26b4ba4725b8d985cd9" target="_top" xlink:title=" ">
<polygon fill="white" stroke="#666666" points="466.88,-203.5 345.88,-203.5 345.88,-173 466.88,-173 466.88,-203.5"/>
<text xml:space="preserve" text-anchor="start" x="353.88" y="-190" font-family="Helvetica,sans-Serif" font-size="10.00">sdl::SDLHeatmap::draw</text>
<text xml:space="preserve" text-anchor="middle" x="406.38" y="-178.75" font-family="Helvetica,sans-Serif" font-size="10.00">_number</text>
</a>
</g>
</g>
<!-- Node1&#45;&gt;Node3 -->
<g id="edge11_Node000001_Node000003" class="edge">
<title>Node1&#45;&gt;Node3</title>
<g id="a_edge11_Node000001_Node000003"><a xlink:title=" ">
<path fill="none" stroke="#63b8ff" d="M72.64,-130.72C88.59,-151.4 120.13,-187.1 157,-201.25 215.12,-223.56 286.55,-216.62 337.87,-206.3"/>
<polygon fill="#63b8ff" stroke="#63b8ff" points="338.28,-209.79 347.34,-204.29 336.84,-202.94 338.28,-209.79"/>
</a>
</g>
</g>
<!-- Node5 -->
<g id="Node000005" class="node">
<title>Node5</title>
<g id="a_Node000005"><a xlink:href="classsdl_1_1_s_d_l_heatmap.html#ac4eb50b210494fc3432db40a0071ceed" target="_top" xlink:title=" ">
<polygon fill="white" stroke="#666666" points="477.75,-105.88 335,-105.88 335,-86.62 477.75,-86.62 477.75,-105.88"/>
<text xml:space="preserve" text-anchor="middle" x="406.38" y="-92.38" font-family="Helvetica,sans-Serif" font-size="10.00">sdl::SDLHeatmap::draw_text</text>
</a>
</g>
</g>
<!-- Node1&#45;&gt;Node5 -->
<g id="edge12_Node000001_Node000005" class="edge">
<title>Node1&#45;&gt;Node5</title>
<g id="a_edge12_Node000001_Node000005"><a xlink:title=" ">
<path fill="none" stroke="#63b8ff" d="M121.4,-111.94C177.28,-108.85 261.14,-104.22 323.25,-100.79"/>
<polygon fill="#63b8ff" stroke="#63b8ff" points="323.28,-104.29 333.08,-100.24 322.9,-97.3 323.28,-104.29"/>
</a>
</g>
</g>
<!-- Node7 -->
<g id="Node000007" class="node">
<title>Node7</title>
<g id="a_Node000007"><a xlink:href="classsdl_1_1_s_d_l_heatmap.html#a9b8e84cb883ff4143a80c670712a3f62" target="_top" xlink:title=" ">
<polygon fill="white" stroke="#666666" points="467.25,-154.5 345.5,-154.5 345.5,-124 467.25,-124 467.25,-154.5"/>
<text xml:space="preserve" text-anchor="start" x="353.5" y="-141" font-family="Helvetica,sans-Serif" font-size="10.00">sdl::SDLHeatmap::temp</text>
<text xml:space="preserve" text-anchor="middle" x="406.38" y="-129.75" font-family="Helvetica,sans-Serif" font-size="10.00">_to_rgb</text>
</a>
</g>
</g>
<!-- Node1&#45;&gt;Node7 -->
<g id="edge13_Node000001_Node000007" class="edge">
<title>Node1&#45;&gt;Node7</title>
<g id="a_edge13_Node000001_Node000007"><a xlink:title=" ">
<path fill="none" stroke="#63b8ff" d="M121.4,-119.43C180.45,-123.55 270.74,-129.85 333.6,-134.24"/>
<polygon fill="#63b8ff" stroke="#63b8ff" points="333.28,-137.73 343.5,-134.93 333.77,-130.74 333.28,-137.73"/>
</a>
</g>
</g>
<!-- Node8 -->
<g id="Node000008" class="node">
<title>Node8</title>
<g id="a_Node000008"><a xlink:href="classsdl_1_1_s_d_l_heatmap.html#a71d7e2e5b1d745d8249a67b73d0e3841" target="_top" xlink:title=" ">
<polygon fill="white" stroke="#666666" points="299,-67.88 157,-67.88 157,-48.62 299,-48.62 299,-67.88"/>
<text xml:space="preserve" text-anchor="middle" x="228" y="-54.38" font-family="Helvetica,sans-Serif" font-size="10.00">sdl::SDLHeatmap::draw_grid</text>
</a>
</g>
</g>
<!-- Node1&#45;&gt;Node8 -->
<g id="edge8_Node000001_Node000008" class="edge">
<title>Node1&#45;&gt;Node8</title>
<g id="a_edge8_Node000001_Node000008"><a xlink:title=" ">
<path fill="none" stroke="#63b8ff" d="M106.67,-99.62C122.58,-94.12 140.58,-87.9 157,-82.25 166.71,-78.91 177.18,-75.31 186.99,-71.95"/>
<polygon fill="#63b8ff" stroke="#63b8ff" points="187.95,-75.32 196.27,-68.77 185.68,-68.7 187.95,-75.32"/>
</a>
</g>
</g>
<!-- Node9 -->
<g id="Node000009" class="node">
<title>Node9</title>
<g id="a_Node000009"><a xlink:href="classsdl_1_1_s_d_l_heatmap.html#afb950bdd4b18f9356775188a8af3b56a" target="_top" xlink:title=" ">
<polygon fill="white" stroke="#666666" points="288.5,-30.5 167.5,-30.5 167.5,0 288.5,0 288.5,-30.5"/>
<text xml:space="preserve" text-anchor="start" x="175.5" y="-17" font-family="Helvetica,sans-Serif" font-size="10.00">sdl::SDLHeatmap::draw</text>
<text xml:space="preserve" text-anchor="middle" x="228" y="-5.75" font-family="Helvetica,sans-Serif" font-size="10.00">_info_panel</text>
</a>
</g>
</g>
<!-- Node1&#45;&gt;Node9 -->
<g id="edge9_Node000001_Node000009" class="edge">
<title>Node1&#45;&gt;Node9</title>
<g id="a_edge9_Node000001_Node000009"><a xlink:title=" ">
<path fill="none" stroke="#63b8ff" d="M77.5,-99.64C95.53,-82.77 126.34,-56.05 157,-39.25 159.46,-37.9 162.02,-36.6 164.63,-35.37"/>
<polygon fill="#63b8ff" stroke="#63b8ff" points="165.77,-38.69 173.52,-31.47 162.96,-32.28 165.77,-38.69"/>
</a>
</g>
</g>
<!-- Node2&#45;&gt;Node3 -->
<g id="edge2_Node000002_Node000003" class="edge">
<title>Node2&#45;&gt;Node3</title>
<g id="a_edge2_Node000002_Node000003"><a xlink:title=" ">
<path fill="none" stroke="#63b8ff" d="M288.71,-180.97C303.29,-181.88 319.02,-182.86 334.08,-183.8"/>
<polygon fill="#63b8ff" stroke="#63b8ff" points="333.71,-187.29 343.91,-184.42 334.15,-180.3 333.71,-187.29"/>
</a>
</g>
</g>
<!-- Node2&#45;&gt;Node5 -->
<g id="edge4_Node000002_Node000005" class="edge">
<title>Node2&#45;&gt;Node5</title>
<g id="a_edge4_Node000002_Node000005"><a xlink:title=" ">
<path fill="none" stroke="#63b8ff" d="M251.65,-161.6C272.51,-147.79 304.71,-127.93 335,-115.25 339.85,-113.22 344.98,-111.35 350.18,-109.63"/>
<polygon fill="#63b8ff" stroke="#63b8ff" points="350.88,-113.08 359.4,-106.79 348.82,-106.39 350.88,-113.08"/>
</a>
</g>
</g>
<!-- Node2&#45;&gt;Node7 -->
<g id="edge7_Node000002_Node000007" class="edge">
<title>Node2&#45;&gt;Node7</title>
<g id="a_edge7_Node000002_Node000007"><a xlink:title=" ">
<path fill="none" stroke="#63b8ff" d="M288.71,-164.38C303.35,-161.23 319.16,-157.83 334.27,-154.57"/>
<polygon fill="#63b8ff" stroke="#63b8ff" points="334.61,-158.08 343.64,-152.55 333.13,-151.23 334.61,-158.08"/>
</a>
</g>
</g>
<!-- Node4 -->
<g id="Node000004" class="node">
<title>Node4</title>
<g id="a_Node000004"><a xlink:href="namespacesdl.html#aa3e8187f011be2af6cdd67f41fca97d6" target="_top" xlink:title=" ">
<polygon fill="white" stroke="#666666" points="594.62,-169.88 515.62,-169.88 515.62,-150.62 594.62,-150.62 594.62,-169.88"/>
<text xml:space="preserve" text-anchor="middle" x="555.12" y="-156.38" font-family="Helvetica,sans-Serif" font-size="10.00">sdl::draw_digit</text>
</a>
</g>
</g>
<!-- Node3&#45;&gt;Node4 -->
<g id="edge3_Node000003_Node000004" class="edge">
<title>Node3&#45;&gt;Node4</title>
<g id="a_edge3_Node000003_Node000004"><a xlink:title=" ">
<path fill="none" stroke="#63b8ff" d="M467.06,-176.86C479.45,-174.5 492.38,-172.03 504.36,-169.74"/>
<polygon fill="#63b8ff" stroke="#63b8ff" points="504.87,-173.21 514.03,-167.9 503.55,-166.34 504.87,-173.21"/>
</a>
</g>
</g>
<!-- Node5&#45;&gt;Node4 -->
<g id="edge5_Node000005_Node000004" class="edge">
<title>Node5&#45;&gt;Node4</title>
<g id="a_edge5_Node000005_Node000004"><a xlink:title=" ">
<path fill="none" stroke="#63b8ff" d="M451.91,-106.33C460.62,-108.84 469.58,-111.82 477.75,-115.25 496.31,-123.05 515.84,-134.63 530.51,-144.09"/>
<polygon fill="#63b8ff" stroke="#63b8ff" points="528.28,-146.81 538.55,-149.39 532.13,-140.97 528.28,-146.81"/>
</a>
</g>
</g>
<!-- Node6 -->
<g id="Node000006" class="node">
<title>Node6</title>
<g id="a_Node000006"><a xlink:href="namespacesdl.html#af1063550d176be4c42d353aaad43c27a" target="_top" xlink:title=" ">
<polygon fill="white" stroke="#666666" points="596.5,-105.88 513.75,-105.88 513.75,-86.62 596.5,-86.62 596.5,-105.88"/>
<text xml:space="preserve" text-anchor="middle" x="555.12" y="-92.38" font-family="Helvetica,sans-Serif" font-size="10.00">sdl::draw_letter</text>
</a>
</g>
</g>
<!-- Node5&#45;&gt;Node6 -->
<g id="edge6_Node000005_Node000006" class="edge">
<title>Node5&#45;&gt;Node6</title>
<g id="a_edge6_Node000005_Node000006"><a xlink:title=" ">
<path fill="none" stroke="#63b8ff" d="M478.17,-96.25C486.25,-96.25 494.37,-96.25 502.14,-96.25"/>
<polygon fill="#63b8ff" stroke="#63b8ff" points="502.1,-99.75 512.1,-96.25 502.1,-92.75 502.1,-99.75"/>
</a>
</g>
</g>
<!-- Node9&#45;&gt;Node5 -->
<g id="edge10_Node000009_Node000005" class="edge">
<title>Node9&#45;&gt;Node5</title>
<g id="a_edge10_Node000009_Node000005"><a xlink:title=" ">
<path fill="none" stroke="#63b8ff" d="M277.97,-30.91C285.09,-33.51 292.29,-36.32 299,-39.25 327.1,-51.5 357.82,-68.36 378.99,-80.56"/>
<polygon fill="#63b8ff" stroke="#63b8ff" points="377.13,-83.53 387.54,-85.54 380.66,-77.49 377.13,-83.53"/>
</a>
</g>
</g>
</g>
</svg>
