<?xml version="1.0" encoding="UTF-8" standalone="no"?>
<!DOCTYPE svg PUBLIC "-//W3C//DTD SVG 1.1//EN"
 "http://www.w3.org/Graphics/SVG/1.1/DTD/svg11.dtd">
<!-- Generated by graphviz version 14.1.1 (20251213.1925)
 -->
<!-- Title: ensiie::HeatEquationSolver1D Pages: 1 -->
<svg width="147pt" height="435pt"
 viewBox="0.00 0.00 147.00 435.00" xmlns="http://www.w3.org/2000/svg" xmlns:xlink="http://www.w3.org/1999/xlink">
<g id="graph0" class="graph" transform="scale(1 1) rotate(0) translate(4 431.25)">
<title>ensiie::HeatEquationSolver1D</title>
<!-- Node1 -->
<g id="Node000001" class="node">
<title>Node1</title>
<g id="a_Node000001"><a xlink:title="1D heat equation solver">
<polygon fill="#999999" stroke="none" points="139.25,-278.5 0,-278.5 0,0 139.25,0 139.25,-278.5"/>
<text xml:space="preserve" text-anchor="start" x="4" y="-265" font-family="Helvetica,sans-Serif" font-size="10.00">ensiie::HeatEquationSolver1D</text>
<text xml:space="preserve" text-anchor="start" x="9.38" y="-249.75" font-family="Helvetica,sans-Serif" font-size="10.00">&#45;</text>
<text xml:space="preserve" text-anchor="start" x="21.75" y="-249.75" font-family="Helvetica,sans-Serif" font-size="10.00">L_</text>
<text xml:space="preserve" text-anchor="start" x="9.38" y="-234.5" font-family="Helvetica,sans-Serif" font-size="10.00">&#45;</text>
<text xml:space="preserve" text-anchor="start" x="21.75" y="-234.5" font-family="Helvetica,sans-Serif" font-size="10.00">tmax_</text>
<text xml:space="preserve" text-anchor="start" x="9.38" y="-219.25" font-family="Helvetica,sans-Serif" font-size="10.00">&#45;</text>
<text xml:space="preserve" text-anchor="start" x="21.75" y="-219.25" font-family="Helvetica,sans-Serif" font-size="10.00">dx_</text>
<text xml:space="preserve" text-anchor="start" x="9.38" y="-204" font-family="Helvetica,sans-Serif" font-size="10.00">&#45;</text>
<text xml:space="preserve" text-anchor="start" x="21.75" y="-204" font-family="Helvetica,sans-Serif" font-size="10.00">dt_</text>
<text xml:space="preserve" text-anchor="start" x="9.38" y="-188.75" font-family="Helvetica,sans-Serif" font-size="10.00">&#45;</text>
<text xml:space="preserve" text-anchor="start" x="21.75" y="-188.75" font-family="Helvetica,sans-Serif" font-size="10.00">u0_kelvin_</text>
<text xml:space="preserve" text-anchor="start" x="9.38" y="-173.5" font-family="Helvetica,sans-Serif" font-size="10.00">&#45;</text>
<text xml:space="preserve" text-anchor="start" x="21.75" y="-173.5" font-family="Helvetica,sans-Serif" font-size="10.00">t_</text>
<text xml:space="preserve" text-anchor="start" x="9.38" y="-158.25" font-family="Helvetica,sans-Serif" font-size="10.00">&#45;</text>
<text xml:space="preserve" text-anchor="start" x="21.75" y="-158.25" font-family="Helvetica,sans-Serif" font-size="10.00">n_</text>
<text xml:space="preserve" text-anchor="start" x="9.38" y="-143" font-family="Helvetica,sans-Serif" font-size="10.00">&#45;</text>
<text xml:space="preserve" text-anchor="start" x="21.75" y="-143" font-family="Helvetica,sans-Serif" font-size="10.00">u_</text>
<text xml:space="preserve" text-anchor="start" x="9.38" y="-127.75" font-family="Helvetica,sans-Serif" font-size="10.00">&#45;</text>
<text xml:space="preserve" text-anchor="start" x="21.75" y="-127.75" font-family="Helvetica,sans-Serif" font-size="10.00">F_</text>
<text xml:space="preserve" text-anchor="start" x="7.88" y="-112.5" font-family="Helvetica,sans-Serif" font-size="10.00">+</text>
<text xml:space="preserve" text-anchor="start" x="21.75" y="-112.5" font-family="Helvetica,sans-Serif" font-size="10.00">HeatEquationSolver1D()</text>
<text xml:space="preserve" text-anchor="start" x="7.88" y="-97.25" font-family="Helvetica,sans-Serif" font-size="10.00">+</text>
<text xml:space="preserve" text-anchor="start" x="21.75" y="-97.25" font-family="Helvetica,sans-Serif" font-size="10.00">step()</text>
<text xml:space="preserve" text-anchor="start" x="7.88" y="-82" font-family="Helvetica,sans-Serif" font-size="10.00">+</text>
<text xml:space="preserve" text-anchor="start" x="21.75" y="-82" font-family="Helvetica,sans-Serif" font-size="10.00">get_temperature()</text>
<text xml:space="preserve" text-anchor="start" x="7.88" y="-66.75" font-family="Helvetica,sans-Serif" font-size="10.00">+</text>
<text xml:space="preserve" text-anchor="start" x="21.75" y="-66.75" font-family="Helvetica,sans-Serif" font-size="10.00">get_time()</text>
<text xml:space="preserve" text-anchor="start" x="7.88" y="-51.5" font-family="Helvetica,sans-Serif" font-size="10.00">+</text>
<text xml:space="preserve" text-anchor="start" x="21.75" y="-51.5" font-family="Helvetica,sans-Serif" font-size="10.00">get_n()</text>
<text xml:space="preserve" text-anchor="start" x="7.88" y="-36.25" font-family="Helvetica,sans-Serif" font-size="10.00">+</text>
<text xml:space="preserve" text-anchor="start" x="21.75" y="-36.25" font-family="Helvetica,sans-Serif" font-size="10.00">reset()</text>
<text xml:space="preserve" text-anchor="start" x="9.38" y="-21" font-family="Helvetica,sans-Serif" font-size="10.00">&#45;</text>
<text xml:space="preserve" text-anchor="start" x="21.75" y="-21" font-family="Helvetica,sans-Serif" font-size="10.00">init_source()</text>
<text xml:space="preserve" text-anchor="start" x="9.38" y="-5.75" font-family="Helvetica,sans-Serif" font-size="10.00">&#45;</text>
<text xml:space="preserve" text-anchor="start" x="21.75" y="-5.75" font-family="Helvetica,sans-Serif" font-size="10.00">solve_tridiagonal()</text>
<polygon fill="#666666" stroke="#666666" points="0,-261.25 0,-261.25 139.25,-261.25 139.25,-261.25 0,-261.25"/>
<polygon fill="#666666" stroke="#666666" points="0,-124 0,-124 19.75,-124 19.75,-124 0,-124"/>
<polygon fill="#666666" stroke="#666666" points="19.75,-124 19.75,-124 139.25,-124 139.25,-124 19.75,-124"/>
<polygon fill="none" stroke="#666666" points="0,0 0,-278.5 139.25,-278.5 139.25,0 0,0"/>
</a>
</g>
</g>
<!-- Node2 -->
<g id="Node000002" class="node">
<title>Node2</title>
<g id="a_Node000002"><a xlink:href="structensiie_1_1_material.html" target="_top" xlink:title="Physical properties of materials for heat simulation.">
<polygon fill="white" stroke="none" points="106.62,-427.25 32.62,-427.25 32.62,-331.75 106.62,-331.75 106.62,-427.25"/>
<text xml:space="preserve" text-anchor="start" x="36.62" y="-413.75" font-family="Helvetica,sans-Serif" font-size="10.00">ensiie::Material</text>
<text xml:space="preserve" text-anchor="start" x="42.75" y="-398.5" font-family="Helvetica,sans-Serif" font-size="10.00">+</text>
<text xml:space="preserve" text-anchor="start" x="58.88" y="-398.5" font-family="Helvetica,sans-Serif" font-size="10.00">name</text>
<text xml:space="preserve" text-anchor="start" x="42.75" y="-383.25" font-family="Helvetica,sans-Serif" font-size="10.00">+</text>
<text xml:space="preserve" text-anchor="start" x="58.88" y="-383.25" font-family="Helvetica,sans-Serif" font-size="10.00">lambda</text>
<text xml:space="preserve" text-anchor="start" x="42.75" y="-368" font-family="Helvetica,sans-Serif" font-size="10.00">+</text>
<text xml:space="preserve" text-anchor="start" x="58.88" y="-368" font-family="Helvetica,sans-Serif" font-size="10.00">rho</text>
<text xml:space="preserve" text-anchor="start" x="42.75" y="-352.75" font-family="Helvetica,sans-Serif" font-size="10.00">+</text>
<text xml:space="preserve" text-anchor="start" x="58.88" y="-352.75" font-family="Helvetica,sans-Serif" font-size="10.00">c</text>
<text xml:space="preserve" text-anchor="start" x="42.75" y="-337.5" font-family="Helvetica,sans-Serif" font-size="10.00">+</text>
<text xml:space="preserve" text-anchor="start" x="58.88" y="-337.5" font-family="Helvetica,sans-Serif" font-size="10.00">alpha()</text>
<polygon fill="#666666" stroke="#666666" points="32.62,-410 32.62,-410 106.62,-410 106.62,-410 32.62,-410"/>
<polygon fill="#666666" stroke="#666666" points="32.62,-349 32.62,-349 56.88,-349 56.88,-349 32.62,-349"/>
<polygon fill="#666666" stroke="#666666" points="56.88,-349 56.88,-349 106.62,-349 106.62,-349 56.88,-349"/>
<polygon fill="none" stroke="#666666" points="32.62,-331.75 32.62,-427.25 106.62,-427.25 106.62,-331.75 32.62,-331.75"/>
</a>
</g>
</g>
<!-- Node2&#45;&gt;Node1 -->
<g id="edge1_Node000001_Node000002" class="edge">
<title>Node2&#45;&gt;Node1</title>
<g id="a_edge1_Node000001_Node000002"><a xlink:title=" ">
<path fill="none" stroke="#63b8ff" d="M69.62,-332C69.62,-319.74 69.62,-305.83 69.62,-291.23"/>
<polygon fill="none" stroke="#63b8ff" points="69.63,-291.15 65.63,-285.15 69.63,-279.15 73.63,-285.15 69.63,-291.15"/>
</a>
</g>
<text xml:space="preserve" text-anchor="start" x="72.62" y="-301.25" font-family="Helvetica,sans-Serif" font-size="10.00" fill="grey">&#45;mat_</text>
</g>
</g>
</svg>
