<?xml version="1.0" encoding="UTF-8" standalone="no"?>
<!DOCTYPE svg PUBLIC "-//W3C//DTD SVG 1.1//EN"
 "http://www.w3.org/Graphics/SVG/1.1/DTD/svg11.dtd">
<!-- Generated by graphviz version 14.1.1 (20251213.1925)
 -->
<!-- Title: sdl::SDLHeatmap::draw_colorbar Pages: 1 -->
<svg width="427pt" height="125pt"
 viewBox="0.00 0.00 427.00 125.00" xmlns="http://www.w3.org/2000/svg" xmlns:xlink="http://www.w3.org/1999/xlink">
<g id="graph0" class="graph" transform="scale(1 1) rotate(0) translate(4 120.5)">
<title>sdl::SDLHeatmap::draw_colorbar</title>
<!-- Node1 -->
<g id="Node000001" class="node">
<title>Node1</title>
<g id="a_Node000001"><a xlink:title=" ">
<polygon fill="#999999" stroke="#666666" points="121,-73.5 0,-73.5 0,-43 121,-43 121,-73.5"/>
<text xml:space="preserve" text-anchor="start" x="8" y="-60" font-family="Helvetica,sans-Serif" font-size="10.00">sdl::SDLHeatmap::draw</text>
<text xml:space="preserve" text-anchor="middle" x="60.5" y="-48.75" font-family="Helvetica,sans-Serif" font-size="10.00">_colorbar</text>
</a>
</g>
</g>
<!-- Node2 -->
<g id="Node000002" class="node">
<title>Node2</title>
<g id="a_Node000002"><a xlink:href="classsdl_1_1_s_d_l_heatmap.html#a0b9fb36b9fafa26b4ba4725b8d985cd9" target="_top" xlink:title=" ">
<polygon fill="white" stroke="#666666" points="288.88,-116.5 167.88,-116.5 167.88,-86 288.88,-86 288.88,-116.5"/>
<text xml:space="preserve" text-anchor="start" x="175.88" y="-103" font-family="Helvetica,sans-Serif" font-size="10.00">sdl::SDLHeatmap::draw</text>
<text xml:space="preserve" text-anchor="middle" x="228.38" y="-91.75" font-family="Helvetica,sans-Serif" font-size="10.00">_number</text>
</a>
</g>
</g>
<!-- Node1&#45;&gt;Node2 -->
<g id="edge1_Node000001_Node000002" class="edge">
<title>Node1&#45;&gt;Node2</title>
<g id="a_edge1_Node000001_Node000002"><a xlink:title=" ">
<path fill="none" stroke="#63b8ff" d="M121.38,-73.77C132.78,-76.73 144.8,-79.84 156.5,-82.88"/>
<polygon fill="#63b8ff" stroke="#63b8ff" points="155.55,-86.25 166.11,-85.37 157.31,-79.47 155.55,-86.25"/>
</a>
</g>
</g>
<!-- Node4 -->
<g id="Node000004" class="node">
<title>Node4</title>
<g id="a_Node000004"><a xlink:href="classsdl_1_1_s_d_l_heatmap.html#ac4eb50b210494fc3432db40a0071ceed" target="_top" xlink:title=" ">
<polygon fill="white" stroke="#666666" points="299.75,-67.88 157,-67.88 157,-48.62 299.75,-48.62 299.75,-67.88"/>
<text xml:space="preserve" text-anchor="middle" x="228.38" y="-54.38" font-family="Helvetica,sans-Serif" font-size="10.00">sdl::SDLHeatmap::draw_text</text>
</a>
</g>
</g>
<!-- Node1&#45;&gt;Node4 -->
<g id="edge3_Node000001_Node000004" class="edge">
<title>Node1&#45;&gt;Node4</title>
<g id="a_edge3_Node000001_Node000004"><a xlink:title=" ">
<path fill="none" stroke="#63b8ff" d="M121.38,-58.25C129.14,-58.25 137.19,-58.25 145.23,-58.25"/>
<polygon fill="#63b8ff" stroke="#63b8ff" points="145.05,-61.75 155.05,-58.25 145.05,-54.75 145.05,-61.75"/>
</a>
</g>
</g>
<!-- Node6 -->
<g id="Node000006" class="node">
<title>Node6</title>
<g id="a_Node000006"><a xlink:href="classsdl_1_1_s_d_l_heatmap.html#a9b8e84cb883ff4143a80c670712a3f62" target="_top" xlink:title=" ">
<polygon fill="white" stroke="#666666" points="289.25,-30.5 167.5,-30.5 167.5,0 289.25,0 289.25,-30.5"/>
<text xml:space="preserve" text-anchor="start" x="175.5" y="-17" font-family="Helvetica,sans-Serif" font-size="10.00">sdl::SDLHeatmap::temp</text>
<text xml:space="preserve" text-anchor="middle" x="228.38" y="-5.75" font-family="Helvetica,sans-Serif" font-size="10.00">_to_rgb</text>
</a>
</g>
</g>
<!-- Node1&#45;&gt;Node6 -->
<g id="edge6_Node000001_Node000006" class="edge">
<title>Node1&#45;&gt;Node6</title>
<g id="a_edge6_Node000001_Node000006"><a xlink:title=" ">
<path fill="none" stroke="#63b8ff" d="M121.38,-42.73C132.64,-39.81 144.5,-36.73 156.06,-33.74"/>
<polygon fill="#63b8ff" stroke="#63b8ff" points="156.75,-37.17 165.56,-31.28 155,-30.4 156.75,-37.17"/>
</a>
</g>
</g>
<!-- Node3 -->
<g id="Node000003" class="node">
<title>Node3</title>
<g id="a_Node000003"><a xlink:href="namespacesdl.html#aa3e8187f011be2af6cdd67f41fca97d6" target="_top" xlink:title=" ">
<polygon fill="white" stroke="#666666" points="416.62,-107.88 337.62,-107.88 337.62,-88.62 416.62,-88.62 416.62,-107.88"/>
<text xml:space="preserve" text-anchor="middle" x="377.12" y="-94.38" font-family="Helvetica,sans-Serif" font-size="10.00">sdl::draw_digit</text>
</a>
</g>
</g>
<!-- Node2&#45;&gt;Node3 -->
<g id="edge2_Node000002_Node000003" class="edge">
<title>Node2&#45;&gt;Node3</title>
<g id="a_edge2_Node000002_Node000003"><a xlink:title=" ">
<path fill="none" stroke="#63b8ff" d="M289.06,-100.03C301.45,-99.78 314.38,-99.51 326.36,-99.27"/>
<polygon fill="#63b8ff" stroke="#63b8ff" points="326.08,-102.77 336.01,-99.07 325.94,-95.78 326.08,-102.77"/>
</a>
</g>
</g>
<!-- Node4&#45;&gt;Node3 -->
<g id="edge4_Node000004_Node000003" class="edge">
<title>Node4&#45;&gt;Node3</title>
<g id="a_edge4_Node000004_Node000003"><a xlink:title=" ">
<path fill="none" stroke="#63b8ff" d="M267,-68.37C277.6,-71.23 289.13,-74.36 299.75,-77.25 309.1,-79.8 319.08,-82.53 328.65,-85.16"/>
<polygon fill="#63b8ff" stroke="#63b8ff" points="327.59,-88.5 338.16,-87.77 329.44,-81.75 327.59,-88.5"/>
</a>
</g>
</g>
<!-- Node5 -->
<g id="Node000005" class="node">
<title>Node5</title>
<g id="a_Node000005"><a xlink:href="namespacesdl.html#af1063550d176be4c42d353aaad43c27a" target="_top" xlink:title=" ">
<polygon fill="white" stroke="#666666" points="418.5,-67.88 335.75,-67.88 335.75,-48.62 418.5,-48.62 418.5,-67.88"/>
<text xml:space="preserve" text-anchor="middle" x="377.12" y="-54.38" font-family="Helvetica,sans-Serif" font-size="10.00">sdl::draw_letter</text>
</a>
</g>
</g>
<!-- Node4&#45;&gt;Node5 -->
<g id="edge5_Node000004_Node000005" class="edge">
<title>Node4&#45;&gt;Node5</title>
<g id="a_edge5_Node000004_Node000005"><a xlink:title=" ">
<path fill="none" stroke="#63b8ff" d="M300.17,-58.25C308.25,-58.25 316.37,-58.25 324.14,-58.25"/>
<polygon fill="#63b8ff" stroke="#63b8ff" points="324.1,-61.75 334.1,-58.25 324.1,-54.75 324.1,-61.75"/>
</a>
</g>
</g>
</g>
</svg>
