<?xml version="1.0" encoding="UTF-8" standalone="no"?>
<!DOCTYPE svg PUBLIC "-//W3C//DTD SVG 1.1//EN"
 "http://www.w3.org/Graphics/SVG/1.1/DTD/svg11.dtd">
<!-- Generated by graphviz version 14.1.1 (20251213.1925)
 -->
<!-- Title: sdl::SDLHeatmap::draw_1d_fullscreen Pages: 1 -->
<svg width="605pt" height="208pt"
 viewBox="0.00 0.00 605.00 208.00" xmlns="http://www.w3.org/2000/svg" xmlns:xlink="http://www.w3.org/1999/xlink">
<g id="graph0" class="graph" transform="scale(1 1) rotate(0) translate(4 204.03)">
<title>sdl::SDLHeatmap::draw_1d_fullscreen</title>
<!-- Node1 -->
<g id="Node000001" class="node">
<title>Node1</title>
<g id="a_Node000001"><a xlink:title=" ">
<polygon fill="#999999" stroke="#666666" points="121,-114.98 0,-114.98 0,-84.48 121,-84.48 121,-114.98"/>
<text xml:space="preserve" text-anchor="start" x="8" y="-101.48" font-family="Helvetica,sans-Serif" font-size="10.00">sdl::SDLHeatmap::draw</text>
<text xml:space="preserve" text-anchor="middle" x="60.5" y="-90.23" font-family="Helvetica,sans-Serif" font-size="10.00">_1d_fullscreen</text>
</a>
</g>
</g>
<!-- Node2 -->
<g id="Node000002" class="node">
<title>Node2</title>
<g id="a_Node000002"><a xlink:href="classsdl_1_1_s_d_l_heatmap.html#a9eccaaefe82bc20e222c36d6b93e80af" target="_top" xlink:title=" ">
<polygon fill="white" stroke="#666666" points="288.5,-176.98 167.5,-176.98 167.5,-146.48 288.5,-146.48 288.5,-176.98"/>
<text xml:space="preserve" text-anchor="start" x="175.5" y="-163.48" font-family="Helvetica,sans-Serif" font-size="10.00">sdl::SDLHeatmap::draw</text>
<text xml:space="preserve" text-anchor="middle" x="228" y="-152.23" font-family="Helvetica,sans-Serif" font-size="10.00">_colorbar</text>
</a>
</g>
</g>
<!-- Node1&#45;&gt;Node2 -->
<g id="edge1_Node000001_Node000002" class="edge">
<title>Node1&#45;&gt;Node2</title>
<g id="a_edge1_Node000001_Node000002"><a xlink:title=" ">
<path fill="none" stroke="#63b8ff" d="M103.26,-115.38C124.84,-123.46 151.39,-133.4 174.35,-142.01"/>
<polygon fill="#63b8ff" stroke="#63b8ff" points="172.95,-145.22 183.55,-145.45 175.41,-138.67 172.95,-145.22"/>
</a>
</g>
</g>
<!-- Node3 -->
<g id="Node000003" class="node">
<title>Node3</title>
<g id="a_Node000003"><a xlink:href="classsdl_1_1_s_d_l_heatmap.html#a0b9fb36b9fafa26b4ba4725b8d985cd9" target="_top" xlink:title=" ">
<polygon fill="white" stroke="#666666" points="466.88,-182.98 345.88,-182.98 345.88,-152.48 466.88,-152.48 466.88,-182.98"/>
<text xml:space="preserve" text-anchor="start" x="353.88" y="-169.48" font-family="Helvetica,sans-Serif" font-size="10.00">sdl::SDLHeatmap::draw</text>
<text xml:space="preserve" text-anchor="middle" x="406.38" y="-158.23" font-family="Helvetica,sans-Serif" font-size="10.00">_number</text>
</a>
</g>
</g>
<!-- Node1&#45;&gt;Node3 -->
<g id="edge10_Node000001_Node000003" class="edge">
<title>Node1&#45;&gt;Node3</title>
<g id="a_edge10_Node000001_Node000003"><a xlink:title=" ">
<path fill="none" stroke="#63b8ff" d="M72.64,-115.2C88.59,-135.88 120.13,-171.58 157,-185.73 217.92,-209.12 293.33,-198.67 344.98,-186.16"/>
<polygon fill="#63b8ff" stroke="#63b8ff" points="345.65,-189.6 354.48,-183.75 343.93,-182.81 345.65,-189.6"/>
</a>
</g>
</g>
<!-- Node5 -->
<g id="Node000005" class="node">
<title>Node5</title>
<g id="a_Node000005"><a xlink:href="classsdl_1_1_s_d_l_heatmap.html#a9b8e84cb883ff4143a80c670712a3f62" target="_top" xlink:title=" ">
<polygon fill="white" stroke="#666666" points="467.25,-133.98 345.5,-133.98 345.5,-103.48 467.25,-103.48 467.25,-133.98"/>
<text xml:space="preserve" text-anchor="start" x="353.5" y="-120.48" font-family="Helvetica,sans-Serif" font-size="10.00">sdl::SDLHeatmap::temp</text>
<text xml:space="preserve" text-anchor="middle" x="406.38" y="-109.23" font-family="Helvetica,sans-Serif" font-size="10.00">_to_rgb</text>
</a>
</g>
</g>
<!-- Node1&#45;&gt;Node5 -->
<g id="edge12_Node000001_Node000005" class="edge">
<title>Node1&#45;&gt;Node5</title>
<g id="a_edge12_Node000001_Node000005"><a xlink:title=" ">
<path fill="none" stroke="#63b8ff" d="M121.4,-103.04C180.45,-106.3 270.74,-111.29 333.6,-114.77"/>
<polygon fill="#63b8ff" stroke="#63b8ff" points="333.32,-118.25 343.5,-115.31 333.71,-111.27 333.32,-118.25"/>
</a>
</g>
</g>
<!-- Node6 -->
<g id="Node000006" class="node">
<title>Node6</title>
<g id="a_Node000006"><a xlink:href="classsdl_1_1_s_d_l_heatmap.html#a71d7e2e5b1d745d8249a67b73d0e3841" target="_top" xlink:title=" ">
<polygon fill="white" stroke="#666666" points="299,-90.36 157,-90.36 157,-71.11 299,-71.11 299,-90.36"/>
<text xml:space="preserve" text-anchor="middle" x="228" y="-76.86" font-family="Helvetica,sans-Serif" font-size="10.00">sdl::SDLHeatmap::draw_grid</text>
</a>
</g>
</g>
<!-- Node1&#45;&gt;Node6 -->
<g id="edge5_Node000001_Node000006" class="edge">
<title>Node1&#45;&gt;Node6</title>
<g id="a_edge5_Node000001_Node000006"><a xlink:title=" ">
<path fill="none" stroke="#63b8ff" d="M121.25,-92.87C129.05,-91.98 137.15,-91.05 145.24,-90.12"/>
<polygon fill="#63b8ff" stroke="#63b8ff" points="145.59,-93.6 155.13,-88.98 144.8,-86.65 145.59,-93.6"/>
</a>
</g>
</g>
<!-- Node7 -->
<g id="Node000007" class="node">
<title>Node7</title>
<g id="a_Node000007"><a xlink:href="classsdl_1_1_s_d_l_heatmap.html#afb950bdd4b18f9356775188a8af3b56a" target="_top" xlink:title=" ">
<polygon fill="white" stroke="#666666" points="288.5,-52.98 167.5,-52.98 167.5,-22.48 288.5,-22.48 288.5,-52.98"/>
<text xml:space="preserve" text-anchor="start" x="175.5" y="-39.48" font-family="Helvetica,sans-Serif" font-size="10.00">sdl::SDLHeatmap::draw</text>
<text xml:space="preserve" text-anchor="middle" x="228" y="-28.23" font-family="Helvetica,sans-Serif" font-size="10.00">_info_panel</text>
</a>
</g>
</g>
<!-- Node1&#45;&gt;Node7 -->
<g id="edge6_Node000001_Node000007" class="edge">
<title>Node1&#45;&gt;Node7</title>
<g id="a_edge6_Node000001_Node000007"><a xlink:title=" ">
<path fill="none" stroke="#63b8ff" d="M99.44,-84.14C116.9,-77.1 137.92,-68.79 157,-61.73 161.09,-60.22 165.32,-58.69 169.58,-57.17"/>
<polygon fill="#63b8ff" stroke="#63b8ff" points="170.5,-60.55 178.77,-53.93 168.18,-53.95 170.5,-60.55"/>
</a>
</g>
</g>
<!-- Node8 -->
<g id="Node000008" class="node">
<title>Node8</title>
<g id="a_Node000008"><a xlink:href="classsdl_1_1_s_d_l_heatmap.html#ac4eb50b210494fc3432db40a0071ceed" target="_top" xlink:title=" ">
<polygon fill="white" stroke="#666666" points="477.75,-47.36 335,-47.36 335,-28.11 477.75,-28.11 477.75,-47.36"/>
<text xml:space="preserve" text-anchor="middle" x="406.38" y="-33.86" font-family="Helvetica,sans-Serif" font-size="10.00">sdl::SDLHeatmap::draw_text</text>
</a>
</g>
</g>
<!-- Node1&#45;&gt;Node8 -->
<g id="edge11_Node000001_Node000008" class="edge">
<title>Node1&#45;&gt;Node8</title>
<g id="a_edge11_Node000001_Node000008"><a xlink:title=" ">
<path fill="none" stroke="#63b8ff" d="M72.64,-84.26C88.59,-63.58 120.13,-27.88 157,-13.73 227.91,13.49 318.21,-7.83 368.06,-23.98"/>
<polygon fill="#63b8ff" stroke="#63b8ff" points="366.92,-27.29 377.51,-27.15 369.15,-20.65 366.92,-27.29"/>
</a>
</g>
</g>
<!-- Node2&#45;&gt;Node3 -->
<g id="edge2_Node000002_Node000003" class="edge">
<title>Node2&#45;&gt;Node3</title>
<g id="a_edge2_Node000002_Node000003"><a xlink:title=" ">
<path fill="none" stroke="#63b8ff" d="M288.71,-163.76C303.29,-164.26 319.02,-164.79 334.08,-165.31"/>
<polygon fill="#63b8ff" stroke="#63b8ff" points="333.8,-168.8 343.91,-165.64 334.04,-161.8 333.8,-168.8"/>
</a>
</g>
</g>
<!-- Node2&#45;&gt;Node5 -->
<g id="edge4_Node000002_Node000005" class="edge">
<title>Node2&#45;&gt;Node5</title>
<g id="a_edge4_Node000002_Node000005"><a xlink:title=" ">
<path fill="none" stroke="#63b8ff" d="M288.71,-147.17C303.35,-143.6 319.16,-139.75 334.27,-136.07"/>
<polygon fill="#63b8ff" stroke="#63b8ff" points="334.77,-139.55 343.65,-133.78 333.11,-132.75 334.77,-139.55"/>
</a>
</g>
</g>
<!-- Node4 -->
<g id="Node000004" class="node">
<title>Node4</title>
<g id="a_Node000004"><a xlink:href="namespacesdl.html#aa3e8187f011be2af6cdd67f41fca97d6" target="_top" xlink:title=" ">
<polygon fill="white" stroke="#666666" points="594.62,-130.36 515.62,-130.36 515.62,-111.11 594.62,-111.11 594.62,-130.36"/>
<text xml:space="preserve" text-anchor="middle" x="555.12" y="-116.86" font-family="Helvetica,sans-Serif" font-size="10.00">sdl::draw_digit</text>
</a>
</g>
</g>
<!-- Node3&#45;&gt;Node4 -->
<g id="edge3_Node000003_Node000004" class="edge">
<title>Node3&#45;&gt;Node4</title>
<g id="a_edge3_Node000003_Node000004"><a xlink:title=" ">
<path fill="none" stroke="#63b8ff" d="M456.24,-152.08C474.16,-146.34 494.28,-139.9 511.6,-134.35"/>
<polygon fill="#63b8ff" stroke="#63b8ff" points="512.63,-137.7 521.09,-131.31 510.5,-131.03 512.63,-137.7"/>
</a>
</g>
</g>
<!-- Node7&#45;&gt;Node8 -->
<g id="edge7_Node000007_Node000008" class="edge">
<title>Node7&#45;&gt;Node8</title>
<g id="a_edge7_Node000007_Node000008"><a xlink:title=" ">
<path fill="none" stroke="#63b8ff" d="M288.71,-37.73C299.92,-37.73 311.82,-37.73 323.56,-37.73"/>
<polygon fill="#63b8ff" stroke="#63b8ff" points="323.23,-41.23 333.23,-37.73 323.23,-34.23 323.23,-41.23"/>
</a>
</g>
</g>
<!-- Node8&#45;&gt;Node4 -->
<g id="edge8_Node000008_Node000004" class="edge">
<title>Node8&#45;&gt;Node4</title>
<g id="a_edge8_Node000008_Node000004"><a xlink:title=" ">
<path fill="none" stroke="#63b8ff" d="M425.08,-47.74C450.31,-62.01 496.85,-88.33 526.6,-105.16"/>
<polygon fill="#63b8ff" stroke="#63b8ff" points="524.62,-108.06 535.04,-109.94 528.06,-101.97 524.62,-108.06"/>
</a>
</g>
</g>
<!-- Node9 -->
<g id="Node000009" class="node">
<title>Node9</title>
<g id="a_Node000009"><a xlink:href="namespacesdl.html#af1063550d176be4c42d353aaad43c27a" target="_top" xlink:title=" ">
<polygon fill="white" stroke="#666666" points="596.5,-47.36 513.75,-47.36 513.75,-28.11 596.5,-28.11 596.5,-47.36"/>
<text xml:space="preserve" text-anchor="middle" x="555.12" y="-33.86" font-family="Helvetica,sans-Serif" font-size="10.00">sdl::draw_letter</text>
</a>
</g>
</g>
<!-- Node8&#45;&gt;Node9 -->
<g id="edge9_Node000008_Node000009" class="edge">
<title>Node8&#45;&gt;Node9</title>
<g id="a_edge9_Node000008_Node000009"><a xlink:title=" ">
<path fill="none" stroke="#63b8ff" d="M478.17,-37.73C486.25,-37.73 494.37,-37.73 502.14,-37.73"/>
<polygon fill="#63b8ff" stroke="#63b8ff" points="502.1,-41.23 512.1,-37.73 502.1,-34.23 502.1,-41.23"/>
</a>
</g>
</g>
</g>
</svg>
