<?xml version="1.0" encoding="UTF-8" standalone="no"?>
<!DOCTYPE svg PUBLIC "-//W3C//DTD SVG 1.1//EN"
 "http://www.w3.org/Graphics/SVG/1.1/DTD/svg11.dtd">
<!-- Generated by graphviz version 14.1.1 (20251213.1925)
 -->
<!-- Title: ensiie::HeatEquationSolver2D::idx Pages: 1 -->
<svg width="499pt" height="186pt"
 viewBox="0.00 0.00 499.00 186.00" xmlns="http://www.w3.org/2000/svg" xmlns:xlink="http://www.w3.org/1999/xlink">
<g id="graph0" class="graph" transform="scale(1 1) rotate(0) translate(4 181.5)">
<title>ensiie::HeatEquationSolver2D::idx</title>
<!-- Node1 -->
<g id="Node000001" class="node">
<title>Node1</title>
<g id="a_Node000001"><a xlink:title=" ">
<polygon fill="#999999" stroke="#666666" points="491.25,-103.5 351.5,-103.5 351.5,-73 491.25,-73 491.25,-103.5"/>
<text xml:space="preserve" text-anchor="start" x="359.5" y="-90" font-family="Helvetica,sans-Serif" font-size="10.00">ensiie::HeatEquationSolver2</text>
<text xml:space="preserve" text-anchor="middle" x="421.38" y="-78.75" font-family="Helvetica,sans-Serif" font-size="10.00">D::idx</text>
</a>
</g>
</g>
<!-- Node2 -->
<g id="Node000002" class="node">
<title>Node2</title>
<g id="a_Node000002"><a xlink:href="classensiie_1_1_heat_equation_solver2_d.html#ae53760074d980075c055f809ecee7c9c" target="_top" xlink:title=" ">
<polygon fill="white" stroke="#666666" points="315.5,-177.5 175.75,-177.5 175.75,-147 315.5,-147 315.5,-177.5"/>
<text xml:space="preserve" text-anchor="start" x="183.75" y="-164" font-family="Helvetica,sans-Serif" font-size="10.00">ensiie::HeatEquationSolver2</text>
<text xml:space="preserve" text-anchor="middle" x="245.62" y="-152.75" font-family="Helvetica,sans-Serif" font-size="10.00">D::get_temperature</text>
</a>
</g>
</g>
<!-- Node1&#45;&gt;Node2 -->
<g id="edge1_Node000001_Node000002" class="edge">
<title>Node1&#45;&gt;Node2</title>
<g id="a_edge1_Node000001_Node000002"><a xlink:title=" ">
<path fill="none" stroke="#63b8ff" d="M378.86,-108.68C359.74,-117.83 336.65,-128.49 315.5,-137.25 307.86,-140.41 299.66,-143.58 291.68,-146.55"/>
<polygon fill="#63b8ff" stroke="#63b8ff" points="380.18,-111.93 387.67,-104.44 377.14,-105.63 380.18,-111.93"/>
</a>
</g>
</g>
<!-- Node3 -->
<g id="Node000003" class="node">
<title>Node3</title>
<g id="a_Node000003"><a xlink:href="classensiie_1_1_heat_equation_solver2_d.html#a0825a8b9747c4b9f11f75e4a7e8dbbc3" target="_top" xlink:title="Convert row&#45;major storage to 2D array [j][i].">
<polygon fill="white" stroke="#666666" points="315.5,-128.5 175.75,-128.5 175.75,-98 315.5,-98 315.5,-128.5"/>
<text xml:space="preserve" text-anchor="start" x="183.75" y="-115" font-family="Helvetica,sans-Serif" font-size="10.00">ensiie::HeatEquationSolver2</text>
<text xml:space="preserve" text-anchor="middle" x="245.62" y="-103.75" font-family="Helvetica,sans-Serif" font-size="10.00">D::get_temperature_2d</text>
</a>
</g>
</g>
<!-- Node1&#45;&gt;Node3 -->
<g id="edge2_Node000001_Node000003" class="edge">
<title>Node1&#45;&gt;Node3</title>
<g id="a_edge2_Node000001_Node000003"><a xlink:title=" ">
<path fill="none" stroke="#63b8ff" d="M339.91,-99.83C331.87,-100.98 323.75,-102.15 315.84,-103.29"/>
<polygon fill="#63b8ff" stroke="#63b8ff" points="340.31,-103.31 349.71,-98.42 339.31,-96.38 340.31,-103.31"/>
</a>
</g>
</g>
<!-- Node4 -->
<g id="Node000004" class="node">
<title>Node4</title>
<g id="a_Node000004"><a xlink:href="classensiie_1_1_heat_equation_solver2_d.html#a7bb7fd4d1f7df9652c476ee141e04fd1" target="_top" xlink:title="Setup 4 symmetric heat sources at corners F = tmax·f² on [L/6, 2L/6]² and [4L/6, 5L/6]² regions.">
<polygon fill="white" stroke="#666666" points="315.5,-79.5 175.75,-79.5 175.75,-49 315.5,-49 315.5,-79.5"/>
<text xml:space="preserve" text-anchor="start" x="183.75" y="-66" font-family="Helvetica,sans-Serif" font-size="10.00">ensiie::HeatEquationSolver2</text>
<text xml:space="preserve" text-anchor="middle" x="245.62" y="-54.75" font-family="Helvetica,sans-Serif" font-size="10.00">D::init_source</text>
</a>
</g>
</g>
<!-- Node1&#45;&gt;Node4 -->
<g id="edge3_Node000001_Node000004" class="edge">
<title>Node1&#45;&gt;Node4</title>
<g id="a_edge3_Node000001_Node000004"><a xlink:title=" ">
<path fill="none" stroke="#63b8ff" d="M339.91,-77.14C331.87,-76.02 323.75,-74.9 315.84,-73.81"/>
<polygon fill="#63b8ff" stroke="#63b8ff" points="339.32,-80.59 349.71,-78.49 340.28,-73.65 339.32,-80.59"/>
</a>
</g>
</g>
<!-- Node6 -->
<g id="Node000006" class="node">
<title>Node6</title>
<g id="a_Node000006"><a xlink:href="classensiie_1_1_heat_equation_solver2_d.html#ab2ad6b063f5e627b0c80beff7fb2af7d" target="_top" xlink:title="Advance one step using Gauss&#45;Seidel iteration.">
<polygon fill="white" stroke="#666666" points="315.5,-30.5 175.75,-30.5 175.75,0 315.5,0 315.5,-30.5"/>
<text xml:space="preserve" text-anchor="start" x="183.75" y="-17" font-family="Helvetica,sans-Serif" font-size="10.00">ensiie::HeatEquationSolver2</text>
<text xml:space="preserve" text-anchor="middle" x="245.62" y="-5.75" font-family="Helvetica,sans-Serif" font-size="10.00">D::step</text>
</a>
</g>
</g>
<!-- Node1&#45;&gt;Node6 -->
<g id="edge5_Node000001_Node000006" class="edge">
<title>Node1&#45;&gt;Node6</title>
<g id="a_edge5_Node000001_Node000006"><a xlink:title=" ">
<path fill="none" stroke="#63b8ff" d="M377.7,-67.77C358.8,-58.94 336.2,-48.73 315.5,-40.25 307.73,-37.07 299.39,-33.87 291.29,-30.86"/>
<polygon fill="#63b8ff" stroke="#63b8ff" points="376.17,-70.92 386.71,-72 379.15,-64.58 376.17,-70.92"/>
</a>
</g>
</g>
<!-- Node5 -->
<g id="Node000005" class="node">
<title>Node5</title>
<g id="a_Node000005"><a xlink:href="classensiie_1_1_heat_equation_solver2_d.html#a35849ebb0dc4b3fcb1b672a6aa8daecd" target="_top" xlink:title="Init 2D solver on square domain [0,L]²">
<polygon fill="white" stroke="#666666" points="139.75,-79.5 0,-79.5 0,-49 139.75,-49 139.75,-79.5"/>
<text xml:space="preserve" text-anchor="start" x="8" y="-66" font-family="Helvetica,sans-Serif" font-size="10.00">ensiie::HeatEquationSolver2</text>
<text xml:space="preserve" text-anchor="middle" x="69.88" y="-54.75" font-family="Helvetica,sans-Serif" font-size="10.00">D::HeatEquationSolver2D</text>
</a>
</g>
</g>
<!-- Node4&#45;&gt;Node5 -->
<g id="edge4_Node000004_Node000005" class="edge">
<title>Node4&#45;&gt;Node5</title>
<g id="a_edge4_Node000004_Node000005"><a xlink:title=" ">
<path fill="none" stroke="#63b8ff" d="M164.16,-64.25C156.12,-64.25 148,-64.25 140.09,-64.25"/>
<polygon fill="#63b8ff" stroke="#63b8ff" points="163.94,-67.75 173.94,-64.25 163.94,-60.75 163.94,-67.75"/>
</a>
</g>
</g>
</g>
</svg>
