<?xml version="1.0" encoding="UTF-8" standalone="no"?>
<!DOCTYPE svg PUBLIC "-//W3C//DTD SVG 1.1//EN"
 "http://www.w3.org/Graphics/SVG/1.1/DTD/svg11.dtd">
<!-- Generated by graphviz version 14.1.1 (20251213.1925)
 -->
<!-- Title: sdl::SDLHeatmap::draw_info_panel Pages: 1 -->
<svg width="427pt" height="64pt"
 viewBox="0.00 0.00 427.00 64.00" xmlns="http://www.w3.org/2000/svg" xmlns:xlink="http://www.w3.org/1999/xlink">
<g id="graph0" class="graph" transform="scale(1 1) rotate(0) translate(4 60.25)">
<title>sdl::SDLHeatmap::draw_info_panel</title>
<!-- Node1 -->
<g id="Node000001" class="node">
<title>Node1</title>
<g id="a_Node000001"><a xlink:title=" ">
<polygon fill="#999999" stroke="#666666" points="121,-42.88 0,-42.88 0,-12.37 121,-12.37 121,-42.88"/>
<text xml:space="preserve" text-anchor="start" x="8" y="-29.38" font-family="Helvetica,sans-Serif" font-size="10.00">sdl::SDLHeatmap::draw</text>
<text xml:space="preserve" text-anchor="middle" x="60.5" y="-18.12" font-family="Helvetica,sans-Serif" font-size="10.00">_info_panel</text>
</a>
</g>
</g>
<!-- Node2 -->
<g id="Node000002" class="node">
<title>Node2</title>
<g id="a_Node000002"><a xlink:href="classsdl_1_1_s_d_l_heatmap.html#ac4eb50b210494fc3432db40a0071ceed" target="_top" xlink:title=" ">
<polygon fill="white" stroke="#666666" points="299.75,-37.25 157,-37.25 157,-18 299.75,-18 299.75,-37.25"/>
<text xml:space="preserve" text-anchor="middle" x="228.38" y="-23.75" font-family="Helvetica,sans-Serif" font-size="10.00">sdl::SDLHeatmap::draw_text</text>
</a>
</g>
</g>
<!-- Node1&#45;&gt;Node2 -->
<g id="edge1_Node000001_Node000002" class="edge">
<title>Node1&#45;&gt;Node2</title>
<g id="a_edge1_Node000001_Node000002"><a xlink:title=" ">
<path fill="none" stroke="#63b8ff" d="M121.38,-27.62C129.14,-27.62 137.19,-27.62 145.23,-27.62"/>
<polygon fill="#63b8ff" stroke="#63b8ff" points="145.05,-31.13 155.05,-27.63 145.05,-24.13 145.05,-31.13"/>
</a>
</g>
</g>
<!-- Node3 -->
<g id="Node000003" class="node">
<title>Node3</title>
<g id="a_Node000003"><a xlink:href="namespacesdl.html#aa3e8187f011be2af6cdd67f41fca97d6" target="_top" xlink:title=" ">
<polygon fill="white" stroke="#666666" points="416.62,-56.25 337.62,-56.25 337.62,-37 416.62,-37 416.62,-56.25"/>
<text xml:space="preserve" text-anchor="middle" x="377.12" y="-42.75" font-family="Helvetica,sans-Serif" font-size="10.00">sdl::draw_digit</text>
</a>
</g>
</g>
<!-- Node2&#45;&gt;Node3 -->
<g id="edge2_Node000002_Node000003" class="edge">
<title>Node2&#45;&gt;Node3</title>
<g id="a_edge2_Node000002_Node000003"><a xlink:title=" ">
<path fill="none" stroke="#63b8ff" d="M300.17,-36.79C308.84,-37.91 317.56,-39.04 325.83,-40.11"/>
<polygon fill="#63b8ff" stroke="#63b8ff" points="325.33,-43.58 335.7,-41.39 326.23,-36.64 325.33,-43.58"/>
</a>
</g>
</g>
<!-- Node4 -->
<g id="Node000004" class="node">
<title>Node4</title>
<g id="a_Node000004"><a xlink:href="namespacesdl.html#af1063550d176be4c42d353aaad43c27a" target="_top" xlink:title=" ">
<polygon fill="white" stroke="#666666" points="418.5,-19.25 335.75,-19.25 335.75,0 418.5,0 418.5,-19.25"/>
<text xml:space="preserve" text-anchor="middle" x="377.12" y="-5.75" font-family="Helvetica,sans-Serif" font-size="10.00">sdl::draw_letter</text>
</a>
</g>
</g>
<!-- Node2&#45;&gt;Node4 -->
<g id="edge3_Node000002_Node000004" class="edge">
<title>Node2&#45;&gt;Node4</title>
<g id="a_edge3_Node000002_Node000004"><a xlink:title=" ">
<path fill="none" stroke="#63b8ff" d="M300.17,-18.94C308.35,-17.94 316.56,-16.93 324.42,-15.97"/>
<polygon fill="#63b8ff" stroke="#63b8ff" points="324.61,-19.47 334.11,-14.78 323.76,-12.52 324.61,-19.47"/>
</a>
</g>
</g>
</g>
</svg>
