<?xml version="1.0" encoding="UTF-8" standalone="no"?>
<!DOCTYPE svg PUBLIC "-//W3C//DTD SVG 1.1//EN"
 "http://www.w3.org/Graphics/SVG/1.1/DTD/svg11.dtd">
<!-- Generated by graphviz version 14.1.1 (20251213.1925)
 -->
<!-- Title: heat_equation_solver.hpp Pages: 1 -->
<svg width="143pt" height="138pt"
 viewBox="0.00 0.00 143.00 138.00" xmlns="http://www.w3.org/2000/svg" xmlns:xlink="http://www.w3.org/1999/xlink">
<g id="graph0" class="graph" transform="scale(1 1) rotate(0) translate(4 133.75)">
<title>heat_equation_solver.hpp</title>
<!-- Node1 -->
<g id="Node000001" class="node">
<title>Node1</title>
<g id="a_Node000001"><a xlink:title="1D and 2D Heat Equation Solvers &#45; Implicit Finite Differences">
<polygon fill="#999999" stroke="#666666" points="134.75,-129.75 8.5,-129.75 8.5,-110.5 134.75,-110.5 134.75,-129.75"/>
<text xml:space="preserve" text-anchor="middle" x="71.62" y="-116.25" font-family="Helvetica,sans-Serif" font-size="10.00">heat_equation_solver.hpp</text>
</a>
</g>
</g>
<!-- Node2 -->
<g id="Node000002" class="node">
<title>Node2</title>
<g id="a_Node000002"><a xlink:href="material_8hpp.html" target="_top" xlink:title=" ">
<polygon fill="white" stroke="#666666" points="69.25,-74.5 0,-74.5 0,-55.25 69.25,-55.25 69.25,-74.5"/>
<text xml:space="preserve" text-anchor="middle" x="34.62" y="-61" font-family="Helvetica,sans-Serif" font-size="10.00">material.hpp</text>
</a>
</g>
</g>
<!-- Node1&#45;&gt;Node2 -->
<g id="edge1_Node000001_Node000002" class="edge">
<title>Node1&#45;&gt;Node2</title>
<g id="a_edge1_Node000001_Node000002"><a xlink:title=" ">
<path fill="none" stroke="#63b8ff" d="M65.52,-110.33C60.56,-103.21 53.42,-92.93 47.25,-84.05"/>
<polygon fill="#63b8ff" stroke="#63b8ff" points="50.31,-82.32 41.73,-76.1 44.56,-86.31 50.31,-82.32"/>
</a>
</g>
</g>
<!-- Node4 -->
<g id="Node000004" class="node">
<title>Node4</title>
<g id="a_Node000004"><a xlink:title=" ">
<polygon fill="#e0e0e0" stroke="#999999" points="130.12,-74.5 87.12,-74.5 87.12,-55.25 130.12,-55.25 130.12,-74.5"/>
<text xml:space="preserve" text-anchor="middle" x="108.62" y="-61" font-family="Helvetica,sans-Serif" font-size="10.00">vector</text>
</a>
</g>
</g>
<!-- Node1&#45;&gt;Node4 -->
<g id="edge3_Node000001_Node000004" class="edge">
<title>Node1&#45;&gt;Node4</title>
<g id="a_edge3_Node000001_Node000004"><a xlink:title=" ">
<path fill="none" stroke="#63b8ff" d="M77.73,-110.33C82.69,-103.21 89.83,-92.93 96,-84.05"/>
<polygon fill="#63b8ff" stroke="#63b8ff" points="98.69,-86.31 101.52,-76.1 92.94,-82.32 98.69,-86.31"/>
</a>
</g>
</g>
<!-- Node3 -->
<g id="Node000003" class="node">
<title>Node3</title>
<g id="a_Node000003"><a xlink:title=" ">
<polygon fill="#e0e0e0" stroke="#999999" points="54.62,-19.25 14.62,-19.25 14.62,0 54.62,0 54.62,-19.25"/>
<text xml:space="preserve" text-anchor="middle" x="34.62" y="-5.75" font-family="Helvetica,sans-Serif" font-size="10.00">string</text>
</a>
</g>
</g>
<!-- Node2&#45;&gt;Node3 -->
<g id="edge2_Node000002_Node000003" class="edge">
<title>Node2&#45;&gt;Node3</title>
<g id="a_edge2_Node000002_Node000003"><a xlink:title=" ">
<path fill="none" stroke="#63b8ff" d="M34.62,-55.08C34.62,-48.57 34.62,-39.42 34.62,-31.12"/>
<polygon fill="#63b8ff" stroke="#63b8ff" points="38.13,-31.12 34.63,-21.12 31.13,-31.12 38.13,-31.12"/>
</a>
</g>
</g>
</g>
</svg>
