<?xml version="1.0" encoding="UTF-8" standalone="no"?>
<!DOCTYPE svg PUBLIC "-//W3C//DTD SVG 1.1//EN"
 "http://www.w3.org/Graphics/SVG/1.1/DTD/svg11.dtd">
<!-- Generated by graphviz version 14.1.1 (20251213.1925)
 -->
<!-- Title: heat_equation_solver.cpp Pages: 1 -->
<svg width="278pt" height="193pt"
 viewBox="0.00 0.00 278.00 193.00" xmlns="http://www.w3.org/2000/svg" xmlns:xlink="http://www.w3.org/1999/xlink">
<g id="graph0" class="graph" transform="scale(1 1) rotate(0) translate(4 189)">
<title>heat_equation_solver.cpp</title>
<!-- Node1 -->
<g id="Node000001" class="node">
<title>Node1</title>
<g id="a_Node000001"><a xlink:title="Implementation of 1D/2D heat equation solvers.">
<polygon fill="#999999" stroke="#666666" points="237.75,-185 111.5,-185 111.5,-165.75 237.75,-165.75 237.75,-185"/>
<text xml:space="preserve" text-anchor="middle" x="174.62" y="-171.5" font-family="Helvetica,sans-Serif" font-size="10.00">heat_equation_solver.cpp</text>
</a>
</g>
</g>
<!-- Node2 -->
<g id="Node000002" class="node">
<title>Node2</title>
<g id="a_Node000002"><a xlink:href="heat__equation__solver_8hpp.html" target="_top" xlink:title="1D and 2D Heat Equation Solvers &#45; Implicit Finite Differences">
<polygon fill="white" stroke="#666666" points="134.75,-129.75 8.5,-129.75 8.5,-110.5 134.75,-110.5 134.75,-129.75"/>
<text xml:space="preserve" text-anchor="middle" x="71.62" y="-116.25" font-family="Helvetica,sans-Serif" font-size="10.00">heat_equation_solver.hpp</text>
</a>
</g>
</g>
<!-- Node1&#45;&gt;Node2 -->
<g id="edge1_Node000001_Node000002" class="edge">
<title>Node1&#45;&gt;Node2</title>
<g id="a_edge1_Node000001_Node000002"><a xlink:title=" ">
<path fill="none" stroke="#63b8ff" d="M157.15,-165.34C141.32,-157.16 117.72,-144.96 99.32,-135.44"/>
<polygon fill="#63b8ff" stroke="#63b8ff" points="101.02,-132.38 90.53,-130.9 97.8,-138.6 101.02,-132.38"/>
</a>
</g>
</g>
<!-- Node6 -->
<g id="Node000006" class="node">
<title>Node6</title>
<g id="a_Node000006"><a xlink:title=" ">
<polygon fill="#e0e0e0" stroke="#999999" points="196.12,-129.75 153.12,-129.75 153.12,-110.5 196.12,-110.5 196.12,-129.75"/>
<text xml:space="preserve" text-anchor="middle" x="174.62" y="-116.25" font-family="Helvetica,sans-Serif" font-size="10.00">cmath</text>
</a>
</g>
</g>
<!-- Node1&#45;&gt;Node6 -->
<g id="edge5_Node000001_Node000006" class="edge">
<title>Node1&#45;&gt;Node6</title>
<g id="a_edge5_Node000001_Node000006"><a xlink:title=" ">
<path fill="none" stroke="#63b8ff" d="M174.62,-165.58C174.62,-159.07 174.62,-149.92 174.62,-141.62"/>
<polygon fill="#63b8ff" stroke="#63b8ff" points="178.13,-141.62 174.63,-131.62 171.13,-141.62 178.13,-141.62"/>
</a>
</g>
</g>
<!-- Node7 -->
<g id="Node000007" class="node">
<title>Node7</title>
<g id="a_Node000007"><a xlink:title=" ">
<polygon fill="#e0e0e0" stroke="#999999" points="269.5,-129.75 213.75,-129.75 213.75,-110.5 269.5,-110.5 269.5,-129.75"/>
<text xml:space="preserve" text-anchor="middle" x="241.62" y="-116.25" font-family="Helvetica,sans-Serif" font-size="10.00">algorithm</text>
</a>
</g>
</g>
<!-- Node1&#45;&gt;Node7 -->
<g id="edge6_Node000001_Node000007" class="edge">
<title>Node1&#45;&gt;Node7</title>
<g id="a_edge6_Node000001_Node000007"><a xlink:title=" ">
<path fill="none" stroke="#63b8ff" d="M185.99,-165.34C195.67,-157.65 209.82,-146.4 221.43,-137.18"/>
<polygon fill="#63b8ff" stroke="#63b8ff" points="223.59,-139.93 229.24,-130.97 219.24,-134.45 223.59,-139.93"/>
</a>
</g>
</g>
<!-- Node3 -->
<g id="Node000003" class="node">
<title>Node3</title>
<g id="a_Node000003"><a xlink:href="material_8hpp.html" target="_top" xlink:title=" ">
<polygon fill="white" stroke="#666666" points="69.25,-74.5 0,-74.5 0,-55.25 69.25,-55.25 69.25,-74.5"/>
<text xml:space="preserve" text-anchor="middle" x="34.62" y="-61" font-family="Helvetica,sans-Serif" font-size="10.00">material.hpp</text>
</a>
</g>
</g>
<!-- Node2&#45;&gt;Node3 -->
<g id="edge2_Node000002_Node000003" class="edge">
<title>Node2&#45;&gt;Node3</title>
<g id="a_edge2_Node000002_Node000003"><a xlink:title=" ">
<path fill="none" stroke="#63b8ff" d="M65.52,-110.33C60.56,-103.21 53.42,-92.93 47.25,-84.05"/>
<polygon fill="#63b8ff" stroke="#63b8ff" points="50.31,-82.32 41.73,-76.1 44.56,-86.31 50.31,-82.32"/>
</a>
</g>
</g>
<!-- Node5 -->
<g id="Node000005" class="node">
<title>Node5</title>
<g id="a_Node000005"><a xlink:title=" ">
<polygon fill="#e0e0e0" stroke="#999999" points="130.12,-74.5 87.12,-74.5 87.12,-55.25 130.12,-55.25 130.12,-74.5"/>
<text xml:space="preserve" text-anchor="middle" x="108.62" y="-61" font-family="Helvetica,sans-Serif" font-size="10.00">vector</text>
</a>
</g>
</g>
<!-- Node2&#45;&gt;Node5 -->
<g id="edge4_Node000002_Node000005" class="edge">
<title>Node2&#45;&gt;Node5</title>
<g id="a_edge4_Node000002_Node000005"><a xlink:title=" ">
<path fill="none" stroke="#63b8ff" d="M77.73,-110.33C82.69,-103.21 89.83,-92.93 96,-84.05"/>
<polygon fill="#63b8ff" stroke="#63b8ff" points="98.69,-86.31 101.52,-76.1 92.94,-82.32 98.69,-86.31"/>
</a>
</g>
</g>
<!-- Node4 -->
<g id="Node000004" class="node">
<title>Node4</title>
<g id="a_Node000004"><a xlink:title=" ">
<polygon fill="#e0e0e0" stroke="#999999" points="54.62,-19.25 14.62,-19.25 14.62,0 54.62,0 54.62,-19.25"/>
<text xml:space="preserve" text-anchor="middle" x="34.62" y="-5.75" font-family="Helvetica,sans-Serif" font-size="10.00">string</text>
</a>
</g>
</g>
<!-- Node3&#45;&gt;Node4 -->
<g id="edge3_Node000003_Node000004" class="edge">
<title>Node3&#45;&gt;Node4</title>
<g id="a_edge3_Node000003_Node000004"><a xlink:title=" ">
<path fill="none" stroke="#63b8ff" d="M34.62,-55.08C34.62,-48.57 34.62,-39.42 34.62,-31.12"/>
<polygon fill="#63b8ff" stroke="#63b8ff" points="38.13,-31.12 34.63,-21.12 31.13,-31.12 38.13,-31.12"/>
</a>
</g>
</g>
</g>
</svg>
