<?xml version="1.0" encoding="UTF-8" standalone="no"?>
<!DOCTYPE svg PUBLIC "-//W3C//DTD SVG 1.1//EN"
 "http://www.w3.org/Graphics/SVG/1.1/DTD/svg11.dtd">
<!-- Generated by graphviz version 14.1.1 (20251213.1925)
 -->
<!-- Title: heat_equation_solver.hpp Pages: 1 -->
<svg width="260pt" height="138pt"
 viewBox="0.00 0.00 260.00 138.00" xmlns="http://www.w3.org/2000/svg" xmlns:xlink="http://www.w3.org/1999/xlink">
<g id="graph0" class="graph" transform="scale(1 1) rotate(0) translate(4 133.75)">
<title>heat_equation_solver.hpp</title>
<!-- Node1 -->
<g id="Node000001" class="node">
<title>Node1</title>
<g id="a_Node000001"><a xlink:title="1D and 2D Heat Equation Solvers &#45; Implicit Finite Differences">
<polygon fill="#999999" stroke="#666666" points="183.25,-129.75 57,-129.75 57,-110.5 183.25,-110.5 183.25,-129.75"/>
<text xml:space="preserve" text-anchor="middle" x="120.12" y="-116.25" font-family="Helvetica,sans-Serif" font-size="10.00">heat_equation_solver.hpp</text>
</a>
</g>
</g>
<!-- Node2 -->
<g id="Node000002" class="node">
<title>Node2</title>
<g id="a_Node000002"><a xlink:href="heat__equation__solver_8cpp.html" target="_top" xlink:title="Implementation of 1D/2D heat equation solvers.">
<polygon fill="white" stroke="#666666" points="126.25,-74.5 0,-74.5 0,-55.25 126.25,-55.25 126.25,-74.5"/>
<text xml:space="preserve" text-anchor="middle" x="63.12" y="-61" font-family="Helvetica,sans-Serif" font-size="10.00">heat_equation_solver.cpp</text>
</a>
</g>
</g>
<!-- Node1&#45;&gt;Node2 -->
<g id="edge1_Node000001_Node000002" class="edge">
<title>Node1&#45;&gt;Node2</title>
<g id="a_edge1_Node000001_Node000002"><a xlink:title=" ">
<path fill="none" stroke="#63b8ff" d="M102.18,-102.36C92.39,-93.22 80.68,-82.28 72.65,-74.77"/>
<polygon fill="#63b8ff" stroke="#63b8ff" points="99.65,-104.79 109.35,-109.06 104.43,-99.67 99.65,-104.79"/>
</a>
</g>
</g>
<!-- Node3 -->
<g id="Node000003" class="node">
<title>Node3</title>
<g id="a_Node000003"><a xlink:href="sdl__app_8hpp.html" target="_top" xlink:title="SDL2 application for heat equation visualization.">
<polygon fill="white" stroke="#666666" points="212.38,-74.5 143.88,-74.5 143.88,-55.25 212.38,-55.25 212.38,-74.5"/>
<text xml:space="preserve" text-anchor="middle" x="178.12" y="-61" font-family="Helvetica,sans-Serif" font-size="10.00">sdl_app.hpp</text>
</a>
</g>
</g>
<!-- Node1&#45;&gt;Node3 -->
<g id="edge2_Node000001_Node000003" class="edge">
<title>Node1&#45;&gt;Node3</title>
<g id="a_edge2_Node000001_Node000003"><a xlink:title=" ">
<path fill="none" stroke="#63b8ff" d="M138.39,-102.36C148.34,-93.22 160.26,-82.28 168.43,-74.77"/>
<polygon fill="#63b8ff" stroke="#63b8ff" points="136.08,-99.73 131.08,-109.07 140.81,-104.88 136.08,-99.73"/>
</a>
</g>
</g>
<!-- Node4 -->
<g id="Node000004" class="node">
<title>Node4</title>
<g id="a_Node000004"><a xlink:href="main_8cpp.html" target="_top" xlink:title="Console menu and SDL2 visualization launcher.">
<polygon fill="white" stroke="#666666" points="166,-19.25 110.25,-19.25 110.25,0 166,0 166,-19.25"/>
<text xml:space="preserve" text-anchor="middle" x="138.12" y="-5.75" font-family="Helvetica,sans-Serif" font-size="10.00">main.cpp</text>
</a>
</g>
</g>
<!-- Node3&#45;&gt;Node4 -->
<g id="edge3_Node000003_Node000004" class="edge">
<title>Node3&#45;&gt;Node4</title>
<g id="a_edge3_Node000003_Node000004"><a xlink:title=" ">
<path fill="none" stroke="#63b8ff" d="M164.65,-45.94C158,-37.09 150.27,-26.79 144.87,-19.61"/>
<polygon fill="#63b8ff" stroke="#63b8ff" points="161.81,-47.98 170.61,-53.87 167.4,-43.77 161.81,-47.98"/>
</a>
</g>
</g>
<!-- Node5 -->
<g id="Node000005" class="node">
<title>Node5</title>
<g id="a_Node000005"><a xlink:href="sdl__app_8cpp.html" target="_top" xlink:title="SDL2 application implementation.">
<polygon fill="white" stroke="#666666" points="252.38,-19.25 183.88,-19.25 183.88,0 252.38,0 252.38,-19.25"/>
<text xml:space="preserve" text-anchor="middle" x="218.12" y="-5.75" font-family="Helvetica,sans-Serif" font-size="10.00">sdl_app.cpp</text>
</a>
</g>
</g>
<!-- Node3&#45;&gt;Node5 -->
<g id="edge4_Node000003_Node000005" class="edge">
<title>Node3&#45;&gt;Node5</title>
<g id="a_edge4_Node000003_Node000005"><a xlink:title=" ">
<path fill="none" stroke="#63b8ff" d="M191.6,-45.94C198.25,-37.09 205.98,-26.79 211.38,-19.61"/>
<polygon fill="#63b8ff" stroke="#63b8ff" points="188.85,-43.77 185.64,-53.87 194.44,-47.98 188.85,-43.77"/>
</a>
</g>
</g>
</g>
</svg>
