<?xml version="1.0" encoding="UTF-8" standalone="no"?>
<!DOCTYPE svg PUBLIC "-//W3C//DTD SVG 1.1//EN"
 "http://www.w3.org/Graphics/SVG/1.1/DTD/svg11.dtd">
<!-- Generated by graphviz version 14.1.1 (20251213.1925)
 -->
<!-- Title: main Pages: 1 -->
<svg width="358pt" height="307pt"
 viewBox="0.00 0.00 358.00 307.00" xmlns="http://www.w3.org/2000/svg" xmlns:xlink="http://www.w3.org/1999/xlink">
<g id="graph0" class="graph" transform="scale(1 1) rotate(0) translate(4 303.25)">
<title>main</title>
<!-- Node1 -->
<g id="Node000001" class="node">
<title>Node1</title>
<g id="a_Node000001"><a xlink:title=" ">
<polygon fill="#999999" stroke="#666666" points="37,-188.25 0,-188.25 0,-169 37,-169 37,-188.25"/>
<text xml:space="preserve" text-anchor="middle" x="18.5" y="-174.75" font-family="Helvetica,sans-Serif" font-size="10.00">main</text>
</a>
</g>
</g>
<!-- Node2 -->
<g id="Node000002" class="node">
<title>Node2</title>
<g id="a_Node000002"><a xlink:href="main_8cpp.html#a93e60bbb49815d0928fa79a53d456121" target="_top" xlink:title=" ">
<polygon fill="white" stroke="#666666" points="188.38,-299.25 73.38,-299.25 73.38,-280 188.38,-280 188.38,-299.25"/>
<text xml:space="preserve" text-anchor="middle" x="130.88" y="-285.75" font-family="Helvetica,sans-Serif" font-size="10.00">confirm_and_start_grid</text>
</a>
</g>
</g>
<!-- Node1&#45;&gt;Node2 -->
<g id="edge1_Node000001_Node000002" class="edge">
<title>Node1&#45;&gt;Node2</title>
<g id="a_edge1_Node000001_Node000002"><a xlink:title=" ">
<path fill="none" stroke="#63b8ff" d="M22.54,-188.65C28.81,-207.67 44.99,-249.09 73,-271.62 74.11,-272.52 75.27,-273.37 76.46,-274.18"/>
<polygon fill="#63b8ff" stroke="#63b8ff" points="74.44,-277.06 84.89,-278.86 77.84,-270.94 74.44,-277.06"/>
</a>
</g>
</g>
<!-- Node3 -->
<g id="Node000003" class="node">
<title>Node3</title>
<g id="a_Node000003"><a xlink:href="main_8cpp.html#a9bed13d62e8bdfe42b66dae803ccc984" target="_top" xlink:title=" ">
<polygon fill="white" stroke="#666666" points="172.62,-262.25 89.12,-262.25 89.12,-243 172.62,-243 172.62,-262.25"/>
<text xml:space="preserve" text-anchor="middle" x="130.88" y="-248.75" font-family="Helvetica,sans-Serif" font-size="10.00">get_parameters</text>
</a>
</g>
</g>
<!-- Node1&#45;&gt;Node3 -->
<g id="edge2_Node000001_Node000003" class="edge">
<title>Node1&#45;&gt;Node3</title>
<g id="a_edge2_Node000001_Node000003"><a xlink:title=" ">
<path fill="none" stroke="#63b8ff" d="M26.34,-188.37C35.56,-200.83 53.15,-222.25 73,-234.62 74.88,-235.8 76.84,-236.9 78.86,-237.93"/>
<polygon fill="#63b8ff" stroke="#63b8ff" points="77.34,-241.09 87.9,-241.95 80.19,-234.69 77.34,-241.09"/>
</a>
</g>
</g>
<!-- Node5 -->
<g id="Node000005" class="node">
<title>Node5</title>
<g id="a_Node000005"><a xlink:href="classsdl_1_1_s_d_l_core.html#a9f66b182893da8197a011844052b8764" target="_top" xlink:title=" ">
<polygon fill="white" stroke="#666666" points="177.88,-225.25 83.88,-225.25 83.88,-206 177.88,-206 177.88,-225.25"/>
<text xml:space="preserve" text-anchor="middle" x="130.88" y="-211.75" font-family="Helvetica,sans-Serif" font-size="10.00">sdl::SDLCore::init</text>
</a>
</g>
</g>
<!-- Node1&#45;&gt;Node5 -->
<g id="edge4_Node000001_Node000005" class="edge">
<title>Node1&#45;&gt;Node5</title>
<g id="a_edge4_Node000001_Node000005"><a xlink:title=" ">
<path fill="none" stroke="#63b8ff" d="M37.28,-185.11C47.66,-188.86 61.04,-193.61 73,-197.62 77.42,-199.11 82.04,-200.63 86.66,-202.12"/>
<polygon fill="#63b8ff" stroke="#63b8ff" points="85.3,-205.36 95.89,-205.08 87.43,-198.69 85.3,-205.36"/>
</a>
</g>
</g>
<!-- Node6 -->
<g id="Node000006" class="node">
<title>Node6</title>
<g id="a_Node000006"><a xlink:href="main_8cpp.html#aab0a749241244d13922556533aeb7069" target="_top" xlink:title=" ">
<polygon fill="white" stroke="#666666" points="165.5,-188.25 96.25,-188.25 96.25,-169 165.5,-169 165.5,-188.25"/>
<text xml:space="preserve" text-anchor="middle" x="130.88" y="-174.75" font-family="Helvetica,sans-Serif" font-size="10.00">print_header</text>
</a>
</g>
</g>
<!-- Node1&#45;&gt;Node6 -->
<g id="edge5_Node000001_Node000006" class="edge">
<title>Node1&#45;&gt;Node6</title>
<g id="a_edge5_Node000001_Node000006"><a xlink:title=" ">
<path fill="none" stroke="#63b8ff" d="M37.23,-178.62C50.11,-178.62 68.13,-178.62 84.86,-178.62"/>
<polygon fill="#63b8ff" stroke="#63b8ff" points="84.64,-182.13 94.64,-178.63 84.64,-175.13 84.64,-182.13"/>
</a>
</g>
</g>
<!-- Node7 -->
<g id="Node000007" class="node">
<title>Node7</title>
<g id="a_Node000007"><a xlink:href="classsdl_1_1_s_d_l_core.html#a67298b2ae5f38fa3feec6587f6fa6b54" target="_top" xlink:title=" ">
<polygon fill="white" stroke="#666666" points="179.38,-151.25 82.38,-151.25 82.38,-132 179.38,-132 179.38,-151.25"/>
<text xml:space="preserve" text-anchor="middle" x="130.88" y="-137.75" font-family="Helvetica,sans-Serif" font-size="10.00">sdl::SDLCore::quit</text>
</a>
</g>
</g>
<!-- Node1&#45;&gt;Node7 -->
<g id="edge6_Node000001_Node000007" class="edge">
<title>Node1&#45;&gt;Node7</title>
<g id="a_edge6_Node000001_Node000007"><a xlink:title=" ">
<path fill="none" stroke="#63b8ff" d="M37.28,-172.14C47.66,-168.39 61.04,-163.64 73,-159.62 77.42,-158.14 82.04,-156.62 86.66,-155.13"/>
<polygon fill="#63b8ff" stroke="#63b8ff" points="87.43,-158.56 95.89,-152.17 85.3,-151.89 87.43,-158.56"/>
</a>
</g>
</g>
<!-- Node8 -->
<g id="Node000008" class="node">
<title>Node8</title>
<g id="a_Node000008"><a xlink:href="classsdl_1_1_s_d_l_app.html#ab34f103f863f0cdd5b55e47503964f13" target="_top" xlink:title=" ">
<polygon fill="white" stroke="#666666" points="176.38,-77.25 85.38,-77.25 85.38,-58 176.38,-58 176.38,-77.25"/>
<text xml:space="preserve" text-anchor="middle" x="130.88" y="-63.75" font-family="Helvetica,sans-Serif" font-size="10.00">sdl::SDLApp::run</text>
</a>
</g>
</g>
<!-- Node1&#45;&gt;Node8 -->
<g id="edge7_Node000001_Node000008" class="edge">
<title>Node1&#45;&gt;Node8</title>
<g id="a_edge7_Node000001_Node000008"><a xlink:title=" ">
<path fill="none" stroke="#63b8ff" d="M22.54,-168.6C28.81,-149.58 44.99,-108.16 73,-85.62 74.11,-84.73 75.27,-83.88 76.46,-83.07"/>
<polygon fill="#63b8ff" stroke="#63b8ff" points="77.84,-86.31 84.89,-78.39 74.44,-80.19 77.84,-86.31"/>
</a>
</g>
</g>
<!-- Node13 -->
<g id="Node000013" class="node">
<title>Node13</title>
<g id="a_Node000013"><a xlink:href="main_8cpp.html#a40d09fc78511d50289896fb055254e2e" target="_top" xlink:title=" ">
<polygon fill="white" stroke="#666666" points="188.75,-114.25 73,-114.25 73,-95 188.75,-95 188.75,-114.25"/>
<text xml:space="preserve" text-anchor="middle" x="130.88" y="-100.75" font-family="Helvetica,sans-Serif" font-size="10.00">select_simulation_type</text>
</a>
</g>
</g>
<!-- Node1&#45;&gt;Node13 -->
<g id="edge12_Node000001_Node000013" class="edge">
<title>Node1&#45;&gt;Node13</title>
<g id="a_edge12_Node000001_Node000013"><a xlink:title=" ">
<path fill="none" stroke="#63b8ff" d="M26.34,-168.88C35.56,-156.42 53.15,-135 73,-122.62 74.88,-121.45 76.84,-120.35 78.86,-119.32"/>
<polygon fill="#63b8ff" stroke="#63b8ff" points="80.19,-122.56 87.9,-115.3 77.34,-116.16 80.19,-122.56"/>
</a>
</g>
</g>
<!-- Node4 -->
<g id="Node000004" class="node">
<title>Node4</title>
<g id="a_Node000004"><a xlink:href="main_8cpp.html#a5fed5e5d05ab07ac96ba3d483807da48" target="_top" xlink:title=" ">
<polygon fill="white" stroke="#666666" points="319.12,-220.25 255.88,-220.25 255.88,-201 319.12,-201 319.12,-220.25"/>
<text xml:space="preserve" text-anchor="middle" x="287.5" y="-206.75" font-family="Helvetica,sans-Serif" font-size="10.00">clear_input</text>
</a>
</g>
</g>
<!-- Node3&#45;&gt;Node4 -->
<g id="edge3_Node000003_Node000004" class="edge">
<title>Node3&#45;&gt;Node4</title>
<g id="a_edge3_Node000003_Node000004"><a xlink:title=" ">
<path fill="none" stroke="#63b8ff" d="M168.91,-242.56C191.64,-236.39 220.81,-228.47 244.41,-222.06"/>
<polygon fill="#63b8ff" stroke="#63b8ff" points="245.3,-225.44 254.03,-219.44 243.47,-218.69 245.3,-225.44"/>
</a>
</g>
</g>
<!-- Node9 -->
<g id="Node000009" class="node">
<title>Node9</title>
<g id="a_Node000009"><a xlink:href="classsdl_1_1_s_d_l_core.html#a72cf07dd648be5695d5500c1459cffba" target="_top" xlink:title=" ">
<polygon fill="white" stroke="#666666" points="339.75,-142.25 235.25,-142.25 235.25,-123 339.75,-123 339.75,-142.25"/>
<text xml:space="preserve" text-anchor="middle" x="287.5" y="-128.75" font-family="Helvetica,sans-Serif" font-size="10.00">sdl::SDLCore::delay</text>
</a>
</g>
</g>
<!-- Node8&#45;&gt;Node9 -->
<g id="edge8_Node000008_Node000009" class="edge">
<title>Node8&#45;&gt;Node9</title>
<g id="a_edge8_Node000008_Node000009"><a xlink:title=" ">
<path fill="none" stroke="#63b8ff" d="M170.26,-77.72C176.6,-79.96 182.97,-82.59 188.75,-85.62 206.69,-95.05 206.77,-104.27 224.75,-113.62 228.19,-115.41 231.82,-117.07 235.54,-118.58"/>
<polygon fill="#63b8ff" stroke="#63b8ff" points="234.11,-121.79 244.71,-121.99 236.55,-115.23 234.11,-121.79"/>
</a>
</g>
</g>
<!-- Node10 -->
<g id="Node000010" class="node">
<title>Node10</title>
<g id="a_Node000010"><a xlink:href="classsdl_1_1_s_d_l_app.html#ab968b0b1b52b88ccba2f2ce6e5c0440a" target="_top" xlink:title=" ">
<polygon fill="white" stroke="#666666" points="343.5,-104.88 231.5,-104.88 231.5,-74.38 343.5,-74.38 343.5,-104.88"/>
<text xml:space="preserve" text-anchor="start" x="239.5" y="-91.38" font-family="Helvetica,sans-Serif" font-size="10.00">sdl::SDLApp::process</text>
<text xml:space="preserve" text-anchor="middle" x="287.5" y="-80.12" font-family="Helvetica,sans-Serif" font-size="10.00">_events</text>
</a>
</g>
</g>
<!-- Node8&#45;&gt;Node10 -->
<g id="edge9_Node000008_Node000010" class="edge">
<title>Node8&#45;&gt;Node10</title>
<g id="a_edge9_Node000008_Node000010"><a xlink:title=" ">
<path fill="none" stroke="#63b8ff" d="M176.6,-73.99C190.17,-75.92 205.39,-78.08 220.07,-80.17"/>
<polygon fill="#63b8ff" stroke="#63b8ff" points="219.27,-83.59 229.66,-81.54 220.25,-76.66 219.27,-83.59"/>
</a>
</g>
</g>
<!-- Node11 -->
<g id="Node000011" class="node">
<title>Node11</title>
<g id="a_Node000011"><a xlink:href="classsdl_1_1_s_d_l_app.html#adbaa5896ae80063ae1fbb05a4ce81cac" target="_top" xlink:title=" ">
<polygon fill="white" stroke="#666666" points="339.75,-56.25 235.25,-56.25 235.25,-37 339.75,-37 339.75,-56.25"/>
<text xml:space="preserve" text-anchor="middle" x="287.5" y="-42.75" font-family="Helvetica,sans-Serif" font-size="10.00">sdl::SDLApp::render</text>
</a>
</g>
</g>
<!-- Node8&#45;&gt;Node11 -->
<g id="edge10_Node000008_Node000011" class="edge">
<title>Node8&#45;&gt;Node11</title>
<g id="a_edge10_Node000008_Node000011"><a xlink:title=" ">
<path fill="none" stroke="#63b8ff" d="M176.6,-61.55C191.24,-59.56 207.79,-57.31 223.52,-55.18"/>
<polygon fill="#63b8ff" stroke="#63b8ff" points="223.85,-58.67 233.29,-53.85 222.91,-51.73 223.85,-58.67"/>
</a>
</g>
</g>
<!-- Node12 -->
<g id="Node000012" class="node">
<title>Node12</title>
<g id="a_Node000012"><a xlink:href="classsdl_1_1_s_d_l_app.html#a3cdf9dcd297d4d63bffcbc4ee95c9a8b" target="_top" xlink:title=" ">
<polygon fill="white" stroke="#666666" points="350.25,-19.25 224.75,-19.25 224.75,0 350.25,0 350.25,-19.25"/>
<text xml:space="preserve" text-anchor="middle" x="287.5" y="-5.75" font-family="Helvetica,sans-Serif" font-size="10.00">sdl::SDLApp::render_grid</text>
</a>
</g>
</g>
<!-- Node8&#45;&gt;Node12 -->
<g id="edge11_Node000008_Node000012" class="edge">
<title>Node8&#45;&gt;Node12</title>
<g id="a_edge11_Node000008_Node000012"><a xlink:title=" ">
<path fill="none" stroke="#63b8ff" d="M152.97,-57.65C171.61,-49.06 199.64,-36.65 224.75,-27.62 229.12,-26.05 233.71,-24.52 238.32,-23.04"/>
<polygon fill="#63b8ff" stroke="#63b8ff" points="239.06,-26.48 247.59,-20.19 237,-19.79 239.06,-26.48"/>
</a>
</g>
</g>
<!-- Node13&#45;&gt;Node4 -->
<g id="edge13_Node000013_Node000004" class="edge">
<title>Node13&#45;&gt;Node4</title>
<g id="a_edge13_Node000013_Node000004"><a xlink:title=" ">
<path fill="none" stroke="#63b8ff" d="M171.36,-114.69C177.37,-116.91 183.36,-119.54 188.75,-122.62 197.61,-127.7 241.83,-168.66 267.66,-192.87"/>
<polygon fill="#63b8ff" stroke="#63b8ff" points="265.15,-195.32 274.83,-199.61 269.94,-190.21 265.15,-195.32"/>
</a>
</g>
</g>
</g>
</svg>
