<?xml version="1.0" encoding="UTF-8" standalone="no"?>
<!DOCTYPE svg PUBLIC "-//W3C//DTD SVG 1.1//EN"
 "http://www.w3.org/Graphics/SVG/1.1/DTD/svg11.dtd">
<!-- Generated by graphviz version 14.1.1 (20251213.1925)
 -->
<!-- Title: clear_input Pages: 1 -->
<svg width="296pt" height="101pt"
 viewBox="0.00 0.00 296.00 101.00" xmlns="http://www.w3.org/2000/svg" xmlns:xlink="http://www.w3.org/1999/xlink">
<g id="graph0" class="graph" transform="scale(1 1) rotate(0) translate(4 97.25)">
<title>clear_input</title>
<!-- Node1 -->
<g id="Node000001" class="node">
<title>Node1</title>
<g id="a_Node000001"><a xlink:title=" ">
<polygon fill="#999999" stroke="#666666" points="288,-56.25 224.75,-56.25 224.75,-37 288,-37 288,-56.25"/>
<text xml:space="preserve" text-anchor="middle" x="256.38" y="-42.75" font-family="Helvetica,sans-Serif" font-size="10.00">clear_input</text>
</a>
</g>
</g>
<!-- Node2 -->
<g id="Node000002" class="node">
<title>Node2</title>
<g id="a_Node000002"><a xlink:href="main_8cpp.html#a9bed13d62e8bdfe42b66dae803ccc984" target="_top" xlink:title=" ">
<polygon fill="white" stroke="#666666" points="172.62,-93.25 89.12,-93.25 89.12,-74 172.62,-74 172.62,-93.25"/>
<text xml:space="preserve" text-anchor="middle" x="130.88" y="-79.75" font-family="Helvetica,sans-Serif" font-size="10.00">get_parameters</text>
</a>
</g>
</g>
<!-- Node1&#45;&gt;Node2 -->
<g id="edge1_Node000001_Node000002" class="edge">
<title>Node1&#45;&gt;Node2</title>
<g id="a_edge1_Node000001_Node000002"><a xlink:title=" ">
<path fill="none" stroke="#63b8ff" d="M213.51,-59.17C197.81,-63.87 180.2,-69.15 165.36,-73.59"/>
<polygon fill="#63b8ff" stroke="#63b8ff" points="214.5,-62.52 223.08,-56.3 212.5,-55.82 214.5,-62.52"/>
</a>
</g>
</g>
<!-- Node4 -->
<g id="Node000004" class="node">
<title>Node4</title>
<g id="a_Node000004"><a xlink:href="main_8cpp.html#a5bf2d28e0988ebb858eb7831eb6632f6" target="_top" xlink:title=" ">
<polygon fill="white" stroke="#666666" points="171.88,-56.25 89.88,-56.25 89.88,-37 171.88,-37 171.88,-56.25"/>
<text xml:space="preserve" text-anchor="middle" x="130.88" y="-42.75" font-family="Helvetica,sans-Serif" font-size="10.00">select_material</text>
</a>
</g>
</g>
<!-- Node1&#45;&gt;Node4 -->
<g id="edge3_Node000001_Node000004" class="edge">
<title>Node1&#45;&gt;Node4</title>
<g id="a_edge3_Node000001_Node000004"><a xlink:title=" ">
<path fill="none" stroke="#63b8ff" d="M213.26,-46.62C199.95,-46.62 185.28,-46.62 172.11,-46.62"/>
<polygon fill="#63b8ff" stroke="#63b8ff" points="213.02,-50.13 223.02,-46.63 213.02,-43.13 213.02,-50.13"/>
</a>
</g>
</g>
<!-- Node5 -->
<g id="Node000005" class="node">
<title>Node5</title>
<g id="a_Node000005"><a xlink:href="main_8cpp.html#a40d09fc78511d50289896fb055254e2e" target="_top" xlink:title=" ">
<polygon fill="white" stroke="#666666" points="188.75,-19.25 73,-19.25 73,0 188.75,0 188.75,-19.25"/>
<text xml:space="preserve" text-anchor="middle" x="130.88" y="-5.75" font-family="Helvetica,sans-Serif" font-size="10.00">select_simulation_type</text>
</a>
</g>
</g>
<!-- Node1&#45;&gt;Node5 -->
<g id="edge5_Node000001_Node000005" class="edge">
<title>Node1&#45;&gt;Node5</title>
<g id="a_edge5_Node000001_Node000005"><a xlink:title=" ">
<path fill="none" stroke="#63b8ff" d="M213.51,-34.08C197.81,-29.38 180.2,-24.1 165.36,-19.66"/>
<polygon fill="#63b8ff" stroke="#63b8ff" points="212.5,-37.43 223.08,-36.95 214.5,-30.73 212.5,-37.43"/>
</a>
</g>
</g>
<!-- Node3 -->
<g id="Node000003" class="node">
<title>Node3</title>
<g id="a_Node000003"><a xlink:href="main_8cpp.html#ae66f6b31b5ad750f1fe042a706a4e3d4" target="_top" xlink:title=" ">
<polygon fill="white" stroke="#666666" points="37,-56.25 0,-56.25 0,-37 37,-37 37,-56.25"/>
<text xml:space="preserve" text-anchor="middle" x="18.5" y="-42.75" font-family="Helvetica,sans-Serif" font-size="10.00">main</text>
</a>
</g>
</g>
<!-- Node2&#45;&gt;Node3 -->
<g id="edge2_Node000002_Node000003" class="edge">
<title>Node2&#45;&gt;Node3</title>
<g id="a_edge2_Node000002_Node000003"><a xlink:title=" ">
<path fill="none" stroke="#63b8ff" d="M86.66,-70.12C82.04,-68.63 77.42,-67.11 73,-65.62 61.04,-61.61 47.66,-56.86 37.28,-53.11"/>
<polygon fill="#63b8ff" stroke="#63b8ff" points="85.3,-73.36 95.89,-73.08 87.43,-66.69 85.3,-73.36"/>
</a>
</g>
</g>
<!-- Node4&#45;&gt;Node3 -->
<g id="edge4_Node000004_Node000003" class="edge">
<title>Node4&#45;&gt;Node3</title>
<g id="a_edge4_Node000004_Node000003"><a xlink:title=" ">
<path fill="none" stroke="#63b8ff" d="M77.89,-46.62C63.37,-46.62 48.54,-46.62 37.47,-46.62"/>
<polygon fill="#63b8ff" stroke="#63b8ff" points="77.89,-50.13 87.89,-46.63 77.89,-43.13 77.89,-50.13"/>
</a>
</g>
</g>
<!-- Node5&#45;&gt;Node3 -->
<g id="edge6_Node000005_Node000003" class="edge">
<title>Node5&#45;&gt;Node3</title>
<g id="a_edge6_Node000005_Node000003"><a xlink:title=" ">
<path fill="none" stroke="#63b8ff" d="M86.66,-23.13C82.04,-24.62 77.42,-26.14 73,-27.62 61.04,-31.64 47.66,-36.39 37.28,-40.14"/>
<polygon fill="#63b8ff" stroke="#63b8ff" points="87.43,-26.56 95.89,-20.17 85.3,-19.89 87.43,-26.56"/>
</a>
</g>
</g>
</g>
</svg>
