<?xml version="1.0" encoding="UTF-8" standalone="no"?>
<!DOCTYPE svg PUBLIC "-//W3C//DTD SVG 1.1//EN"
 "http://www.w3.org/Graphics/SVG/1.1/DTD/svg11.dtd">
<!-- Generated by graphviz version 14.1.1 (20251213.1925)
 -->
<!-- Title: clear_input Pages: 1 -->
<svg width="296pt" height="64pt"
 viewBox="0.00 0.00 296.00 64.00" xmlns="http://www.w3.org/2000/svg" xmlns:xlink="http://www.w3.org/1999/xlink">
<g id="graph0" class="graph" transform="scale(1 1) rotate(0) translate(4 60.25)">
<title>clear_input</title>
<!-- Node1 -->
<g id="Node000001" class="node">
<title>Node1</title>
<g id="a_Node000001"><a xlink:title=" ">
<polygon fill="#999999" stroke="#666666" points="288,-37.25 224.75,-37.25 224.75,-18 288,-18 288,-37.25"/>
<text xml:space="preserve" text-anchor="middle" x="256.38" y="-23.75" font-family="Helvetica,sans-Serif" font-size="10.00">clear_input</text>
</a>
</g>
</g>
<!-- Node2 -->
<g id="Node000002" class="node">
<title>Node2</title>
<g id="a_Node000002"><a xlink:href="main_8cpp.html#a9bed13d62e8bdfe42b66dae803ccc984" target="_top" xlink:title=" ">
<polygon fill="white" stroke="#666666" points="172.62,-56.25 89.12,-56.25 89.12,-37 172.62,-37 172.62,-56.25"/>
<text xml:space="preserve" text-anchor="middle" x="130.88" y="-42.75" font-family="Helvetica,sans-Serif" font-size="10.00">get_parameters</text>
</a>
</g>
</g>
<!-- Node1&#45;&gt;Node2 -->
<g id="edge1_Node000001_Node000002" class="edge">
<title>Node1&#45;&gt;Node2</title>
<g id="a_edge1_Node000001_Node000002"><a xlink:title=" ">
<path fill="none" stroke="#63b8ff" d="M213.47,-34.07C200.41,-36.08 186.04,-38.29 173.03,-40.29"/>
<polygon fill="#63b8ff" stroke="#63b8ff" points="213.68,-37.58 223.03,-32.6 212.62,-30.66 213.68,-37.58"/>
</a>
</g>
</g>
<!-- Node4 -->
<g id="Node000004" class="node">
<title>Node4</title>
<g id="a_Node000004"><a xlink:href="main_8cpp.html#a40d09fc78511d50289896fb055254e2e" target="_top" xlink:title=" ">
<polygon fill="white" stroke="#666666" points="188.75,-19.25 73,-19.25 73,0 188.75,0 188.75,-19.25"/>
<text xml:space="preserve" text-anchor="middle" x="130.88" y="-5.75" font-family="Helvetica,sans-Serif" font-size="10.00">select_simulation_type</text>
</a>
</g>
</g>
<!-- Node1&#45;&gt;Node4 -->
<g id="edge3_Node000001_Node000004" class="edge">
<title>Node1&#45;&gt;Node4</title>
<g id="a_edge3_Node000001_Node000004"><a xlink:title=" ">
<path fill="none" stroke="#63b8ff" d="M213.35,-21.5C205.44,-20.35 197.05,-19.12 188.77,-17.92"/>
<polygon fill="#63b8ff" stroke="#63b8ff" points="212.63,-24.93 223.03,-22.91 213.64,-18.01 212.63,-24.93"/>
</a>
</g>
</g>
<!-- Node3 -->
<g id="Node000003" class="node">
<title>Node3</title>
<g id="a_Node000003"><a xlink:href="main_8cpp.html#ae66f6b31b5ad750f1fe042a706a4e3d4" target="_top" xlink:title=" ">
<polygon fill="white" stroke="#666666" points="37,-37.25 0,-37.25 0,-18 37,-18 37,-37.25"/>
<text xml:space="preserve" text-anchor="middle" x="18.5" y="-23.75" font-family="Helvetica,sans-Serif" font-size="10.00">main</text>
</a>
</g>
</g>
<!-- Node2&#45;&gt;Node3 -->
<g id="edge2_Node000002_Node000003" class="edge">
<title>Node2&#45;&gt;Node3</title>
<g id="a_edge2_Node000002_Node000003"><a xlink:title=" ">
<path fill="none" stroke="#63b8ff" d="M77.75,-37.65C63.18,-35.14 48.32,-32.59 37.25,-30.68"/>
<polygon fill="#63b8ff" stroke="#63b8ff" points="76.83,-41.05 87.28,-39.29 78.02,-34.15 76.83,-41.05"/>
</a>
</g>
</g>
<!-- Node4&#45;&gt;Node3 -->
<g id="edge4_Node000004_Node000003" class="edge">
<title>Node4&#45;&gt;Node3</title>
<g id="a_edge4_Node000004_Node000003"><a xlink:title=" ">
<path fill="none" stroke="#63b8ff" d="M61.43,-20.79C52.63,-22.22 44.32,-23.58 37.44,-24.7"/>
<polygon fill="#63b8ff" stroke="#63b8ff" points="61.95,-24.25 71.25,-19.18 60.82,-17.34 61.95,-24.25"/>
</a>
</g>
</g>
</g>
</svg>
