<?xml version="1.0" encoding="UTF-8" standalone="no"?>
<!DOCTYPE svg PUBLIC "-//W3C//DTD SVG 1.1//EN"
 "http://www.w3.org/Graphics/SVG/1.1/DTD/svg11.dtd">
<!-- Generated by graphviz version 14.1.1 (20251213.1925)
 -->
<!-- Title: main Pages: 1 -->
<svg width="358pt" height="406pt"
 viewBox="0.00 0.00 358.00 406.00" xmlns="http://www.w3.org/2000/svg" xmlns:xlink="http://www.w3.org/1999/xlink">
<g id="graph0" class="graph" transform="scale(1 1) rotate(0) translate(4 402.25)">
<title>main</title>
<!-- Node1 -->
<g id="Node000001" class="node">
<title>Node1</title>
<g id="a_Node000001"><a xlink:title=" ">
<polygon fill="#999999" stroke="#666666" points="37,-250.25 0,-250.25 0,-231 37,-231 37,-250.25"/>
<text xml:space="preserve" text-anchor="middle" x="18.5" y="-236.75" font-family="Helvetica,sans-Serif" font-size="10.00">main</text>
</a>
</g>
</g>
<!-- Node2 -->
<g id="Node000002" class="node">
<title>Node2</title>
<g id="a_Node000002"><a xlink:href="main_8cpp.html#a450cad16c6e4efa689302541f7ac7607" target="_top" xlink:title=" ">
<polygon fill="white" stroke="#666666" points="177.88,-398.25 83.88,-398.25 83.88,-379 177.88,-379 177.88,-398.25"/>
<text xml:space="preserve" text-anchor="middle" x="130.88" y="-384.75" font-family="Helvetica,sans-Serif" font-size="10.00">confirm_and_start</text>
</a>
</g>
</g>
<!-- Node1&#45;&gt;Node2 -->
<g id="edge1_Node000001_Node000002" class="edge">
<title>Node1&#45;&gt;Node2</title>
<g id="a_edge1_Node000001_Node000002"><a xlink:title=" ">
<path fill="none" stroke="#63b8ff" d="M20.74,-250.72C24.26,-275 36.53,-337.09 73,-370.62 73.64,-371.22 74.31,-371.79 74.99,-372.34"/>
<polygon fill="#63b8ff" stroke="#63b8ff" points="73.06,-375.27 83.37,-377.71 76.84,-369.37 73.06,-375.27"/>
</a>
</g>
</g>
<!-- Node3 -->
<g id="Node000003" class="node">
<title>Node3</title>
<g id="a_Node000003"><a xlink:href="main_8cpp.html#a93e60bbb49815d0928fa79a53d456121" target="_top" xlink:title=" ">
<polygon fill="white" stroke="#666666" points="188.38,-361.25 73.38,-361.25 73.38,-342 188.38,-342 188.38,-361.25"/>
<text xml:space="preserve" text-anchor="middle" x="130.88" y="-347.75" font-family="Helvetica,sans-Serif" font-size="10.00">confirm_and_start_grid</text>
</a>
</g>
</g>
<!-- Node1&#45;&gt;Node3 -->
<g id="edge2_Node000001_Node000003" class="edge">
<title>Node1&#45;&gt;Node3</title>
<g id="a_edge2_Node000001_Node000003"><a xlink:title=" ">
<path fill="none" stroke="#63b8ff" d="M22.54,-250.65C28.81,-269.67 44.99,-311.09 73,-333.62 74.11,-334.52 75.27,-335.37 76.46,-336.18"/>
<polygon fill="#63b8ff" stroke="#63b8ff" points="74.44,-339.06 84.89,-340.86 77.84,-332.94 74.44,-339.06"/>
</a>
</g>
</g>
<!-- Node4 -->
<g id="Node000004" class="node">
<title>Node4</title>
<g id="a_Node000004"><a xlink:href="main_8cpp.html#a9bed13d62e8bdfe42b66dae803ccc984" target="_top" xlink:title=" ">
<polygon fill="white" stroke="#666666" points="172.62,-324.25 89.12,-324.25 89.12,-305 172.62,-305 172.62,-324.25"/>
<text xml:space="preserve" text-anchor="middle" x="130.88" y="-310.75" font-family="Helvetica,sans-Serif" font-size="10.00">get_parameters</text>
</a>
</g>
</g>
<!-- Node1&#45;&gt;Node4 -->
<g id="edge3_Node000001_Node000004" class="edge">
<title>Node1&#45;&gt;Node4</title>
<g id="a_edge3_Node000001_Node000004"><a xlink:title=" ">
<path fill="none" stroke="#63b8ff" d="M26.34,-250.37C35.56,-262.83 53.15,-284.25 73,-296.62 74.88,-297.8 76.84,-298.9 78.86,-299.93"/>
<polygon fill="#63b8ff" stroke="#63b8ff" points="77.34,-303.09 87.9,-303.95 80.19,-296.69 77.34,-303.09"/>
</a>
</g>
</g>
<!-- Node6 -->
<g id="Node000006" class="node">
<title>Node6</title>
<g id="a_Node000006"><a xlink:href="classsdl_1_1_s_d_l_core.html#a9f66b182893da8197a011844052b8764" target="_top" xlink:title=" ">
<polygon fill="white" stroke="#666666" points="177.88,-287.25 83.88,-287.25 83.88,-268 177.88,-268 177.88,-287.25"/>
<text xml:space="preserve" text-anchor="middle" x="130.88" y="-273.75" font-family="Helvetica,sans-Serif" font-size="10.00">sdl::SDLCore::init</text>
</a>
</g>
</g>
<!-- Node1&#45;&gt;Node6 -->
<g id="edge5_Node000001_Node000006" class="edge">
<title>Node1&#45;&gt;Node6</title>
<g id="a_edge5_Node000001_Node000006"><a xlink:title=" ">
<path fill="none" stroke="#63b8ff" d="M37.28,-247.11C47.66,-250.86 61.04,-255.61 73,-259.62 77.42,-261.11 82.04,-262.63 86.66,-264.12"/>
<polygon fill="#63b8ff" stroke="#63b8ff" points="85.3,-267.36 95.89,-267.08 87.43,-260.69 85.3,-267.36"/>
</a>
</g>
</g>
<!-- Node7 -->
<g id="Node000007" class="node">
<title>Node7</title>
<g id="a_Node000007"><a xlink:href="main_8cpp.html#aab0a749241244d13922556533aeb7069" target="_top" xlink:title=" ">
<polygon fill="white" stroke="#666666" points="165.5,-250.25 96.25,-250.25 96.25,-231 165.5,-231 165.5,-250.25"/>
<text xml:space="preserve" text-anchor="middle" x="130.88" y="-236.75" font-family="Helvetica,sans-Serif" font-size="10.00">print_header</text>
</a>
</g>
</g>
<!-- Node1&#45;&gt;Node7 -->
<g id="edge6_Node000001_Node000007" class="edge">
<title>Node1&#45;&gt;Node7</title>
<g id="a_edge6_Node000001_Node000007"><a xlink:title=" ">
<path fill="none" stroke="#63b8ff" d="M37.23,-240.62C50.11,-240.62 68.13,-240.62 84.86,-240.62"/>
<polygon fill="#63b8ff" stroke="#63b8ff" points="84.64,-244.13 94.64,-240.63 84.64,-237.13 84.64,-244.13"/>
</a>
</g>
</g>
<!-- Node8 -->
<g id="Node000008" class="node">
<title>Node8</title>
<g id="a_Node000008"><a xlink:href="classsdl_1_1_s_d_l_core.html#a67298b2ae5f38fa3feec6587f6fa6b54" target="_top" xlink:title=" ">
<polygon fill="white" stroke="#666666" points="179.38,-213.25 82.38,-213.25 82.38,-194 179.38,-194 179.38,-213.25"/>
<text xml:space="preserve" text-anchor="middle" x="130.88" y="-199.75" font-family="Helvetica,sans-Serif" font-size="10.00">sdl::SDLCore::quit</text>
</a>
</g>
</g>
<!-- Node1&#45;&gt;Node8 -->
<g id="edge7_Node000001_Node000008" class="edge">
<title>Node1&#45;&gt;Node8</title>
<g id="a_edge7_Node000001_Node000008"><a xlink:title=" ">
<path fill="none" stroke="#63b8ff" d="M37.28,-234.14C47.66,-230.39 61.04,-225.64 73,-221.62 77.42,-220.14 82.04,-218.62 86.66,-217.13"/>
<polygon fill="#63b8ff" stroke="#63b8ff" points="87.43,-220.56 95.89,-214.17 85.3,-213.89 87.43,-220.56"/>
</a>
</g>
</g>
<!-- Node9 -->
<g id="Node000009" class="node">
<title>Node9</title>
<g id="a_Node000009"><a xlink:href="classsdl_1_1_s_d_l_app.html#ab34f103f863f0cdd5b55e47503964f13" target="_top" xlink:title=" ">
<polygon fill="white" stroke="#666666" points="176.38,-99.25 85.38,-99.25 85.38,-80 176.38,-80 176.38,-99.25"/>
<text xml:space="preserve" text-anchor="middle" x="130.88" y="-85.75" font-family="Helvetica,sans-Serif" font-size="10.00">sdl::SDLApp::run</text>
</a>
</g>
</g>
<!-- Node1&#45;&gt;Node9 -->
<g id="edge8_Node000001_Node000009" class="edge">
<title>Node1&#45;&gt;Node9</title>
<g id="a_edge8_Node000001_Node000009"><a xlink:title=" ">
<path fill="none" stroke="#63b8ff" d="M20.84,-230.64C24.59,-206.61 37.33,-145.01 73,-110.62 75.06,-108.64 77.31,-106.85 79.71,-105.22"/>
<polygon fill="#63b8ff" stroke="#63b8ff" points="81.16,-108.41 88.17,-100.46 77.73,-102.31 81.16,-108.41"/>
</a>
</g>
</g>
<!-- Node14 -->
<g id="Node000014" class="node">
<title>Node14</title>
<g id="a_Node000014"><a xlink:href="main_8cpp.html#a5bf2d28e0988ebb858eb7831eb6632f6" target="_top" xlink:title=" ">
<polygon fill="white" stroke="#666666" points="171.88,-176.25 89.88,-176.25 89.88,-157 171.88,-157 171.88,-176.25"/>
<text xml:space="preserve" text-anchor="middle" x="130.88" y="-162.75" font-family="Helvetica,sans-Serif" font-size="10.00">select_material</text>
</a>
</g>
</g>
<!-- Node1&#45;&gt;Node14 -->
<g id="edge13_Node000001_Node000014" class="edge">
<title>Node1&#45;&gt;Node14</title>
<g id="a_edge13_Node000001_Node000014"><a xlink:title=" ">
<path fill="none" stroke="#63b8ff" d="M26.34,-230.88C35.56,-218.42 53.15,-197 73,-184.62 74.99,-183.38 77.08,-182.22 79.22,-181.13"/>
<polygon fill="#63b8ff" stroke="#63b8ff" points="80.46,-184.41 88.2,-177.18 77.64,-178.01 80.46,-184.41"/>
</a>
</g>
</g>
<!-- Node15 -->
<g id="Node000015" class="node">
<title>Node15</title>
<g id="a_Node000015"><a xlink:href="main_8cpp.html#a40d09fc78511d50289896fb055254e2e" target="_top" xlink:title=" ">
<polygon fill="white" stroke="#666666" points="188.75,-139.25 73,-139.25 73,-120 188.75,-120 188.75,-139.25"/>
<text xml:space="preserve" text-anchor="middle" x="130.88" y="-125.75" font-family="Helvetica,sans-Serif" font-size="10.00">select_simulation_type</text>
</a>
</g>
</g>
<!-- Node1&#45;&gt;Node15 -->
<g id="edge15_Node000001_Node000015" class="edge">
<title>Node1&#45;&gt;Node15</title>
<g id="a_edge15_Node000001_Node000015"><a xlink:title=" ">
<path fill="none" stroke="#63b8ff" d="M22.54,-230.6C28.81,-211.58 44.99,-170.16 73,-147.62 74.11,-146.73 75.27,-145.88 76.46,-145.07"/>
<polygon fill="#63b8ff" stroke="#63b8ff" points="77.84,-148.31 84.89,-140.39 74.44,-142.19 77.84,-148.31"/>
</a>
</g>
</g>
<!-- Node5 -->
<g id="Node000005" class="node">
<title>Node5</title>
<g id="a_Node000005"><a xlink:href="main_8cpp.html#a5fed5e5d05ab07ac96ba3d483807da48" target="_top" xlink:title=" ">
<polygon fill="white" stroke="#666666" points="319.12,-179.25 255.88,-179.25 255.88,-160 319.12,-160 319.12,-179.25"/>
<text xml:space="preserve" text-anchor="middle" x="287.5" y="-165.75" font-family="Helvetica,sans-Serif" font-size="10.00">clear_input</text>
</a>
</g>
</g>
<!-- Node4&#45;&gt;Node5 -->
<g id="edge4_Node000004_Node000005" class="edge">
<title>Node4&#45;&gt;Node5</title>
<g id="a_edge4_Node000004_Node000005"><a xlink:title=" ">
<path fill="none" stroke="#63b8ff" d="M173.08,-304.92C178.6,-302.68 184,-299.95 188.75,-296.62 229.42,-268.16 260.88,-217.68 276.21,-189.7"/>
<polygon fill="#63b8ff" stroke="#63b8ff" points="279.3,-191.35 280.91,-180.87 273.12,-188.06 279.3,-191.35"/>
</a>
</g>
</g>
<!-- Node10 -->
<g id="Node000010" class="node">
<title>Node10</title>
<g id="a_Node000010"><a xlink:href="classsdl_1_1_s_d_l_core.html#a72cf07dd648be5695d5500c1459cffba" target="_top" xlink:title=" ">
<polygon fill="white" stroke="#666666" points="339.75,-142.25 235.25,-142.25 235.25,-123 339.75,-123 339.75,-142.25"/>
<text xml:space="preserve" text-anchor="middle" x="287.5" y="-128.75" font-family="Helvetica,sans-Serif" font-size="10.00">sdl::SDLCore::delay</text>
</a>
</g>
</g>
<!-- Node9&#45;&gt;Node10 -->
<g id="edge9_Node000009_Node000010" class="edge">
<title>Node9&#45;&gt;Node10</title>
<g id="a_edge9_Node000009_Node000010"><a xlink:title=" ">
<path fill="none" stroke="#63b8ff" d="M168.13,-99.71C189.38,-105.62 216.45,-113.15 239.35,-119.51"/>
<polygon fill="#63b8ff" stroke="#63b8ff" points="238.18,-122.82 248.75,-122.13 240.05,-116.08 238.18,-122.82"/>
</a>
</g>
</g>
<!-- Node11 -->
<g id="Node000011" class="node">
<title>Node11</title>
<g id="a_Node000011"><a xlink:href="classsdl_1_1_s_d_l_app.html#ab968b0b1b52b88ccba2f2ce6e5c0440a" target="_top" xlink:title=" ">
<polygon fill="white" stroke="#666666" points="343.5,-104.88 231.5,-104.88 231.5,-74.38 343.5,-74.38 343.5,-104.88"/>
<text xml:space="preserve" text-anchor="start" x="239.5" y="-91.38" font-family="Helvetica,sans-Serif" font-size="10.00">sdl::SDLApp::process</text>
<text xml:space="preserve" text-anchor="middle" x="287.5" y="-80.12" font-family="Helvetica,sans-Serif" font-size="10.00">_events</text>
</a>
</g>
</g>
<!-- Node9&#45;&gt;Node11 -->
<g id="edge10_Node000009_Node000011" class="edge">
<title>Node9&#45;&gt;Node11</title>
<g id="a_edge10_Node000009_Node000011"><a xlink:title=" ">
<path fill="none" stroke="#63b8ff" d="M176.6,-89.62C190.17,-89.62 205.39,-89.62 220.07,-89.62"/>
<polygon fill="#63b8ff" stroke="#63b8ff" points="219.65,-93.13 229.65,-89.63 219.65,-86.13 219.65,-93.13"/>
</a>
</g>
</g>
<!-- Node12 -->
<g id="Node000012" class="node">
<title>Node12</title>
<g id="a_Node000012"><a xlink:href="classsdl_1_1_s_d_l_app.html#adbaa5896ae80063ae1fbb05a4ce81cac" target="_top" xlink:title=" ">
<polygon fill="white" stroke="#666666" points="339.75,-56.25 235.25,-56.25 235.25,-37 339.75,-37 339.75,-56.25"/>
<text xml:space="preserve" text-anchor="middle" x="287.5" y="-42.75" font-family="Helvetica,sans-Serif" font-size="10.00">sdl::SDLApp::render</text>
</a>
</g>
</g>
<!-- Node9&#45;&gt;Node12 -->
<g id="edge11_Node000009_Node000012" class="edge">
<title>Node9&#45;&gt;Node12</title>
<g id="a_edge11_Node000009_Node000012"><a xlink:title=" ">
<path fill="none" stroke="#63b8ff" d="M168.13,-79.54C189.38,-73.63 216.45,-66.1 239.35,-59.74"/>
<polygon fill="#63b8ff" stroke="#63b8ff" points="240.05,-63.17 248.75,-57.12 238.18,-56.43 240.05,-63.17"/>
</a>
</g>
</g>
<!-- Node13 -->
<g id="Node000013" class="node">
<title>Node13</title>
<g id="a_Node000013"><a xlink:href="classsdl_1_1_s_d_l_app.html#a3cdf9dcd297d4d63bffcbc4ee95c9a8b" target="_top" xlink:title=" ">
<polygon fill="white" stroke="#666666" points="350.25,-19.25 224.75,-19.25 224.75,0 350.25,0 350.25,-19.25"/>
<text xml:space="preserve" text-anchor="middle" x="287.5" y="-5.75" font-family="Helvetica,sans-Serif" font-size="10.00">sdl::SDLApp::render_grid</text>
</a>
</g>
</g>
<!-- Node9&#45;&gt;Node13 -->
<g id="edge12_Node000009_Node000013" class="edge">
<title>Node9&#45;&gt;Node13</title>
<g id="a_edge12_Node000009_Node000013"><a xlink:title=" ">
<path fill="none" stroke="#63b8ff" d="M144.06,-79.7C161.16,-66.21 193.65,-42.12 224.75,-27.62 227.89,-26.16 231.17,-24.79 234.52,-23.51"/>
<polygon fill="#63b8ff" stroke="#63b8ff" points="235.62,-26.83 243.9,-20.22 233.31,-20.22 235.62,-26.83"/>
</a>
</g>
</g>
<!-- Node14&#45;&gt;Node5 -->
<g id="edge14_Node000014_Node000005" class="edge">
<title>Node14&#45;&gt;Node5</title>
<g id="a_edge14_Node000014_Node000005"><a xlink:title=" ">
<path fill="none" stroke="#63b8ff" d="M172.1,-167.41C194.35,-167.84 221.97,-168.37 244.5,-168.81"/>
<polygon fill="#63b8ff" stroke="#63b8ff" points="244.18,-172.3 254.24,-169 244.31,-165.31 244.18,-172.3"/>
</a>
</g>
</g>
<!-- Node15&#45;&gt;Node5 -->
<g id="edge16_Node000015_Node000005" class="edge">
<title>Node15&#45;&gt;Node5</title>
<g id="a_edge16_Node000015_Node000005"><a xlink:title=" ">
<path fill="none" stroke="#63b8ff" d="M170.89,-139.72C193.39,-145.54 221.69,-152.86 244.65,-158.8"/>
<polygon fill="#63b8ff" stroke="#63b8ff" points="243.75,-162.18 254.31,-161.3 245.51,-155.41 243.75,-162.18"/>
</a>
</g>
</g>
</g>
</svg>
