<?xml version="1.0" encoding="UTF-8" standalone="no"?>
<!DOCTYPE svg PUBLIC "-//W3C//DTD SVG 1.1//EN"
 "http://www.w3.org/Graphics/SVG/1.1/DTD/svg11.dtd">
<!-- Generated by graphviz version 14.1.1 (20251213.1925)
 -->
<!-- Title: main.cpp Pages: 1 -->
<svg width="789pt" height="248pt"
 viewBox="0.00 0.00 789.00 248.00" xmlns="http://www.w3.org/2000/svg" xmlns:xlink="http://www.w3.org/1999/xlink">
<g id="graph0" class="graph" transform="scale(1 1) rotate(0) translate(4 244.25)">
<title>main.cpp</title>
<!-- Node1 -->
<g id="Node000001" class="node">
<title>Node1</title>
<g id="a_Node000001"><a xlink:title="Console menu and SDL2 visualization launcher.">
<polygon fill="#999999" stroke="#666666" points="601.62,-240.25 545.88,-240.25 545.88,-221 601.62,-221 601.62,-240.25"/>
<text xml:space="preserve" text-anchor="middle" x="573.75" y="-226.75" font-family="Helvetica,sans-Serif" font-size="10.00">main.cpp</text>
</a>
</g>
</g>
<!-- Node2 -->
<g id="Node000002" class="node">
<title>Node2</title>
<g id="a_Node000002"><a xlink:href="sdl__core_8hpp.html" target="_top" xlink:title="SDL2 initialization wrapper.">
<polygon fill="white" stroke="#666666" points="71.5,-74.5 0,-74.5 0,-55.25 71.5,-55.25 71.5,-74.5"/>
<text xml:space="preserve" text-anchor="middle" x="35.75" y="-61" font-family="Helvetica,sans-Serif" font-size="10.00">sdl_core.hpp</text>
</a>
</g>
</g>
<!-- Node1&#45;&gt;Node2 -->
<g id="edge1_Node000001_Node000002" class="edge">
<title>Node1&#45;&gt;Node2</title>
<g id="a_edge1_Node000001_Node000002"><a xlink:title=" ">
<path fill="none" stroke="#63b8ff" d="M545.68,-228.17C489.76,-224.73 360.87,-214.07 256.75,-185 196.68,-168.23 182.31,-159.97 127.75,-129.75 101.92,-115.44 74.35,-95.63 56.21,-81.88"/>
<polygon fill="#63b8ff" stroke="#63b8ff" points="58.43,-79.17 48.37,-75.86 54.17,-84.73 58.43,-79.17"/>
</a>
</g>
</g>
<!-- Node4 -->
<g id="Node000004" class="node">
<title>Node4</title>
<g id="a_Node000004"><a xlink:title=" ">
<polygon fill="#e0e0e0" stroke="#999999" points="259.75,-19.25 219.75,-19.25 219.75,0 259.75,0 259.75,-19.25"/>
<text xml:space="preserve" text-anchor="middle" x="239.75" y="-5.75" font-family="Helvetica,sans-Serif" font-size="10.00">string</text>
</a>
</g>
</g>
<!-- Node1&#45;&gt;Node4 -->
<g id="edge22_Node000001_Node000004" class="edge">
<title>Node1&#45;&gt;Node4</title>
<g id="a_edge22_Node000001_Node000004"><a xlink:title=" ">
<path fill="none" stroke="#63b8ff" d="M572.83,-220.86C569.27,-191.63 553.51,-97.05 495.75,-55.25 460.36,-29.64 332.02,-17.24 271.6,-12.72"/>
<polygon fill="#63b8ff" stroke="#63b8ff" points="271.87,-9.23 261.65,-12 271.37,-16.21 271.87,-9.23"/>
</a>
</g>
</g>
<!-- Node6 -->
<g id="Node000006" class="node">
<title>Node6</title>
<g id="a_Node000006"><a xlink:href="sdl__app_8hpp.html" target="_top" xlink:title="SDL2 application for heat equation visualization.">
<polygon fill="white" stroke="#666666" points="334,-185 265.5,-185 265.5,-165.75 334,-165.75 334,-185"/>
<text xml:space="preserve" text-anchor="middle" x="299.75" y="-171.5" font-family="Helvetica,sans-Serif" font-size="10.00">sdl_app.hpp</text>
</a>
</g>
</g>
<!-- Node1&#45;&gt;Node6 -->
<g id="edge5_Node000001_Node000006" class="edge">
<title>Node1&#45;&gt;Node6</title>
<g id="a_edge5_Node000001_Node000006"><a xlink:title=" ">
<path fill="none" stroke="#63b8ff" d="M545.46,-224.13C498.13,-214.93 402.49,-196.34 345.49,-185.26"/>
<polygon fill="#63b8ff" stroke="#63b8ff" points="346.26,-181.85 335.78,-183.38 344.93,-188.72 346.26,-181.85"/>
</a>
</g>
</g>
<!-- Node10 -->
<g id="Node000010" class="node">
<title>Node10</title>
<g id="a_Node000010"><a xlink:href="material_8hpp.html" target="_top" xlink:title=" ">
<polygon fill="white" stroke="#666666" points="486.38,-74.5 417.12,-74.5 417.12,-55.25 486.38,-55.25 486.38,-74.5"/>
<text xml:space="preserve" text-anchor="middle" x="451.75" y="-61" font-family="Helvetica,sans-Serif" font-size="10.00">material.hpp</text>
</a>
</g>
</g>
<!-- Node1&#45;&gt;Node10 -->
<g id="edge20_Node000001_Node000010" class="edge">
<title>Node1&#45;&gt;Node10</title>
<g id="a_edge20_Node000001_Node000010"><a xlink:title=" ">
<path fill="none" stroke="#63b8ff" d="M568.52,-220.57C556.56,-200.14 525.81,-149.21 494.75,-110.5 487.04,-100.89 477.61,-90.94 469.56,-82.88"/>
<polygon fill="#63b8ff" stroke="#63b8ff" points="472.17,-80.55 462.58,-76.05 467.28,-85.55 472.17,-80.55"/>
</a>
</g>
</g>
<!-- Node13 -->
<g id="Node000013" class="node">
<title>Node13</title>
<g id="a_Node000013"><a xlink:title=" ">
<polygon fill="#e0e0e0" stroke="#999999" points="655.5,-185 602,-185 602,-165.75 655.5,-165.75 655.5,-185"/>
<text xml:space="preserve" text-anchor="middle" x="628.75" y="-171.5" font-family="Helvetica,sans-Serif" font-size="10.00">iostream</text>
</a>
</g>
</g>
<!-- Node1&#45;&gt;Node13 -->
<g id="edge21_Node000001_Node000013" class="edge">
<title>Node1&#45;&gt;Node13</title>
<g id="a_edge21_Node000001_Node000013"><a xlink:title=" ">
<path fill="none" stroke="#63b8ff" d="M582.83,-220.83C590.59,-213.32 601.96,-202.31 611.45,-193.13"/>
<polygon fill="#63b8ff" stroke="#63b8ff" points="613.63,-195.88 618.38,-186.41 608.76,-190.85 613.63,-195.88"/>
</a>
</g>
</g>
<!-- Node14 -->
<g id="Node000014" class="node">
<title>Node14</title>
<g id="a_Node000014"><a xlink:title=" ">
<polygon fill="#e0e0e0" stroke="#999999" points="712.38,-185 673.12,-185 673.12,-165.75 712.38,-165.75 712.38,-185"/>
<text xml:space="preserve" text-anchor="middle" x="692.75" y="-171.5" font-family="Helvetica,sans-Serif" font-size="10.00">limits</text>
</a>
</g>
</g>
<!-- Node1&#45;&gt;Node14 -->
<g id="edge23_Node000001_Node000014" class="edge">
<title>Node1&#45;&gt;Node14</title>
<g id="a_edge23_Node000001_Node000014"><a xlink:title=" ">
<path fill="none" stroke="#63b8ff" d="M593.94,-220.59C612.77,-212.16 641.12,-199.48 662.62,-189.86"/>
<polygon fill="#63b8ff" stroke="#63b8ff" points="663.78,-193.17 671.48,-185.89 660.92,-186.78 663.78,-193.17"/>
</a>
</g>
</g>
<!-- Node15 -->
<g id="Node000015" class="node">
<title>Node15</title>
<g id="a_Node000015"><a xlink:title=" ">
<polygon fill="#e0e0e0" stroke="#999999" points="780.62,-185 730.88,-185 730.88,-165.75 780.62,-165.75 780.62,-185"/>
<text xml:space="preserve" text-anchor="middle" x="755.75" y="-171.5" font-family="Helvetica,sans-Serif" font-size="10.00">iomanip</text>
</a>
</g>
</g>
<!-- Node1&#45;&gt;Node15 -->
<g id="edge24_Node000001_Node000015" class="edge">
<title>Node1&#45;&gt;Node15</title>
<g id="a_edge24_Node000001_Node000015"><a xlink:title=" ">
<path fill="none" stroke="#63b8ff" d="M601.79,-221.42C633.41,-212.17 684.93,-197.09 719.57,-186.96"/>
<polygon fill="#63b8ff" stroke="#63b8ff" points="720.54,-190.32 729.16,-184.16 718.58,-183.6 720.54,-190.32"/>
</a>
</g>
</g>
<!-- Node3 -->
<g id="Node000003" class="node">
<title>Node3</title>
<g id="a_Node000003"><a xlink:title=" ">
<polygon fill="#e0e0e0" stroke="#999999" points="124.62,-19.25 80.88,-19.25 80.88,0 124.62,0 124.62,-19.25"/>
<text xml:space="preserve" text-anchor="middle" x="102.75" y="-5.75" font-family="Helvetica,sans-Serif" font-size="10.00">SDL.h</text>
</a>
</g>
</g>
<!-- Node2&#45;&gt;Node3 -->
<g id="edge2_Node000002_Node000003" class="edge">
<title>Node2&#45;&gt;Node3</title>
<g id="a_edge2_Node000002_Node000003"><a xlink:title=" ">
<path fill="none" stroke="#63b8ff" d="M47.12,-54.84C56.8,-47.15 70.95,-35.9 82.56,-26.68"/>
<polygon fill="#63b8ff" stroke="#63b8ff" points="84.72,-29.43 90.37,-20.47 80.36,-23.95 84.72,-29.43"/>
</a>
</g>
</g>
<!-- Node2&#45;&gt;Node4 -->
<g id="edge3_Node000002_Node000004" class="edge">
<title>Node2&#45;&gt;Node4</title>
<g id="a_edge3_Node000002_Node000004"><a xlink:title=" ">
<path fill="none" stroke="#63b8ff" d="M70.36,-54.84C109.09,-44.73 171.3,-28.49 208.58,-18.76"/>
<polygon fill="#63b8ff" stroke="#63b8ff" points="209.03,-22.26 217.83,-16.35 207.27,-15.49 209.03,-22.26"/>
</a>
</g>
</g>
<!-- Node5 -->
<g id="Node000005" class="node">
<title>Node5</title>
<g id="a_Node000005"><a xlink:title=" ">
<polygon fill="#e0e0e0" stroke="#999999" points="63.12,-19.25 4.38,-19.25 4.38,0 63.12,0 63.12,-19.25"/>
<text xml:space="preserve" text-anchor="middle" x="33.75" y="-5.75" font-family="Helvetica,sans-Serif" font-size="10.00">stdexcept</text>
</a>
</g>
</g>
<!-- Node2&#45;&gt;Node5 -->
<g id="edge4_Node000002_Node000005" class="edge">
<title>Node2&#45;&gt;Node5</title>
<g id="a_edge4_Node000002_Node000005"><a xlink:title=" ">
<path fill="none" stroke="#63b8ff" d="M35.42,-55.08C35.17,-48.49 34.82,-39.21 34.51,-30.82"/>
<polygon fill="#63b8ff" stroke="#63b8ff" points="38.02,-30.98 34.14,-21.12 31.02,-31.25 38.02,-30.98"/>
</a>
</g>
</g>
<!-- Node6&#45;&gt;Node3 -->
<g id="edge6_Node000006_Node000003" class="edge">
<title>Node6&#45;&gt;Node3</title>
<g id="a_edge6_Node000006_Node000003"><a xlink:title=" ">
<path fill="none" stroke="#63b8ff" d="M265.07,-171.91C231.7,-167.9 181.47,-157.38 147.75,-129.75 117.63,-105.06 107.65,-57.94 104.36,-30.95"/>
<polygon fill="#63b8ff" stroke="#63b8ff" points="107.84,-30.62 103.37,-21.01 100.88,-31.31 107.84,-30.62"/>
</a>
</g>
</g>
<!-- Node7 -->
<g id="Node000007" class="node">
<title>Node7</title>
<g id="a_Node000007"><a xlink:href="sdl__window_8hpp.html" target="_top" xlink:title="SDL2 window and renderer wrapper.">
<polygon fill="white" stroke="#666666" points="211.88,-74.5 127.62,-74.5 127.62,-55.25 211.88,-55.25 211.88,-74.5"/>
<text xml:space="preserve" text-anchor="middle" x="169.75" y="-61" font-family="Helvetica,sans-Serif" font-size="10.00">sdl_window.hpp</text>
</a>
</g>
</g>
<!-- Node6&#45;&gt;Node7 -->
<g id="edge7_Node000006_Node000007" class="edge">
<title>Node6&#45;&gt;Node7</title>
<g id="a_edge7_Node000006_Node000007"><a xlink:title=" ">
<path fill="none" stroke="#63b8ff" d="M265.22,-174.42C231.41,-172.38 181.48,-163.38 156.75,-129.75 147.12,-116.66 152.39,-98.15 158.87,-84.43"/>
<polygon fill="#63b8ff" stroke="#63b8ff" points="161.75,-86.45 163.35,-75.98 155.57,-83.17 161.75,-86.45"/>
</a>
</g>
</g>
<!-- Node8 -->
<g id="Node000008" class="node">
<title>Node8</title>
<g id="a_Node000008"><a xlink:href="sdl__heatmap_8hpp.html" target="_top" xlink:title="Temperature visualization using Inferno colormap.">
<polygon fill="white" stroke="#666666" points="255.88,-129.75 165.62,-129.75 165.62,-110.5 255.88,-110.5 255.88,-129.75"/>
<text xml:space="preserve" text-anchor="middle" x="210.75" y="-116.25" font-family="Helvetica,sans-Serif" font-size="10.00">sdl_heatmap.hpp</text>
</a>
</g>
</g>
<!-- Node6&#45;&gt;Node8 -->
<g id="edge10_Node000006_Node000008" class="edge">
<title>Node6&#45;&gt;Node8</title>
<g id="a_edge10_Node000006_Node000008"><a xlink:title=" ">
<path fill="none" stroke="#63b8ff" d="M284.65,-165.34C271.23,-157.31 251.34,-145.41 235.58,-135.98"/>
<polygon fill="#63b8ff" stroke="#63b8ff" points="237.6,-133.11 227.22,-130.98 234,-139.12 237.6,-133.11"/>
</a>
</g>
</g>
<!-- Node6&#45;&gt;Node10 -->
<g id="edge14_Node000006_Node000010" class="edge">
<title>Node6&#45;&gt;Node10</title>
<g id="a_edge14_Node000006_Node000010"><a xlink:title=" ">
<path fill="none" stroke="#63b8ff" d="M334.19,-170.77C381.07,-165.08 461.15,-152.27 478.75,-129.75 489.59,-115.88 479.23,-97.01 468.36,-83.38"/>
<polygon fill="#63b8ff" stroke="#63b8ff" points="471.2,-81.31 462,-76.05 465.91,-85.89 471.2,-81.31"/>
</a>
</g>
</g>
<!-- Node11 -->
<g id="Node000011" class="node">
<title>Node11</title>
<g id="a_Node000011"><a xlink:href="heat__equation__solver_8hpp.html" target="_top" xlink:title="1D and 2D Heat Equation Solvers &#45; Implicit Finite Differences">
<polygon fill="white" stroke="#666666" points="469.88,-129.75 343.62,-129.75 343.62,-110.5 469.88,-110.5 469.88,-129.75"/>
<text xml:space="preserve" text-anchor="middle" x="406.75" y="-116.25" font-family="Helvetica,sans-Serif" font-size="10.00">heat_equation_solver.hpp</text>
</a>
</g>
</g>
<!-- Node6&#45;&gt;Node11 -->
<g id="edge16_Node000006_Node000011" class="edge">
<title>Node6&#45;&gt;Node11</title>
<g id="a_edge16_Node000006_Node000011"><a xlink:title=" ">
<path fill="none" stroke="#63b8ff" d="M317.9,-165.34C334.43,-157.12 359.09,-144.84 378.25,-135.31"/>
<polygon fill="#63b8ff" stroke="#63b8ff" points="379.76,-138.47 387.15,-130.88 376.64,-132.2 379.76,-138.47"/>
</a>
</g>
</g>
<!-- Node12 -->
<g id="Node000012" class="node">
<title>Node12</title>
<g id="a_Node000012"><a xlink:title=" ">
<polygon fill="#e0e0e0" stroke="#999999" points="325.38,-129.75 274.12,-129.75 274.12,-110.5 325.38,-110.5 325.38,-129.75"/>
<text xml:space="preserve" text-anchor="middle" x="299.75" y="-116.25" font-family="Helvetica,sans-Serif" font-size="10.00">memory</text>
</a>
</g>
</g>
<!-- Node6&#45;&gt;Node12 -->
<g id="edge19_Node000006_Node000012" class="edge">
<title>Node6&#45;&gt;Node12</title>
<g id="a_edge19_Node000006_Node000012"><a xlink:title=" ">
<path fill="none" stroke="#63b8ff" d="M299.75,-165.58C299.75,-159.07 299.75,-149.92 299.75,-141.62"/>
<polygon fill="#63b8ff" stroke="#63b8ff" points="303.25,-141.62 299.75,-131.62 296.25,-141.62 303.25,-141.62"/>
</a>
</g>
</g>
<!-- Node7&#45;&gt;Node3 -->
<g id="edge8_Node000007_Node000003" class="edge">
<title>Node7&#45;&gt;Node3</title>
<g id="a_edge8_Node000007_Node000003"><a xlink:title=" ">
<path fill="none" stroke="#63b8ff" d="M158.38,-54.84C148.7,-47.15 134.55,-35.9 122.94,-26.68"/>
<polygon fill="#63b8ff" stroke="#63b8ff" points="125.14,-23.95 115.13,-20.47 120.78,-29.43 125.14,-23.95"/>
</a>
</g>
</g>
<!-- Node7&#45;&gt;Node4 -->
<g id="edge9_Node000007_Node000004" class="edge">
<title>Node7&#45;&gt;Node4</title>
<g id="a_edge9_Node000007_Node000004"><a xlink:title=" ">
<path fill="none" stroke="#63b8ff" d="M181.62,-54.84C191.84,-47.07 206.82,-35.67 219.01,-26.4"/>
<polygon fill="#63b8ff" stroke="#63b8ff" points="221.01,-29.28 226.85,-20.44 216.77,-23.71 221.01,-29.28"/>
</a>
</g>
</g>
<!-- Node8&#45;&gt;Node4 -->
<g id="edge13_Node000008_Node000004" class="edge">
<title>Node8&#45;&gt;Node4</title>
<g id="a_edge13_Node000008_Node000004"><a xlink:title=" ">
<path fill="none" stroke="#63b8ff" d="M213.12,-110.25C217.75,-92.92 228.1,-54.23 234.44,-30.49"/>
<polygon fill="#63b8ff" stroke="#63b8ff" points="237.75,-31.65 236.95,-21.09 230.99,-29.85 237.75,-31.65"/>
</a>
</g>
</g>
<!-- Node8&#45;&gt;Node7 -->
<g id="edge11_Node000008_Node000007" class="edge">
<title>Node8&#45;&gt;Node7</title>
<g id="a_edge11_Node000008_Node000007"><a xlink:title=" ">
<path fill="none" stroke="#63b8ff" d="M203.98,-110.33C198.43,-103.13 190.41,-92.71 183.52,-83.76"/>
<polygon fill="#63b8ff" stroke="#63b8ff" points="186.46,-81.85 177.59,-76.06 180.92,-86.12 186.46,-81.85"/>
</a>
</g>
</g>
<!-- Node9 -->
<g id="Node000009" class="node">
<title>Node9</title>
<g id="a_Node000009"><a xlink:title=" ">
<polygon fill="#e0e0e0" stroke="#999999" points="378.25,-74.5 335.25,-74.5 335.25,-55.25 378.25,-55.25 378.25,-74.5"/>
<text xml:space="preserve" text-anchor="middle" x="356.75" y="-61" font-family="Helvetica,sans-Serif" font-size="10.00">vector</text>
</a>
</g>
</g>
<!-- Node8&#45;&gt;Node9 -->
<g id="edge12_Node000008_Node000009" class="edge">
<title>Node8&#45;&gt;Node9</title>
<g id="a_edge12_Node000008_Node000009"><a xlink:title=" ">
<path fill="none" stroke="#63b8ff" d="M235.52,-110.09C260.01,-101.16 297.6,-87.45 324.43,-77.66"/>
<polygon fill="#63b8ff" stroke="#63b8ff" points="325.58,-80.97 333.78,-74.25 323.18,-74.39 325.58,-80.97"/>
</a>
</g>
</g>
<!-- Node10&#45;&gt;Node4 -->
<g id="edge15_Node000010_Node000004" class="edge">
<title>Node10&#45;&gt;Node4</title>
<g id="a_edge15_Node000010_Node000004"><a xlink:title=" ">
<path fill="none" stroke="#63b8ff" d="M416.74,-55.08C376.24,-44.91 310.15,-28.31 271.22,-18.53"/>
<polygon fill="#63b8ff" stroke="#63b8ff" points="272.08,-15.14 261.53,-16.1 270.38,-21.93 272.08,-15.14"/>
</a>
</g>
</g>
<!-- Node11&#45;&gt;Node9 -->
<g id="edge18_Node000011_Node000009" class="edge">
<title>Node11&#45;&gt;Node9</title>
<g id="a_edge18_Node000011_Node000009"><a xlink:title=" ">
<path fill="none" stroke="#63b8ff" d="M398.49,-110.33C391.59,-102.98 381.53,-92.26 373.01,-83.19"/>
<polygon fill="#63b8ff" stroke="#63b8ff" points="375.62,-80.86 366.22,-75.96 370.52,-85.65 375.62,-80.86"/>
</a>
</g>
</g>
<!-- Node11&#45;&gt;Node10 -->
<g id="edge17_Node000011_Node000010" class="edge">
<title>Node11&#45;&gt;Node10</title>
<g id="a_edge17_Node000011_Node000010"><a xlink:title=" ">
<path fill="none" stroke="#63b8ff" d="M414.18,-110.33C420.33,-103.05 429.26,-92.48 436.88,-83.48"/>
<polygon fill="#63b8ff" stroke="#63b8ff" points="439.4,-85.91 443.18,-76.02 434.05,-81.39 439.4,-85.91"/>
</a>
</g>
</g>
</g>
</svg>
