<?xml version="1.0" encoding="UTF-8" standalone="no"?>
<!DOCTYPE svg PUBLIC "-//W3C//DTD SVG 1.1//EN"
 "http://www.w3.org/Graphics/SVG/1.1/DTD/svg11.dtd">
<!-- Generated by graphviz version 14.1.1 (20251213.1925)
 -->
<!-- Title: material.hpp Pages: 1 -->
<svg width="276pt" height="193pt"
 viewBox="0.00 0.00 276.00 193.00" xmlns="http://www.w3.org/2000/svg" xmlns:xlink="http://www.w3.org/1999/xlink">
<g id="graph0" class="graph" transform="scale(1 1) rotate(0) translate(4 189)">
<title>material.hpp</title>
<!-- Node1 -->
<g id="Node000001" class="node">
<title>Node1</title>
<g id="a_Node000001"><a xlink:title=" ">
<polygon fill="#999999" stroke="#666666" points="224.75,-185 155.5,-185 155.5,-165.75 224.75,-165.75 224.75,-185"/>
<text xml:space="preserve" text-anchor="middle" x="190.12" y="-171.5" font-family="Helvetica,sans-Serif" font-size="10.00">material.hpp</text>
</a>
</g>
</g>
<!-- Node2 -->
<g id="Node000002" class="node">
<title>Node2</title>
<g id="a_Node000002"><a xlink:href="heat__equation__solver_8hpp.html" target="_top" xlink:title="1D and 2D Heat Equation Solvers &#45; Implicit Finite Differences">
<polygon fill="white" stroke="#666666" points="162.25,-129.75 36,-129.75 36,-110.5 162.25,-110.5 162.25,-129.75"/>
<text xml:space="preserve" text-anchor="middle" x="99.12" y="-116.25" font-family="Helvetica,sans-Serif" font-size="10.00">heat_equation_solver.hpp</text>
</a>
</g>
</g>
<!-- Node1&#45;&gt;Node2 -->
<g id="edge1_Node000001_Node000002" class="edge">
<title>Node1&#45;&gt;Node2</title>
<g id="a_edge1_Node000001_Node000002"><a xlink:title=" ">
<path fill="none" stroke="#63b8ff" d="M164.83,-159.57C148.73,-150.15 128.39,-138.25 114.64,-130.2"/>
<polygon fill="#63b8ff" stroke="#63b8ff" points="162.98,-162.55 173.38,-164.58 166.52,-156.51 162.98,-162.55"/>
</a>
</g>
</g>
<!-- Node4 -->
<g id="Node000004" class="node">
<title>Node4</title>
<g id="a_Node000004"><a xlink:href="sdl__app_8hpp.html" target="_top" xlink:title="SDL2 application for heat equation visualization.">
<polygon fill="white" stroke="#666666" points="212.38,-74.5 143.88,-74.5 143.88,-55.25 212.38,-55.25 212.38,-74.5"/>
<text xml:space="preserve" text-anchor="middle" x="178.12" y="-61" font-family="Helvetica,sans-Serif" font-size="10.00">sdl_app.hpp</text>
</a>
</g>
</g>
<!-- Node1&#45;&gt;Node4 -->
<g id="edge7_Node000001_Node000004" class="edge">
<title>Node1&#45;&gt;Node4</title>
<g id="a_edge7_Node000001_Node000004"><a xlink:title=" ">
<path fill="none" stroke="#63b8ff" d="M187.91,-154.35C185.29,-130.65 181.04,-92.22 179.12,-74.88"/>
<polygon fill="#63b8ff" stroke="#63b8ff" points="184.4,-154.44 188.98,-163.99 191.36,-153.67 184.4,-154.44"/>
</a>
</g>
</g>
<!-- Node5 -->
<g id="Node000005" class="node">
<title>Node5</title>
<g id="a_Node000005"><a xlink:href="main_8cpp.html" target="_top" xlink:title="Console menu and SDL2 visualization launcher.">
<polygon fill="white" stroke="#666666" points="268,-19.25 212.25,-19.25 212.25,0 268,0 268,-19.25"/>
<text xml:space="preserve" text-anchor="middle" x="240.12" y="-5.75" font-family="Helvetica,sans-Serif" font-size="10.00">main.cpp</text>
</a>
</g>
</g>
<!-- Node1&#45;&gt;Node5 -->
<g id="edge6_Node000001_Node000005" class="edge">
<title>Node1&#45;&gt;Node5</title>
<g id="a_edge6_Node000001_Node000005"><a xlink:title=" ">
<path fill="none" stroke="#63b8ff" d="M196.39,-154.43C202.7,-134.29 212.69,-102.26 221.12,-74.5 227.05,-55.02 233.81,-32.13 237.45,-19.73"/>
<polygon fill="#63b8ff" stroke="#63b8ff" points="193.09,-153.26 193.44,-163.85 199.77,-155.36 193.09,-153.26"/>
</a>
</g>
</g>
<!-- Node3 -->
<g id="Node000003" class="node">
<title>Node3</title>
<g id="a_Node000003"><a xlink:href="heat__equation__solver_8cpp.html" target="_top" xlink:title="Implementation of 1D/2D heat equation solvers.">
<polygon fill="white" stroke="#666666" points="126.25,-74.5 0,-74.5 0,-55.25 126.25,-55.25 126.25,-74.5"/>
<text xml:space="preserve" text-anchor="middle" x="63.12" y="-61" font-family="Helvetica,sans-Serif" font-size="10.00">heat_equation_solver.cpp</text>
</a>
</g>
</g>
<!-- Node2&#45;&gt;Node3 -->
<g id="edge2_Node000002_Node000003" class="edge">
<title>Node2&#45;&gt;Node3</title>
<g id="a_edge2_Node000002_Node000003"><a xlink:title=" ">
<path fill="none" stroke="#63b8ff" d="M86.81,-100.9C80.86,-92.11 74,-81.96 69.2,-74.86"/>
<polygon fill="#63b8ff" stroke="#63b8ff" points="83.83,-102.75 92.33,-109.08 89.63,-98.83 83.83,-102.75"/>
</a>
</g>
</g>
<!-- Node2&#45;&gt;Node4 -->
<g id="edge3_Node000002_Node000004" class="edge">
<title>Node2&#45;&gt;Node4</title>
<g id="a_edge3_Node000002_Node000004"><a xlink:title=" ">
<path fill="none" stroke="#63b8ff" d="M121.89,-103.78C135.73,-94.45 152.95,-82.85 164.66,-74.95"/>
<polygon fill="#63b8ff" stroke="#63b8ff" points="120.12,-100.75 113.78,-109.25 124.03,-106.56 120.12,-100.75"/>
</a>
</g>
</g>
<!-- Node4&#45;&gt;Node5 -->
<g id="edge4_Node000004_Node000005" class="edge">
<title>Node4&#45;&gt;Node5</title>
<g id="a_edge4_Node000004_Node000005"><a xlink:title=" ">
<path fill="none" stroke="#63b8ff" d="M197.32,-47.39C208.03,-38.19 220.94,-27.1 229.76,-19.52"/>
<polygon fill="#63b8ff" stroke="#63b8ff" points="195.1,-44.69 189.79,-53.86 199.66,-50 195.1,-44.69"/>
</a>
</g>
</g>
<!-- Node6 -->
<g id="Node000006" class="node">
<title>Node6</title>
<g id="a_Node000006"><a xlink:href="sdl__app_8cpp.html" target="_top" xlink:title="SDL2 application implementation.">
<polygon fill="white" stroke="#666666" points="194.38,-19.25 125.88,-19.25 125.88,0 194.38,0 194.38,-19.25"/>
<text xml:space="preserve" text-anchor="middle" x="160.12" y="-5.75" font-family="Helvetica,sans-Serif" font-size="10.00">sdl_app.cpp</text>
</a>
</g>
</g>
<!-- Node4&#45;&gt;Node6 -->
<g id="edge5_Node000004_Node000006" class="edge">
<title>Node4&#45;&gt;Node6</title>
<g id="a_edge5_Node000004_Node000006"><a xlink:title=" ">
<path fill="none" stroke="#63b8ff" d="M171.48,-44.21C168.62,-35.77 165.43,-26.33 163.16,-19.61"/>
<polygon fill="#63b8ff" stroke="#63b8ff" points="168.15,-45.3 174.67,-53.65 174.78,-43.05 168.15,-45.3"/>
</a>
</g>
</g>
</g>
</svg>
