<?xml version="1.0" encoding="UTF-8" standalone="no"?>
<!DOCTYPE svg PUBLIC "-//W3C//DTD SVG 1.1//EN"
 "http://www.w3.org/Graphics/SVG/1.1/DTD/svg11.dtd">
<!-- Generated by graphviz version 14.1.1 (20251213.1925)
 -->
<!-- Title: sdl::draw_digit Pages: 1 -->
<svg width="580pt" height="306pt"
 viewBox="0.00 0.00 580.00 306.00" xmlns="http://www.w3.org/2000/svg" xmlns:xlink="http://www.w3.org/1999/xlink">
<g id="graph0" class="graph" transform="scale(1 1) rotate(0) translate(4 301.59)">
<title>sdl::draw_digit</title>
<!-- Node1 -->
<g id="Node000001" class="node">
<title>Node1</title>
<g id="a_Node000001"><a xlink:title=" ">
<polygon fill="#999999" stroke="#666666" points="571.75,-138.13 492.75,-138.13 492.75,-118.88 571.75,-118.88 571.75,-138.13"/>
<text xml:space="preserve" text-anchor="middle" x="532.25" y="-124.63" font-family="Helvetica,sans-Serif" font-size="10.00">sdl::draw_digit</text>
</a>
</g>
</g>
<!-- Node2 -->
<g id="Node000002" class="node">
<title>Node2</title>
<g id="a_Node000002"><a xlink:href="classsdl_1_1_s_d_l_heatmap.html#a0b9fb36b9fafa26b4ba4725b8d985cd9" target="_top" xlink:title=" ">
<polygon fill="white" stroke="#666666" points="445.88,-119.75 324.88,-119.75 324.88,-89.25 445.88,-89.25 445.88,-119.75"/>
<text xml:space="preserve" text-anchor="start" x="332.88" y="-106.25" font-family="Helvetica,sans-Serif" font-size="10.00">sdl::SDLHeatmap::draw</text>
<text xml:space="preserve" text-anchor="middle" x="385.38" y="-95" font-family="Helvetica,sans-Serif" font-size="10.00">_number</text>
</a>
</g>
</g>
<!-- Node1&#45;&gt;Node2 -->
<g id="edge1_Node000001_Node000002" class="edge">
<title>Node1&#45;&gt;Node2</title>
<g id="a_edge1_Node000001_Node000002"><a xlink:title=" ">
<path fill="none" stroke="#63b8ff" d="M481.08,-120.19C469.87,-118.33 457.88,-116.35 446.32,-114.43"/>
<polygon fill="#63b8ff" stroke="#63b8ff" points="480.5,-123.64 490.93,-121.82 481.64,-116.73 480.5,-123.64"/>
</a>
</g>
</g>
<!-- Node8 -->
<g id="Node000008" class="node">
<title>Node8</title>
<g id="a_Node000008"><a xlink:href="classsdl_1_1_s_d_l_heatmap.html#ac4eb50b210494fc3432db40a0071ceed" target="_top" xlink:title=" ">
<polygon fill="white" stroke="#666666" points="456.75,-205.13 314,-205.13 314,-185.88 456.75,-185.88 456.75,-205.13"/>
<text xml:space="preserve" text-anchor="middle" x="385.38" y="-191.63" font-family="Helvetica,sans-Serif" font-size="10.00">sdl::SDLHeatmap::draw_text</text>
</a>
</g>
</g>
<!-- Node1&#45;&gt;Node8 -->
<g id="edge9_Node000001_Node000008" class="edge">
<title>Node1&#45;&gt;Node8</title>
<g id="a_edge9_Node000001_Node000008"><a xlink:title=" ">
<path fill="none" stroke="#63b8ff" d="M499.22,-143.31C471.58,-156.1 432.39,-174.22 408.21,-185.4"/>
<polygon fill="#63b8ff" stroke="#63b8ff" points="500.58,-146.54 508.19,-139.17 497.64,-140.19 500.58,-146.54"/>
</a>
</g>
</g>
<!-- Node3 -->
<g id="Node000003" class="node">
<title>Node3</title>
<g id="a_Node000003"><a xlink:href="classsdl_1_1_s_d_l_heatmap.html#aeb321d70a2b70a27bab7bbecb1b1216b" target="_top" xlink:title=" ">
<polygon fill="white" stroke="#666666" points="278,-140.75 157,-140.75 157,-110.25 278,-110.25 278,-140.75"/>
<text xml:space="preserve" text-anchor="start" x="165" y="-127.25" font-family="Helvetica,sans-Serif" font-size="10.00">sdl::SDLHeatmap::draw</text>
<text xml:space="preserve" text-anchor="middle" x="217.5" y="-116" font-family="Helvetica,sans-Serif" font-size="10.00">_1d_cell</text>
</a>
</g>
</g>
<!-- Node2&#45;&gt;Node3 -->
<g id="edge2_Node000002_Node000003" class="edge">
<title>Node2&#45;&gt;Node3</title>
<g id="a_edge2_Node000002_Node000003"><a xlink:title=" ">
<path fill="none" stroke="#63b8ff" d="M313.41,-113.48C301.71,-114.97 289.69,-116.49 278.3,-117.93"/>
<polygon fill="#63b8ff" stroke="#63b8ff" points="313.51,-117 322.99,-112.27 312.63,-110.06 313.51,-117"/>
</a>
</g>
</g>
<!-- Node4 -->
<g id="Node000004" class="node">
<title>Node4</title>
<g id="a_Node000004"><a xlink:href="classsdl_1_1_s_d_l_heatmap.html#afc7885cf33b3281b986e3012a277160b" target="_top" xlink:title=" ">
<polygon fill="white" stroke="#666666" points="121,-140.75 0,-140.75 0,-110.25 121,-110.25 121,-140.75"/>
<text xml:space="preserve" text-anchor="start" x="8" y="-127.25" font-family="Helvetica,sans-Serif" font-size="10.00">sdl::SDLHeatmap::draw</text>
<text xml:space="preserve" text-anchor="middle" x="60.5" y="-116" font-family="Helvetica,sans-Serif" font-size="10.00">_1d_fullscreen</text>
</a>
</g>
</g>
<!-- Node2&#45;&gt;Node4 -->
<g id="edge3_Node000002_Node000004" class="edge">
<title>Node2&#45;&gt;Node4</title>
<g id="a_edge3_Node000002_Node000004"><a xlink:title=" ">
<path fill="none" stroke="#63b8ff" d="M364.69,-80.42C345.27,-58.74 313.41,-28.36 278,-15.5 227.45,2.86 205.93,6.82 157,-15.5 113.97,-35.13 82.85,-84.77 69.2,-110.11"/>
<polygon fill="#63b8ff" stroke="#63b8ff" points="361.79,-82.43 370.99,-87.68 367.08,-77.84 361.79,-82.43"/>
</a>
</g>
</g>
<!-- Node5 -->
<g id="Node000005" class="node">
<title>Node5</title>
<g id="a_Node000005"><a xlink:href="classsdl_1_1_s_d_l_heatmap.html#a4f0cc9ea87a260bc10ebfc6b2c9fd6bf" target="_top" xlink:title=" ">
<polygon fill="white" stroke="#666666" points="278,-189.75 157,-189.75 157,-159.25 278,-159.25 278,-189.75"/>
<text xml:space="preserve" text-anchor="start" x="165" y="-176.25" font-family="Helvetica,sans-Serif" font-size="10.00">sdl::SDLHeatmap::draw</text>
<text xml:space="preserve" text-anchor="middle" x="217.5" y="-165" font-family="Helvetica,sans-Serif" font-size="10.00">_2d_cell</text>
</a>
</g>
</g>
<!-- Node2&#45;&gt;Node5 -->
<g id="edge4_Node000002_Node000005" class="edge">
<title>Node2&#45;&gt;Node5</title>
<g id="a_edge4_Node000002_Node000005"><a xlink:title=" ">
<path fill="none" stroke="#63b8ff" d="M336.99,-124.58C318.58,-132.37 297.31,-141.36 278,-149.5 270.88,-152.5 263.27,-155.7 255.96,-158.78"/>
<polygon fill="#63b8ff" stroke="#63b8ff" points="338.22,-127.85 346.07,-120.73 335.49,-121.41 338.22,-127.85"/>
</a>
</g>
</g>
<!-- Node6 -->
<g id="Node000006" class="node">
<title>Node6</title>
<g id="a_Node000006"><a xlink:href="classsdl_1_1_s_d_l_heatmap.html#ae17c83b550b2baac23518b89c6512611" target="_top" xlink:title=" ">
<polygon fill="white" stroke="#666666" points="121,-232.75 0,-232.75 0,-202.25 121,-202.25 121,-232.75"/>
<text xml:space="preserve" text-anchor="start" x="8" y="-219.25" font-family="Helvetica,sans-Serif" font-size="10.00">sdl::SDLHeatmap::draw</text>
<text xml:space="preserve" text-anchor="middle" x="60.5" y="-208" font-family="Helvetica,sans-Serif" font-size="10.00">_2d_fullscreen</text>
</a>
</g>
</g>
<!-- Node2&#45;&gt;Node6 -->
<g id="edge5_Node000002_Node000006" class="edge">
<title>Node2&#45;&gt;Node6</title>
<g id="a_edge5_Node000002_Node000006"><a xlink:title=" ">
<path fill="none" stroke="#63b8ff" d="M313.26,-87.36C266.43,-79.85 205.12,-77.44 157,-101.5 133.15,-113.43 137.79,-128.78 121,-149.5 106.08,-167.9 88.06,-188.25 75.79,-201.85"/>
<polygon fill="#63b8ff" stroke="#63b8ff" points="312.59,-90.79 323.04,-89.05 313.78,-83.9 312.59,-90.79"/>
</a>
</g>
</g>
<!-- Node7 -->
<g id="Node000007" class="node">
<title>Node7</title>
<g id="a_Node000007"><a xlink:href="classsdl_1_1_s_d_l_heatmap.html#a9eccaaefe82bc20e222c36d6b93e80af" target="_top" xlink:title=" ">
<polygon fill="white" stroke="#666666" points="278,-54.75 157,-54.75 157,-24.25 278,-24.25 278,-54.75"/>
<text xml:space="preserve" text-anchor="start" x="165" y="-41.25" font-family="Helvetica,sans-Serif" font-size="10.00">sdl::SDLHeatmap::draw</text>
<text xml:space="preserve" text-anchor="middle" x="217.5" y="-30" font-family="Helvetica,sans-Serif" font-size="10.00">_colorbar</text>
</a>
</g>
</g>
<!-- Node2&#45;&gt;Node7 -->
<g id="edge6_Node000002_Node000007" class="edge">
<title>Node2&#45;&gt;Node7</title>
<g id="a_edge6_Node000002_Node000007"><a xlink:title=" ">
<path fill="none" stroke="#63b8ff" d="M333.82,-84.69C309.68,-75.23 281.19,-64.07 258.57,-55.2"/>
<polygon fill="#63b8ff" stroke="#63b8ff" points="332.22,-87.82 342.81,-88.21 334.78,-81.31 332.22,-87.82"/>
</a>
</g>
</g>
<!-- Node7&#45;&gt;Node4 -->
<g id="edge7_Node000007_Node000004" class="edge">
<title>Node7&#45;&gt;Node4</title>
<g id="a_edge7_Node000007_Node000004"><a xlink:title=" ">
<path fill="none" stroke="#63b8ff" d="M172.93,-60.21C167.53,-62.93 162.11,-65.73 157,-68.5 132.54,-81.73 105.38,-98.11 86.3,-109.91"/>
<polygon fill="#63b8ff" stroke="#63b8ff" points="174.44,-63.37 181.85,-55.79 171.33,-57.09 174.44,-63.37"/>
</a>
</g>
</g>
<!-- Node7&#45;&gt;Node6 -->
<g id="edge8_Node000007_Node000006" class="edge">
<title>Node7&#45;&gt;Node6</title>
<g id="a_edge8_Node000007_Node000006"><a xlink:title=" ">
<path fill="none" stroke="#63b8ff" d="M165,-61.49C162.14,-63.64 159.44,-65.98 157,-68.5 129.64,-96.84 142.21,-116.3 121,-149.5 108.5,-169.06 90.57,-188.74 77.66,-201.85"/>
<polygon fill="#63b8ff" stroke="#63b8ff" points="166.89,-64.44 173.34,-56.04 163.06,-58.58 166.89,-64.44"/>
</a>
</g>
</g>
<!-- Node8&#45;&gt;Node3 -->
<g id="edge10_Node000008_Node000003" class="edge">
<title>Node8&#45;&gt;Node3</title>
<g id="a_edge10_Node000008_Node000003"><a xlink:title=" ">
<path fill="none" stroke="#63b8ff" d="M350.15,-181C329.3,-172.17 302.12,-160.67 278,-150.5 270.88,-147.5 263.27,-144.3 255.96,-141.22"/>
<polygon fill="#63b8ff" stroke="#63b8ff" points="348.76,-184.21 359.33,-184.88 351.49,-177.76 348.76,-184.21"/>
</a>
</g>
</g>
<!-- Node8&#45;&gt;Node4 -->
<g id="edge11_Node000008_Node000004" class="edge">
<title>Node8&#45;&gt;Node4</title>
<g id="a_edge11_Node000008_Node000004"><a xlink:title=" ">
<path fill="none" stroke="#63b8ff" d="M322.48,-207.23C275.75,-213.51 210.72,-216.68 157,-198.5 123.59,-187.19 92.67,-159 75.52,-141.15"/>
<polygon fill="#63b8ff" stroke="#63b8ff" points="322.75,-210.73 332.15,-205.84 321.75,-203.8 322.75,-210.73"/>
</a>
</g>
</g>
<!-- Node8&#45;&gt;Node5 -->
<g id="edge12_Node000008_Node000005" class="edge">
<title>Node8&#45;&gt;Node5</title>
<g id="a_edge12_Node000008_Node000005"><a xlink:title=" ">
<path fill="none" stroke="#63b8ff" d="M302.22,-185.1C294.19,-184.08 286.14,-183.06 278.39,-182.08"/>
<polygon fill="#63b8ff" stroke="#63b8ff" points="301.69,-188.56 312.05,-186.34 302.57,-181.61 301.69,-188.56"/>
</a>
</g>
</g>
<!-- Node8&#45;&gt;Node6 -->
<g id="edge13_Node000008_Node000006" class="edge">
<title>Node8&#45;&gt;Node6</title>
<g id="a_edge13_Node000008_Node000006"><a xlink:title=" ">
<path fill="none" stroke="#63b8ff" d="M369.41,-214.21C350.71,-235.92 316.45,-270.54 278,-284.5 227.45,-302.86 208.28,-300.69 157,-284.5 125.13,-274.44 94.67,-249.51 77.04,-233.06"/>
<polygon fill="#63b8ff" stroke="#63b8ff" points="371.96,-216.6 375.68,-206.68 366.59,-212.12 371.96,-216.6"/>
</a>
</g>
</g>
<!-- Node9 -->
<g id="Node000009" class="node">
<title>Node9</title>
<g id="a_Node000009"><a xlink:href="classsdl_1_1_s_d_l_heatmap.html#afb950bdd4b18f9356775188a8af3b56a" target="_top" xlink:title=" ">
<polygon fill="white" stroke="#666666" points="278,-275.75 157,-275.75 157,-245.25 278,-245.25 278,-275.75"/>
<text xml:space="preserve" text-anchor="start" x="165" y="-262.25" font-family="Helvetica,sans-Serif" font-size="10.00">sdl::SDLHeatmap::draw</text>
<text xml:space="preserve" text-anchor="middle" x="217.5" y="-251" font-family="Helvetica,sans-Serif" font-size="10.00">_info_panel</text>
</a>
</g>
</g>
<!-- Node8&#45;&gt;Node9 -->
<g id="edge14_Node000008_Node000009" class="edge">
<title>Node8&#45;&gt;Node9</title>
<g id="a_edge14_Node000008_Node000009"><a xlink:title=" ">
<path fill="none" stroke="#63b8ff" d="M348.12,-209.71C321.7,-220.06 285.9,-234.09 258.62,-244.78"/>
<polygon fill="#63b8ff" stroke="#63b8ff" points="349.38,-212.97 357.41,-206.07 346.82,-206.46 349.38,-212.97"/>
</a>
</g>
</g>
<!-- Node9&#45;&gt;Node4 -->
<g id="edge15_Node000009_Node000004" class="edge">
<title>Node9&#45;&gt;Node4</title>
<g id="a_edge15_Node000009_Node000004"><a xlink:title=" ">
<path fill="none" stroke="#63b8ff" d="M168.9,-239.4C164.75,-236.94 160.72,-234.3 157,-231.5 147.55,-224.38 99.04,-168.88 75.02,-141.15"/>
<polygon fill="#63b8ff" stroke="#63b8ff" points="166.94,-242.32 177.39,-244.08 170.32,-236.19 166.94,-242.32"/>
</a>
</g>
</g>
<!-- Node9&#45;&gt;Node6 -->
<g id="edge16_Node000009_Node000006" class="edge">
<title>Node9&#45;&gt;Node6</title>
<g id="a_edge16_Node000009_Node000006"><a xlink:title=" ">
<path fill="none" stroke="#63b8ff" d="M149.04,-241.79C138.72,-238.92 128.17,-235.99 118.11,-233.21"/>
<polygon fill="#63b8ff" stroke="#63b8ff" points="148.07,-245.15 158.64,-244.45 149.94,-238.4 148.07,-245.15"/>
</a>
</g>
</g>
</g>
</svg>
