<?xml version="1.0" encoding="UTF-8" standalone="no"?>
<!DOCTYPE svg PUBLIC "-//W3C//DTD SVG 1.1//EN"
 "http://www.w3.org/Graphics/SVG/1.1/DTD/svg11.dtd">
<!-- Generated by graphviz version 14.1.1 (20251213.1925)
 -->
<!-- Title: sdl::draw_letter Pages: 1 -->
<svg width="584pt" height="196pt"
 viewBox="0.00 0.00 584.00 196.00" xmlns="http://www.w3.org/2000/svg" xmlns:xlink="http://www.w3.org/1999/xlink">
<g id="graph0" class="graph" transform="scale(1 1) rotate(0) translate(4 191.5)">
<title>sdl::draw_letter</title>
<!-- Node1 -->
<g id="Node000001" class="node">
<title>Node1</title>
<g id="a_Node000001"><a xlink:title=" ">
<polygon fill="#999999" stroke="#666666" points="575.5,-95.88 492.75,-95.88 492.75,-76.62 575.5,-76.62 575.5,-95.88"/>
<text xml:space="preserve" text-anchor="middle" x="534.12" y="-82.38" font-family="Helvetica,sans-Serif" font-size="10.00">sdl::draw_letter</text>
</a>
</g>
</g>
<!-- Node2 -->
<g id="Node000002" class="node">
<title>Node2</title>
<g id="a_Node000002"><a xlink:href="classsdl_1_1_s_d_l_heatmap.html#ac4eb50b210494fc3432db40a0071ceed" target="_top" xlink:title=" ">
<polygon fill="white" stroke="#666666" points="456.75,-95.88 314,-95.88 314,-76.62 456.75,-76.62 456.75,-95.88"/>
<text xml:space="preserve" text-anchor="middle" x="385.38" y="-82.38" font-family="Helvetica,sans-Serif" font-size="10.00">sdl::SDLHeatmap::draw_text</text>
</a>
</g>
</g>
<!-- Node1&#45;&gt;Node2 -->
<g id="edge1_Node000001_Node000002" class="edge">
<title>Node1&#45;&gt;Node2</title>
<g id="a_edge1_Node000001_Node000002"><a xlink:title=" ">
<path fill="none" stroke="#63b8ff" d="M481.15,-86.25C473.37,-86.25 465.24,-86.25 457.15,-86.25"/>
<polygon fill="#63b8ff" stroke="#63b8ff" points="481.12,-89.75 491.12,-86.25 481.12,-82.75 481.12,-89.75"/>
</a>
</g>
</g>
<!-- Node3 -->
<g id="Node000003" class="node">
<title>Node3</title>
<g id="a_Node000003"><a xlink:href="classsdl_1_1_s_d_l_heatmap.html#aeb321d70a2b70a27bab7bbecb1b1216b" target="_top" xlink:title=" ">
<polygon fill="white" stroke="#666666" points="278,-187.5 157,-187.5 157,-157 278,-157 278,-187.5"/>
<text xml:space="preserve" text-anchor="start" x="165" y="-174" font-family="Helvetica,sans-Serif" font-size="10.00">sdl::SDLHeatmap::draw</text>
<text xml:space="preserve" text-anchor="middle" x="217.5" y="-162.75" font-family="Helvetica,sans-Serif" font-size="10.00">_1d_cell</text>
</a>
</g>
</g>
<!-- Node2&#45;&gt;Node3 -->
<g id="edge2_Node000002_Node000003" class="edge">
<title>Node2&#45;&gt;Node3</title>
<g id="a_edge2_Node000002_Node000003"><a xlink:title=" ">
<path fill="none" stroke="#63b8ff" d="M356.03,-101.82C334.68,-113.45 304.65,-129.62 278,-143.25 269.41,-147.64 260.05,-152.28 251.35,-156.52"/>
<polygon fill="#63b8ff" stroke="#63b8ff" points="357.61,-104.94 364.71,-97.08 354.26,-98.8 357.61,-104.94"/>
</a>
</g>
</g>
<!-- Node4 -->
<g id="Node000004" class="node">
<title>Node4</title>
<g id="a_Node000004"><a xlink:href="classsdl_1_1_s_d_l_heatmap.html#afc7885cf33b3281b986e3012a277160b" target="_top" xlink:title=" ">
<polygon fill="white" stroke="#666666" points="121,-111.5 0,-111.5 0,-81 121,-81 121,-111.5"/>
<text xml:space="preserve" text-anchor="start" x="8" y="-98" font-family="Helvetica,sans-Serif" font-size="10.00">sdl::SDLHeatmap::draw</text>
<text xml:space="preserve" text-anchor="middle" x="60.5" y="-86.75" font-family="Helvetica,sans-Serif" font-size="10.00">_1d_fullscreen</text>
</a>
</g>
</g>
<!-- Node2&#45;&gt;Node4 -->
<g id="edge3_Node000002_Node000004" class="edge">
<title>Node2&#45;&gt;Node4</title>
<g id="a_edge3_Node000002_Node000004"><a xlink:title=" ">
<path fill="none" stroke="#63b8ff" d="M337.72,-99.13C319.27,-103.6 297.79,-108.05 278,-110.25 224.55,-116.2 210.64,-114.16 157,-110.25 145.47,-109.41 133.22,-108 121.47,-106.4"/>
<polygon fill="#63b8ff" stroke="#63b8ff" points="338.45,-102.56 347.3,-96.73 336.75,-95.76 338.45,-102.56"/>
</a>
</g>
</g>
<!-- Node5 -->
<g id="Node000005" class="node">
<title>Node5</title>
<g id="a_Node000005"><a xlink:href="classsdl_1_1_s_d_l_heatmap.html#a4f0cc9ea87a260bc10ebfc6b2c9fd6bf" target="_top" xlink:title=" ">
<polygon fill="white" stroke="#666666" points="278,-101.5 157,-101.5 157,-71 278,-71 278,-101.5"/>
<text xml:space="preserve" text-anchor="start" x="165" y="-88" font-family="Helvetica,sans-Serif" font-size="10.00">sdl::SDLHeatmap::draw</text>
<text xml:space="preserve" text-anchor="middle" x="217.5" y="-76.75" font-family="Helvetica,sans-Serif" font-size="10.00">_2d_cell</text>
</a>
</g>
</g>
<!-- Node2&#45;&gt;Node5 -->
<g id="edge4_Node000002_Node000005" class="edge">
<title>Node2&#45;&gt;Node5</title>
<g id="a_edge4_Node000002_Node000005"><a xlink:title=" ">
<path fill="none" stroke="#63b8ff" d="M302.22,-86.25C294.19,-86.25 286.14,-86.25 278.39,-86.25"/>
<polygon fill="#63b8ff" stroke="#63b8ff" points="302.03,-89.75 312.03,-86.25 302.03,-82.75 302.03,-89.75"/>
</a>
</g>
</g>
<!-- Node6 -->
<g id="Node000006" class="node">
<title>Node6</title>
<g id="a_Node000006"><a xlink:href="classsdl_1_1_s_d_l_heatmap.html#ae17c83b550b2baac23518b89c6512611" target="_top" xlink:title=" ">
<polygon fill="white" stroke="#666666" points="121,-30.5 0,-30.5 0,0 121,0 121,-30.5"/>
<text xml:space="preserve" text-anchor="start" x="8" y="-17" font-family="Helvetica,sans-Serif" font-size="10.00">sdl::SDLHeatmap::draw</text>
<text xml:space="preserve" text-anchor="middle" x="60.5" y="-5.75" font-family="Helvetica,sans-Serif" font-size="10.00">_2d_fullscreen</text>
</a>
</g>
</g>
<!-- Node2&#45;&gt;Node6 -->
<g id="edge5_Node000002_Node000006" class="edge">
<title>Node2&#45;&gt;Node6</title>
<g id="a_edge5_Node000002_Node000006"><a xlink:title=" ">
<path fill="none" stroke="#63b8ff" d="M366.01,-68.4C346.17,-50.47 312.72,-24.02 278,-13.25 226.84,2.62 165.55,0.2 121.27,-5.06"/>
<polygon fill="#63b8ff" stroke="#63b8ff" points="363.55,-70.89 373.25,-75.14 368.32,-65.77 363.55,-70.89"/>
</a>
</g>
</g>
<!-- Node7 -->
<g id="Node000007" class="node">
<title>Node7</title>
<g id="a_Node000007"><a xlink:href="classsdl_1_1_s_d_l_heatmap.html#afb950bdd4b18f9356775188a8af3b56a" target="_top" xlink:title=" ">
<polygon fill="white" stroke="#666666" points="278,-52.5 157,-52.5 157,-22 278,-22 278,-52.5"/>
<text xml:space="preserve" text-anchor="start" x="165" y="-39" font-family="Helvetica,sans-Serif" font-size="10.00">sdl::SDLHeatmap::draw</text>
<text xml:space="preserve" text-anchor="middle" x="217.5" y="-27.75" font-family="Helvetica,sans-Serif" font-size="10.00">_info_panel</text>
</a>
</g>
</g>
<!-- Node2&#45;&gt;Node7 -->
<g id="edge6_Node000002_Node000007" class="edge">
<title>Node2&#45;&gt;Node7</title>
<g id="a_edge6_Node000002_Node000007"><a xlink:title=" ">
<path fill="none" stroke="#63b8ff" d="M339.57,-73.01C318.64,-66.83 293.57,-59.43 271.69,-52.96"/>
<polygon fill="#63b8ff" stroke="#63b8ff" points="338.37,-76.31 348.96,-75.79 340.36,-69.6 338.37,-76.31"/>
</a>
</g>
</g>
<!-- Node7&#45;&gt;Node4 -->
<g id="edge7_Node000007_Node000004" class="edge">
<title>Node7&#45;&gt;Node4</title>
<g id="a_edge7_Node000007_Node000004"><a xlink:title=" ">
<path fill="none" stroke="#63b8ff" d="M164.79,-56.93C144.64,-64.6 121.85,-73.28 102.82,-80.52"/>
<polygon fill="#63b8ff" stroke="#63b8ff" points="165.85,-60.27 173.96,-53.44 163.36,-53.73 165.85,-60.27"/>
</a>
</g>
</g>
<!-- Node7&#45;&gt;Node6 -->
<g id="edge8_Node000007_Node000006" class="edge">
<title>Node7&#45;&gt;Node6</title>
<g id="a_edge8_Node000007_Node000006"><a xlink:title=" ">
<path fill="none" stroke="#63b8ff" d="M145.31,-27.15C137.27,-26 129.14,-24.85 121.27,-23.73"/>
<polygon fill="#63b8ff" stroke="#63b8ff" points="144.68,-30.59 155.07,-28.53 145.67,-23.66 144.68,-30.59"/>
</a>
</g>
</g>
</g>
</svg>
