<?xml version="1.0" encoding="UTF-8" standalone="no"?>
<!DOCTYPE svg PUBLIC "-//W3C//DTD SVG 1.1//EN"
 "http://www.w3.org/Graphics/SVG/1.1/DTD/svg11.dtd">
<!-- Generated by graphviz version 14.1.1 (20251213.1925)
 -->
<!-- Title: sdl::draw_digit Pages: 1 -->
<svg width="580pt" height="303pt"
 viewBox="0.00 0.00 580.00 303.00" xmlns="http://www.w3.org/2000/svg" xmlns:xlink="http://www.w3.org/1999/xlink">
<g id="graph0" class="graph" transform="scale(1 1) rotate(0) translate(4 298.63)">
<title>sdl::draw_digit</title>
<!-- Node1 -->
<g id="Node000001" class="node">
<title>Node1</title>
<g id="a_Node000001"><a xlink:title=" ">
<polygon fill="#999999" stroke="#666666" points="571.75,-132.33 492.75,-132.33 492.75,-113.08 571.75,-113.08 571.75,-132.33"/>
<text xml:space="preserve" text-anchor="middle" x="532.25" y="-118.83" font-family="Helvetica,sans-Serif" font-size="10.00">sdl::draw_digit</text>
</a>
</g>
</g>
<!-- Node2 -->
<g id="Node000002" class="node">
<title>Node2</title>
<g id="a_Node000002"><a xlink:href="classsdl_1_1_s_d_l_heatmap.html#a0b9fb36b9fafa26b4ba4725b8d985cd9" target="_top" xlink:title=" ">
<polygon fill="white" stroke="#666666" points="445.88,-113.96 324.88,-113.96 324.88,-83.46 445.88,-83.46 445.88,-113.96"/>
<text xml:space="preserve" text-anchor="start" x="332.88" y="-100.46" font-family="Helvetica,sans-Serif" font-size="10.00">sdl::SDLHeatmap::draw</text>
<text xml:space="preserve" text-anchor="middle" x="385.38" y="-89.21" font-family="Helvetica,sans-Serif" font-size="10.00">_number</text>
</a>
</g>
</g>
<!-- Node1&#45;&gt;Node2 -->
<g id="edge1_Node000001_Node000002" class="edge">
<title>Node1&#45;&gt;Node2</title>
<g id="a_edge1_Node000001_Node000002"><a xlink:title=" ">
<path fill="none" stroke="#63b8ff" d="M481.08,-114.4C469.87,-112.54 457.88,-110.55 446.32,-108.64"/>
<polygon fill="#63b8ff" stroke="#63b8ff" points="480.5,-117.85 490.93,-116.03 481.64,-110.94 480.5,-117.85"/>
</a>
</g>
</g>
<!-- Node8 -->
<g id="Node000008" class="node">
<title>Node8</title>
<g id="a_Node000008"><a xlink:href="classsdl_1_1_s_d_l_heatmap.html#ac4eb50b210494fc3432db40a0071ceed" target="_top" xlink:title=" ">
<polygon fill="white" stroke="#666666" points="456.75,-181.33 314,-181.33 314,-162.08 456.75,-162.08 456.75,-181.33"/>
<text xml:space="preserve" text-anchor="middle" x="385.38" y="-167.83" font-family="Helvetica,sans-Serif" font-size="10.00">sdl::SDLHeatmap::draw_text</text>
</a>
</g>
</g>
<!-- Node1&#45;&gt;Node8 -->
<g id="edge9_Node000001_Node000008" class="edge">
<title>Node1&#45;&gt;Node8</title>
<g id="a_edge9_Node000001_Node000008"><a xlink:title=" ">
<path fill="none" stroke="#63b8ff" d="M490.79,-136.39C467.05,-144.42 437.58,-154.39 416,-161.69"/>
<polygon fill="#63b8ff" stroke="#63b8ff" points="491.8,-139.75 500.15,-133.23 489.55,-133.12 491.8,-139.75"/>
</a>
</g>
</g>
<!-- Node3 -->
<g id="Node000003" class="node">
<title>Node3</title>
<g id="a_Node000003"><a xlink:href="classsdl_1_1_s_d_l_heatmap.html#aeb321d70a2b70a27bab7bbecb1b1216b" target="_top" xlink:title=" ">
<polygon fill="white" stroke="#666666" points="278,-88.96 157,-88.96 157,-58.46 278,-58.46 278,-88.96"/>
<text xml:space="preserve" text-anchor="start" x="165" y="-75.46" font-family="Helvetica,sans-Serif" font-size="10.00">sdl::SDLHeatmap::draw</text>
<text xml:space="preserve" text-anchor="middle" x="217.5" y="-64.21" font-family="Helvetica,sans-Serif" font-size="10.00">_1d_cell</text>
</a>
</g>
</g>
<!-- Node2&#45;&gt;Node3 -->
<g id="edge2_Node000002_Node000003" class="edge">
<title>Node2&#45;&gt;Node3</title>
<g id="a_edge2_Node000002_Node000003"><a xlink:title=" ">
<path fill="none" stroke="#63b8ff" d="M313.41,-88.01C301.71,-86.25 289.69,-84.44 278.3,-82.72"/>
<polygon fill="#63b8ff" stroke="#63b8ff" points="312.58,-91.43 322.99,-89.46 313.63,-84.51 312.58,-91.43"/>
</a>
</g>
</g>
<!-- Node4 -->
<g id="Node000004" class="node">
<title>Node4</title>
<g id="a_Node000004"><a xlink:href="classsdl_1_1_s_d_l_heatmap.html#afc7885cf33b3281b986e3012a277160b" target="_top" xlink:title=" ">
<polygon fill="white" stroke="#666666" points="121,-250.96 0,-250.96 0,-220.46 121,-220.46 121,-250.96"/>
<text xml:space="preserve" text-anchor="start" x="8" y="-237.46" font-family="Helvetica,sans-Serif" font-size="10.00">sdl::SDLHeatmap::draw</text>
<text xml:space="preserve" text-anchor="middle" x="60.5" y="-226.21" font-family="Helvetica,sans-Serif" font-size="10.00">_1d_fullscreen</text>
</a>
</g>
</g>
<!-- Node2&#45;&gt;Node4 -->
<g id="edge3_Node000002_Node000004" class="edge">
<title>Node2&#45;&gt;Node4</title>
<g id="a_edge3_Node000002_Node000004"><a xlink:title=" ">
<path fill="none" stroke="#63b8ff" d="M352.23,-77.08C304.62,-48.02 214.8,-4.89 157,-49.71 106.23,-89.08 156.33,-136.04 121,-189.71 112.96,-201.92 100.57,-212.25 89.17,-220.01"/>
<polygon fill="#63b8ff" stroke="#63b8ff" points="350.11,-79.88 360.44,-82.23 353.82,-73.95 350.11,-79.88"/>
</a>
</g>
</g>
<!-- Node5 -->
<g id="Node000005" class="node">
<title>Node5</title>
<g id="a_Node000005"><a xlink:href="classsdl_1_1_s_d_l_heatmap.html#a4f0cc9ea87a260bc10ebfc6b2c9fd6bf" target="_top" xlink:title=" ">
<polygon fill="white" stroke="#666666" points="278,-186.96 157,-186.96 157,-156.46 278,-156.46 278,-186.96"/>
<text xml:space="preserve" text-anchor="start" x="165" y="-173.46" font-family="Helvetica,sans-Serif" font-size="10.00">sdl::SDLHeatmap::draw</text>
<text xml:space="preserve" text-anchor="middle" x="217.5" y="-162.21" font-family="Helvetica,sans-Serif" font-size="10.00">_2d_cell</text>
</a>
</g>
</g>
<!-- Node2&#45;&gt;Node5 -->
<g id="edge4_Node000002_Node000005" class="edge">
<title>Node2&#45;&gt;Node5</title>
<g id="a_edge4_Node000002_Node000005"><a xlink:title=" ">
<path fill="none" stroke="#63b8ff" d="M339.99,-119.05C320.95,-127.69 298.44,-137.81 278,-146.71 271.01,-149.75 263.54,-152.94 256.33,-155.99"/>
<polygon fill="#63b8ff" stroke="#63b8ff" points="341.43,-122.24 349.08,-114.91 338.53,-115.87 341.43,-122.24"/>
</a>
</g>
</g>
<!-- Node6 -->
<g id="Node000006" class="node">
<title>Node6</title>
<g id="a_Node000006"><a xlink:href="classsdl_1_1_s_d_l_heatmap.html#ae17c83b550b2baac23518b89c6512611" target="_top" xlink:title=" ">
<polygon fill="white" stroke="#666666" points="121,-180.96 0,-180.96 0,-150.46 121,-150.46 121,-180.96"/>
<text xml:space="preserve" text-anchor="start" x="8" y="-167.46" font-family="Helvetica,sans-Serif" font-size="10.00">sdl::SDLHeatmap::draw</text>
<text xml:space="preserve" text-anchor="middle" x="60.5" y="-156.21" font-family="Helvetica,sans-Serif" font-size="10.00">_2d_fullscreen</text>
</a>
</g>
</g>
<!-- Node2&#45;&gt;Node6 -->
<g id="edge5_Node000002_Node000006" class="edge">
<title>Node2&#45;&gt;Node6</title>
<g id="a_edge5_Node000002_Node000006"><a xlink:title=" ">
<path fill="none" stroke="#63b8ff" d="M363.02,-75.2C343.22,-55.3 311.8,-28.22 278,-16.71 227.1,0.63 204.18,9.09 157,-16.71 103.89,-45.75 75.97,-118.33 65.92,-150.24"/>
<polygon fill="#63b8ff" stroke="#63b8ff" points="360.25,-77.37 369.72,-82.14 365.29,-72.51 360.25,-77.37"/>
</a>
</g>
</g>
<!-- Node7 -->
<g id="Node000007" class="node">
<title>Node7</title>
<g id="a_Node000007"><a xlink:href="classsdl_1_1_s_d_l_heatmap.html#a9eccaaefe82bc20e222c36d6b93e80af" target="_top" xlink:title=" ">
<polygon fill="white" stroke="#666666" points="278,-137.96 157,-137.96 157,-107.46 278,-107.46 278,-137.96"/>
<text xml:space="preserve" text-anchor="start" x="165" y="-124.46" font-family="Helvetica,sans-Serif" font-size="10.00">sdl::SDLHeatmap::draw</text>
<text xml:space="preserve" text-anchor="middle" x="217.5" y="-113.21" font-family="Helvetica,sans-Serif" font-size="10.00">_colorbar</text>
</a>
</g>
</g>
<!-- Node2&#45;&gt;Node7 -->
<g id="edge6_Node000002_Node000007" class="edge">
<title>Node2&#45;&gt;Node7</title>
<g id="a_edge6_Node000002_Node000007"><a xlink:title=" ">
<path fill="none" stroke="#63b8ff" d="M313.41,-108.98C301.71,-110.67 289.69,-112.41 278.3,-114.06"/>
<polygon fill="#63b8ff" stroke="#63b8ff" points="313.6,-112.49 322.99,-107.59 312.59,-105.56 313.6,-112.49"/>
</a>
</g>
</g>
<!-- Node7&#45;&gt;Node4 -->
<g id="edge7_Node000007_Node000004" class="edge">
<title>Node7&#45;&gt;Node4</title>
<g id="a_edge7_Node000007_Node000004"><a xlink:title=" ">
<path fill="none" stroke="#63b8ff" d="M162.61,-143.93C160.68,-145.14 158.8,-146.4 157,-147.71 137.13,-162.19 138.82,-172.77 121,-189.71 109.46,-200.68 95.4,-211.65 83.85,-220.11"/>
<polygon fill="#63b8ff" stroke="#63b8ff" points="164.29,-147 171.32,-139.07 160.89,-140.89 164.29,-147"/>
</a>
</g>
</g>
<!-- Node7&#45;&gt;Node6 -->
<g id="edge8_Node000007_Node000006" class="edge">
<title>Node7&#45;&gt;Node6</title>
<g id="a_edge8_Node000007_Node000006"><a xlink:title=" ">
<path fill="none" stroke="#63b8ff" d="M149.04,-141.42C138.72,-144.28 128.17,-147.21 118.11,-150"/>
<polygon fill="#63b8ff" stroke="#63b8ff" points="149.94,-144.8 158.64,-138.76 148.07,-138.06 149.94,-144.8"/>
</a>
</g>
</g>
<!-- Node8&#45;&gt;Node3 -->
<g id="edge10_Node000008_Node000003" class="edge">
<title>Node8&#45;&gt;Node3</title>
<g id="a_edge10_Node000008_Node000003"><a xlink:title=" ">
<path fill="none" stroke="#63b8ff" d="M360.56,-155.18C330.54,-134.38 282.31,-101.06 278,-98.71 272,-95.43 265.48,-92.3 259.03,-89.43"/>
<polygon fill="#63b8ff" stroke="#63b8ff" points="358.49,-158.01 368.71,-160.83 362.48,-152.26 358.49,-158.01"/>
</a>
</g>
</g>
<!-- Node8&#45;&gt;Node4 -->
<g id="edge11_Node000008_Node000004" class="edge">
<title>Node8&#45;&gt;Node4</title>
<g id="a_edge11_Node000008_Node000004"><a xlink:title=" ">
<path fill="none" stroke="#63b8ff" d="M372.76,-191.18C355.78,-217.52 321.42,-263.29 278,-281.71 228.49,-302.7 209.43,-293.68 157,-281.71 131.34,-275.85 104.55,-262.18 85.9,-251.26"/>
<polygon fill="#63b8ff" stroke="#63b8ff" points="375.66,-193.15 377.97,-182.81 369.71,-189.46 375.66,-193.15"/>
</a>
</g>
</g>
<!-- Node8&#45;&gt;Node5 -->
<g id="edge12_Node000008_Node000005" class="edge">
<title>Node8&#45;&gt;Node5</title>
<g id="a_edge12_Node000008_Node000005"><a xlink:title=" ">
<path fill="none" stroke="#63b8ff" d="M302.22,-171.71C294.19,-171.71 286.14,-171.71 278.39,-171.71"/>
<polygon fill="#63b8ff" stroke="#63b8ff" points="302.03,-175.21 312.03,-171.71 302.03,-168.21 302.03,-175.21"/>
</a>
</g>
</g>
<!-- Node8&#45;&gt;Node6 -->
<g id="edge13_Node000008_Node000006" class="edge">
<title>Node8&#45;&gt;Node6</title>
<g id="a_edge13_Node000008_Node000006"><a xlink:title=" ">
<path fill="none" stroke="#63b8ff" d="M337.72,-184.59C319.27,-189.06 297.79,-193.5 278,-195.71 224.55,-201.66 210.16,-203.86 157,-195.71 138.45,-192.86 118.55,-187.08 101.75,-181.34"/>
<polygon fill="#63b8ff" stroke="#63b8ff" points="338.45,-188.01 347.3,-182.19 336.75,-181.22 338.45,-188.01"/>
</a>
</g>
</g>
<!-- Node8&#45;&gt;Node7 -->
<g id="edge14_Node000008_Node000007" class="edge">
<title>Node8&#45;&gt;Node7</title>
<g id="a_edge14_Node000008_Node000007"><a xlink:title=" ">
<path fill="none" stroke="#63b8ff" d="M339.57,-158.47C318.64,-152.29 293.57,-144.89 271.69,-138.42"/>
<polygon fill="#63b8ff" stroke="#63b8ff" points="338.37,-161.77 348.96,-161.24 340.36,-155.06 338.37,-161.77"/>
</a>
</g>
</g>
<!-- Node9 -->
<g id="Node000009" class="node">
<title>Node9</title>
<g id="a_Node000009"><a xlink:href="classsdl_1_1_s_d_l_heatmap.html#afb950bdd4b18f9356775188a8af3b56a" target="_top" xlink:title=" ">
<polygon fill="white" stroke="#666666" points="278,-272.96 157,-272.96 157,-242.46 278,-242.46 278,-272.96"/>
<text xml:space="preserve" text-anchor="start" x="165" y="-259.46" font-family="Helvetica,sans-Serif" font-size="10.00">sdl::SDLHeatmap::draw</text>
<text xml:space="preserve" text-anchor="middle" x="217.5" y="-248.21" font-family="Helvetica,sans-Serif" font-size="10.00">_info_panel</text>
</a>
</g>
</g>
<!-- Node8&#45;&gt;Node9 -->
<g id="edge15_Node000008_Node000009" class="edge">
<title>Node8&#45;&gt;Node9</title>
<g id="a_edge15_Node000008_Node000009"><a xlink:title=" ">
<path fill="none" stroke="#63b8ff" d="M356.03,-187.28C334.68,-198.91 304.65,-215.08 278,-228.71 269.41,-233.1 260.05,-237.74 251.35,-241.98"/>
<polygon fill="#63b8ff" stroke="#63b8ff" points="357.61,-190.4 364.71,-182.53 354.26,-184.26 357.61,-190.4"/>
</a>
</g>
</g>
<!-- Node9&#45;&gt;Node4 -->
<g id="edge16_Node000009_Node000004" class="edge">
<title>Node9&#45;&gt;Node4</title>
<g id="a_edge16_Node000009_Node000004"><a xlink:title=" ">
<path fill="none" stroke="#63b8ff" d="M145.31,-247.6C137.27,-246.46 129.14,-245.31 121.27,-244.19"/>
<polygon fill="#63b8ff" stroke="#63b8ff" points="144.68,-251.05 155.07,-248.99 145.67,-244.12 144.68,-251.05"/>
</a>
</g>
</g>
<!-- Node9&#45;&gt;Node6 -->
<g id="edge17_Node000009_Node000006" class="edge">
<title>Node9&#45;&gt;Node6</title>
<g id="a_edge17_Node000009_Node000006"><a xlink:title=" ">
<path fill="none" stroke="#63b8ff" d="M172.41,-237.02C167.17,-234.32 161.93,-231.52 157,-228.71 130.95,-213.85 102.4,-194.6 83.37,-181.31"/>
<polygon fill="#63b8ff" stroke="#63b8ff" points="170.57,-240.01 181.08,-241.37 173.71,-233.76 170.57,-240.01"/>
</a>
</g>
</g>
</g>
</svg>
