<?xml version="1.0" encoding="UTF-8" standalone="no"?>
<!DOCTYPE svg PUBLIC "-//W3C//DTD SVG 1.1//EN"
 "http://www.w3.org/Graphics/SVG/1.1/DTD/svg11.dtd">
<!-- Generated by graphviz version 14.1.1 (20251213.1925)
 -->
<!-- Title: sdl_heatmap.hpp Pages: 1 -->
<svg width="218pt" height="138pt"
 viewBox="0.00 0.00 218.00 138.00" xmlns="http://www.w3.org/2000/svg" xmlns:xlink="http://www.w3.org/1999/xlink">
<g id="graph0" class="graph" transform="scale(1 1) rotate(0) translate(4 133.75)">
<title>sdl_heatmap.hpp</title>
<!-- Node1 -->
<g id="Node000001" class="node">
<title>Node1</title>
<g id="a_Node000001"><a xlink:title="Temperature visualization using Inferno colormap.">
<polygon fill="#999999" stroke="#666666" points="161,-129.75 70.75,-129.75 70.75,-110.5 161,-110.5 161,-129.75"/>
<text xml:space="preserve" text-anchor="middle" x="115.88" y="-116.25" font-family="Helvetica,sans-Serif" font-size="10.00">sdl_heatmap.hpp</text>
</a>
</g>
</g>
<!-- Node2 -->
<g id="Node000002" class="node">
<title>Node2</title>
<g id="a_Node000002"><a xlink:href="sdl__app_8hpp.html" target="_top" xlink:title="SDL2 application for heat equation visualization.">
<polygon fill="white" stroke="#666666" points="102.12,-74.5 33.62,-74.5 33.62,-55.25 102.12,-55.25 102.12,-74.5"/>
<text xml:space="preserve" text-anchor="middle" x="67.88" y="-61" font-family="Helvetica,sans-Serif" font-size="10.00">sdl_app.hpp</text>
</a>
</g>
</g>
<!-- Node1&#45;&gt;Node2 -->
<g id="edge1_Node000001_Node000002" class="edge">
<title>Node1&#45;&gt;Node2</title>
<g id="a_edge1_Node000001_Node000002"><a xlink:title=" ">
<path fill="none" stroke="#63b8ff" d="M100.48,-102.04C92.33,-93 82.66,-82.27 75.97,-74.86"/>
<polygon fill="#63b8ff" stroke="#63b8ff" points="97.64,-104.12 106.94,-109.21 102.84,-99.44 97.64,-104.12"/>
</a>
</g>
</g>
<!-- Node5 -->
<g id="Node000005" class="node">
<title>Node5</title>
<g id="a_Node000005"><a xlink:href="sdl__heatmap_8cpp.html" target="_top" xlink:title="Temperature visualization implementation.">
<polygon fill="white" stroke="#666666" points="210,-74.5 119.75,-74.5 119.75,-55.25 210,-55.25 210,-74.5"/>
<text xml:space="preserve" text-anchor="middle" x="164.88" y="-61" font-family="Helvetica,sans-Serif" font-size="10.00">sdl_heatmap.cpp</text>
</a>
</g>
</g>
<!-- Node1&#45;&gt;Node5 -->
<g id="edge4_Node000001_Node000005" class="edge">
<title>Node1&#45;&gt;Node5</title>
<g id="a_edge4_Node000001_Node000005"><a xlink:title=" ">
<path fill="none" stroke="#63b8ff" d="M131.59,-102.04C139.91,-93 149.79,-82.27 156.61,-74.86"/>
<polygon fill="#63b8ff" stroke="#63b8ff" points="129.19,-99.49 124.99,-109.22 134.34,-104.23 129.19,-99.49"/>
</a>
</g>
</g>
<!-- Node3 -->
<g id="Node000003" class="node">
<title>Node3</title>
<g id="a_Node000003"><a xlink:href="main_8cpp.html" target="_top" xlink:title="Console menu and SDL2 visualization launcher.">
<polygon fill="white" stroke="#666666" points="55.75,-19.25 0,-19.25 0,0 55.75,0 55.75,-19.25"/>
<text xml:space="preserve" text-anchor="middle" x="27.88" y="-5.75" font-family="Helvetica,sans-Serif" font-size="10.00">main.cpp</text>
</a>
</g>
</g>
<!-- Node2&#45;&gt;Node3 -->
<g id="edge2_Node000002_Node000003" class="edge">
<title>Node2&#45;&gt;Node3</title>
<g id="a_edge2_Node000002_Node000003"><a xlink:title=" ">
<path fill="none" stroke="#63b8ff" d="M54.4,-45.94C47.75,-37.09 40.02,-26.79 34.62,-19.61"/>
<polygon fill="#63b8ff" stroke="#63b8ff" points="51.56,-47.98 60.36,-53.87 57.15,-43.77 51.56,-47.98"/>
</a>
</g>
</g>
<!-- Node4 -->
<g id="Node000004" class="node">
<title>Node4</title>
<g id="a_Node000004"><a xlink:href="sdl__app_8cpp.html" target="_top" xlink:title="SDL2 application implementation.">
<polygon fill="white" stroke="#666666" points="142.12,-19.25 73.62,-19.25 73.62,0 142.12,0 142.12,-19.25"/>
<text xml:space="preserve" text-anchor="middle" x="107.88" y="-5.75" font-family="Helvetica,sans-Serif" font-size="10.00">sdl_app.cpp</text>
</a>
</g>
</g>
<!-- Node2&#45;&gt;Node4 -->
<g id="edge3_Node000002_Node000004" class="edge">
<title>Node2&#45;&gt;Node4</title>
<g id="a_edge3_Node000002_Node000004"><a xlink:title=" ">
<path fill="none" stroke="#63b8ff" d="M81.35,-45.94C88,-37.09 95.73,-26.79 101.13,-19.61"/>
<polygon fill="#63b8ff" stroke="#63b8ff" points="78.6,-43.77 75.39,-53.87 84.19,-47.98 78.6,-43.77"/>
</a>
</g>
</g>
</g>
</svg>
