<?xml version="1.0" encoding="UTF-8" standalone="no"?>
<!DOCTYPE svg PUBLIC "-//W3C//DTD SVG 1.1//EN"
 "http://www.w3.org/Graphics/SVG/1.1/DTD/svg11.dtd">
<!-- Generated by graphviz version 14.1.1 (20251213.1925)
 -->
<!-- Title: sdl_window.hpp Pages: 1 -->
<svg width="110pt" height="83pt"
 viewBox="0.00 0.00 110.00 83.00" xmlns="http://www.w3.org/2000/svg" xmlns:xlink="http://www.w3.org/1999/xlink">
<g id="graph0" class="graph" transform="scale(1 1) rotate(0) translate(4 78.5)">
<title>sdl_window.hpp</title>
<!-- Node1 -->
<g id="Node000001" class="node">
<title>Node1</title>
<g id="a_Node000001"><a xlink:title="SDL2 window and renderer wrapper.">
<polygon fill="#999999" stroke="#666666" points="94,-74.5 9.75,-74.5 9.75,-55.25 94,-55.25 94,-74.5"/>
<text xml:space="preserve" text-anchor="middle" x="51.88" y="-61" font-family="Helvetica,sans-Serif" font-size="10.00">sdl_window.hpp</text>
</a>
</g>
</g>
<!-- Node2 -->
<g id="Node000002" class="node">
<title>Node2</title>
<g id="a_Node000002"><a xlink:title=" ">
<polygon fill="#e0e0e0" stroke="#999999" points="43.75,-19.25 0,-19.25 0,0 43.75,0 43.75,-19.25"/>
<text xml:space="preserve" text-anchor="middle" x="21.88" y="-5.75" font-family="Helvetica,sans-Serif" font-size="10.00">SDL.h</text>
</a>
</g>
</g>
<!-- Node1&#45;&gt;Node2 -->
<g id="edge1_Node000001_Node000002" class="edge">
<title>Node1&#45;&gt;Node2</title>
<g id="a_edge1_Node000001_Node000002"><a xlink:title=" ">
<path fill="none" stroke="#63b8ff" d="M46.92,-55.08C42.99,-48.11 37.36,-38.12 32.44,-29.37"/>
<polygon fill="#63b8ff" stroke="#63b8ff" points="35.64,-27.92 27.68,-20.93 29.54,-31.36 35.64,-27.92"/>
</a>
</g>
</g>
<!-- Node3 -->
<g id="Node000003" class="node">
<title>Node3</title>
<g id="a_Node000003"><a xlink:title=" ">
<polygon fill="#e0e0e0" stroke="#999999" points="101.88,-19.25 61.88,-19.25 61.88,0 101.88,0 101.88,-19.25"/>
<text xml:space="preserve" text-anchor="middle" x="81.88" y="-5.75" font-family="Helvetica,sans-Serif" font-size="10.00">string</text>
</a>
</g>
</g>
<!-- Node1&#45;&gt;Node3 -->
<g id="edge2_Node000001_Node000003" class="edge">
<title>Node1&#45;&gt;Node3</title>
<g id="a_edge2_Node000001_Node000003"><a xlink:title=" ">
<path fill="none" stroke="#63b8ff" d="M56.83,-55.08C60.76,-48.11 66.39,-38.12 71.31,-29.37"/>
<polygon fill="#63b8ff" stroke="#63b8ff" points="74.21,-31.36 76.07,-20.93 68.11,-27.92 74.21,-31.36"/>
</a>
</g>
</g>
</g>
</svg>
