<?xml version="1.0" encoding="UTF-8" standalone="no"?>
<!DOCTYPE svg PUBLIC "-//W3C//DTD SVG 1.1//EN"
 "http://www.w3.org/Graphics/SVG/1.1/DTD/svg11.dtd">
<!-- Generated by graphviz version 14.1.1 (20251213.1925)
 -->
<!-- Title: sdl_window.cpp Pages: 1 -->
<svg width="209pt" height="138pt"
 viewBox="0.00 0.00 209.00 138.00" xmlns="http://www.w3.org/2000/svg" xmlns:xlink="http://www.w3.org/1999/xlink">
<g id="graph0" class="graph" transform="scale(1 1) rotate(0) translate(4 133.75)">
<title>sdl_window.cpp</title>
<!-- Node1 -->
<g id="Node000001" class="node">
<title>Node1</title>
<g id="a_Node000001"><a xlink:title="SDL2 window implementation.">
<polygon fill="#999999" stroke="#666666" points="132.25,-129.75 48,-129.75 48,-110.5 132.25,-110.5 132.25,-129.75"/>
<text xml:space="preserve" text-anchor="middle" x="90.12" y="-116.25" font-family="Helvetica,sans-Serif" font-size="10.00">sdl_window.cpp</text>
</a>
</g>
</g>
<!-- Node2 -->
<g id="Node000002" class="node">
<title>Node2</title>
<g id="a_Node000002"><a xlink:href="sdl__window_8hpp.html" target="_top" xlink:title="SDL2 window and renderer wrapper.">
<polygon fill="white" stroke="#666666" points="84.25,-74.5 0,-74.5 0,-55.25 84.25,-55.25 84.25,-74.5"/>
<text xml:space="preserve" text-anchor="middle" x="42.12" y="-61" font-family="Helvetica,sans-Serif" font-size="10.00">sdl_window.hpp</text>
</a>
</g>
</g>
<!-- Node1&#45;&gt;Node2 -->
<g id="edge1_Node000001_Node000002" class="edge">
<title>Node1&#45;&gt;Node2</title>
<g id="a_edge1_Node000001_Node000002"><a xlink:title=" ">
<path fill="none" stroke="#63b8ff" d="M82.2,-110.33C75.57,-102.98 65.91,-92.26 57.74,-83.19"/>
<polygon fill="#63b8ff" stroke="#63b8ff" points="60.53,-81.07 51.24,-75.98 55.33,-85.75 60.53,-81.07"/>
</a>
</g>
</g>
<!-- Node5 -->
<g id="Node000005" class="node">
<title>Node5</title>
<g id="a_Node000005"><a xlink:href="sdl__core_8hpp.html" target="_top" xlink:title="SDL2 initialization wrapper.">
<polygon fill="white" stroke="#666666" points="173.88,-74.5 102.38,-74.5 102.38,-55.25 173.88,-55.25 173.88,-74.5"/>
<text xml:space="preserve" text-anchor="middle" x="138.12" y="-61" font-family="Helvetica,sans-Serif" font-size="10.00">sdl_core.hpp</text>
</a>
</g>
</g>
<!-- Node1&#45;&gt;Node5 -->
<g id="edge4_Node000001_Node000005" class="edge">
<title>Node1&#45;&gt;Node5</title>
<g id="a_edge4_Node000001_Node000005"><a xlink:title=" ">
<path fill="none" stroke="#63b8ff" d="M98.05,-110.33C104.68,-102.98 114.34,-92.26 122.51,-83.19"/>
<polygon fill="#63b8ff" stroke="#63b8ff" points="124.92,-85.75 129.01,-75.98 119.72,-81.07 124.92,-85.75"/>
</a>
</g>
</g>
<!-- Node3 -->
<g id="Node000003" class="node">
<title>Node3</title>
<g id="a_Node000003"><a xlink:title=" ">
<polygon fill="#e0e0e0" stroke="#999999" points="124,-19.25 80.25,-19.25 80.25,0 124,0 124,-19.25"/>
<text xml:space="preserve" text-anchor="middle" x="102.12" y="-5.75" font-family="Helvetica,sans-Serif" font-size="10.00">SDL.h</text>
</a>
</g>
</g>
<!-- Node2&#45;&gt;Node3 -->
<g id="edge2_Node000002_Node000003" class="edge">
<title>Node2&#45;&gt;Node3</title>
<g id="a_edge2_Node000002_Node000003"><a xlink:title=" ">
<path fill="none" stroke="#63b8ff" d="M52.3,-54.84C60.89,-47.22 73.39,-36.12 83.73,-26.95"/>
<polygon fill="#63b8ff" stroke="#63b8ff" points="85.81,-29.79 90.97,-20.53 81.16,-24.55 85.81,-29.79"/>
</a>
</g>
</g>
<!-- Node4 -->
<g id="Node000004" class="node">
<title>Node4</title>
<g id="a_Node000004"><a xlink:title=" ">
<polygon fill="#e0e0e0" stroke="#999999" points="62.12,-19.25 22.12,-19.25 22.12,0 62.12,0 62.12,-19.25"/>
<text xml:space="preserve" text-anchor="middle" x="42.12" y="-5.75" font-family="Helvetica,sans-Serif" font-size="10.00">string</text>
</a>
</g>
</g>
<!-- Node2&#45;&gt;Node4 -->
<g id="edge3_Node000002_Node000004" class="edge">
<title>Node2&#45;&gt;Node4</title>
<g id="a_edge3_Node000002_Node000004"><a xlink:title=" ">
<path fill="none" stroke="#63b8ff" d="M42.12,-55.08C42.12,-48.57 42.12,-39.42 42.12,-31.12"/>
<polygon fill="#63b8ff" stroke="#63b8ff" points="45.63,-31.12 42.13,-21.12 38.63,-31.12 45.63,-31.12"/>
</a>
</g>
</g>
<!-- Node5&#45;&gt;Node3 -->
<g id="edge5_Node000005_Node000003" class="edge">
<title>Node5&#45;&gt;Node3</title>
<g id="a_edge5_Node000005_Node000003"><a xlink:title=" ">
<path fill="none" stroke="#63b8ff" d="M132.18,-55.08C127.41,-48.03 120.56,-37.9 114.6,-29.08"/>
<polygon fill="#63b8ff" stroke="#63b8ff" points="117.55,-27.19 109.05,-20.86 111.75,-31.11 117.55,-27.19"/>
</a>
</g>
</g>
<!-- Node5&#45;&gt;Node4 -->
<g id="edge6_Node000005_Node000004" class="edge">
<title>Node5&#45;&gt;Node4</title>
<g id="a_edge6_Node000005_Node000004"><a xlink:title=" ">
<path fill="none" stroke="#63b8ff" d="M121.84,-54.84C107.22,-46.73 85.5,-34.68 68.42,-25.21"/>
<polygon fill="#63b8ff" stroke="#63b8ff" points="70.26,-22.23 59.81,-20.44 66.86,-28.35 70.26,-22.23"/>
</a>
</g>
</g>
<!-- Node6 -->
<g id="Node000006" class="node">
<title>Node6</title>
<g id="a_Node000006"><a xlink:title=" ">
<polygon fill="#e0e0e0" stroke="#999999" points="200.5,-19.25 141.75,-19.25 141.75,0 200.5,0 200.5,-19.25"/>
<text xml:space="preserve" text-anchor="middle" x="171.12" y="-5.75" font-family="Helvetica,sans-Serif" font-size="10.00">stdexcept</text>
</a>
</g>
</g>
<!-- Node5&#45;&gt;Node6 -->
<g id="edge7_Node000005_Node000006" class="edge">
<title>Node5&#45;&gt;Node6</title>
<g id="a_edge7_Node000005_Node000006"><a xlink:title=" ">
<path fill="none" stroke="#63b8ff" d="M143.57,-55.08C147.9,-48.11 154.09,-38.12 159.51,-29.37"/>
<polygon fill="#63b8ff" stroke="#63b8ff" points="162.47,-31.24 164.76,-20.9 156.52,-27.55 162.47,-31.24"/>
</a>
</g>
</g>
</g>
</svg>
