<?xml version="1.0" encoding="UTF-8" standalone="no"?>
<!DOCTYPE svg PUBLIC "-//W3C//DTD SVG 1.1//EN"
 "http://www.w3.org/Graphics/SVG/1.1/DTD/svg11.dtd">
<!-- Generated by graphviz version 14.1.1 (20251213.1925)
 -->
<!-- Title: sdl_app.hpp Pages: 1 -->
<svg width="416pt" height="193pt"
 viewBox="0.00 0.00 416.00 193.00" xmlns="http://www.w3.org/2000/svg" xmlns:xlink="http://www.w3.org/1999/xlink">
<g id="graph0" class="graph" transform="scale(1 1) rotate(0) translate(4 189)">
<title>sdl_app.hpp</title>
<!-- Node1 -->
<g id="Node000001" class="node">
<title>Node1</title>
<g id="a_Node000001"><a xlink:title="SDL2 application for heat equation visualization.">
<polygon fill="#999999" stroke="#666666" points="208.12,-185 139.62,-185 139.62,-165.75 208.12,-165.75 208.12,-185"/>
<text xml:space="preserve" text-anchor="middle" x="173.88" y="-171.5" font-family="Helvetica,sans-Serif" font-size="10.00">sdl_app.hpp</text>
</a>
</g>
</g>
<!-- Node2 -->
<g id="Node000002" class="node">
<title>Node2</title>
<g id="a_Node000002"><a xlink:title=" ">
<polygon fill="#e0e0e0" stroke="#999999" points="43.75,-19.25 0,-19.25 0,0 43.75,0 43.75,-19.25"/>
<text xml:space="preserve" text-anchor="middle" x="21.88" y="-5.75" font-family="Helvetica,sans-Serif" font-size="10.00">SDL.h</text>
</a>
</g>
</g>
<!-- Node1&#45;&gt;Node2 -->
<g id="edge1_Node000001_Node000002" class="edge">
<title>Node1&#45;&gt;Node2</title>
<g id="a_edge1_Node000001_Node000002"><a xlink:title=" ">
<path fill="none" stroke="#63b8ff" d="M139.39,-168.29C111.97,-162.13 73.72,-150.47 45.88,-129.75 21.56,-111.65 15.22,-103.34 5.88,-74.5 1.02,-59.53 6.02,-42.19 11.67,-29.35"/>
<polygon fill="#63b8ff" stroke="#63b8ff" points="14.62,-31.28 15.91,-20.77 8.34,-28.19 14.62,-31.28"/>
</a>
</g>
</g>
<!-- Node3 -->
<g id="Node000003" class="node">
<title>Node3</title>
<g id="a_Node000003"><a xlink:href="sdl__window_8hpp.html" target="_top" xlink:title="SDL2 window and renderer wrapper.">
<polygon fill="white" stroke="#666666" points="99,-74.5 14.75,-74.5 14.75,-55.25 99,-55.25 99,-74.5"/>
<text xml:space="preserve" text-anchor="middle" x="56.88" y="-61" font-family="Helvetica,sans-Serif" font-size="10.00">sdl_window.hpp</text>
</a>
</g>
</g>
<!-- Node1&#45;&gt;Node3 -->
<g id="edge2_Node000001_Node000003" class="edge">
<title>Node1&#45;&gt;Node3</title>
<g id="a_edge2_Node000001_Node000003"><a xlink:title=" ">
<path fill="none" stroke="#63b8ff" d="M139.27,-171.48C111.87,-167.17 75.25,-156.43 56.88,-129.75 48.11,-117.02 48.89,-99.23 51.41,-85.65"/>
<polygon fill="#63b8ff" stroke="#63b8ff" points="54.78,-86.64 53.66,-76.11 47.96,-85.04 54.78,-86.64"/>
</a>
</g>
</g>
<!-- Node5 -->
<g id="Node000005" class="node">
<title>Node5</title>
<g id="a_Node000005"><a xlink:href="sdl__heatmap_8hpp.html" target="_top" xlink:title="Temperature visualization using Inferno colormap.">
<polygon fill="white" stroke="#666666" points="156,-129.75 65.75,-129.75 65.75,-110.5 156,-110.5 156,-129.75"/>
<text xml:space="preserve" text-anchor="middle" x="110.88" y="-116.25" font-family="Helvetica,sans-Serif" font-size="10.00">sdl_heatmap.hpp</text>
</a>
</g>
</g>
<!-- Node1&#45;&gt;Node5 -->
<g id="edge5_Node000001_Node000005" class="edge">
<title>Node1&#45;&gt;Node5</title>
<g id="a_edge5_Node000001_Node000005"><a xlink:title=" ">
<path fill="none" stroke="#63b8ff" d="M163.19,-165.34C154.17,-157.72 141.04,-146.62 130.19,-137.45"/>
<polygon fill="#63b8ff" stroke="#63b8ff" points="132.46,-134.78 122.56,-131 127.94,-140.13 132.46,-134.78"/>
</a>
</g>
</g>
<!-- Node7 -->
<g id="Node000007" class="node">
<title>Node7</title>
<g id="a_Node000007"><a xlink:href="material_8hpp.html" target="_top" xlink:title=" ">
<polygon fill="white" stroke="#666666" points="285.5,-74.5 216.25,-74.5 216.25,-55.25 285.5,-55.25 285.5,-74.5"/>
<text xml:space="preserve" text-anchor="middle" x="250.88" y="-61" font-family="Helvetica,sans-Serif" font-size="10.00">material.hpp</text>
</a>
</g>
</g>
<!-- Node1&#45;&gt;Node7 -->
<g id="edge9_Node000001_Node000007" class="edge">
<title>Node1&#45;&gt;Node7</title>
<g id="a_edge9_Node000001_Node000007"><a xlink:title=" ">
<path fill="none" stroke="#63b8ff" d="M208.34,-173.63C240.25,-170.89 286.1,-161.26 308.88,-129.75 321.99,-111.6 300,-92.86 279.43,-80.41"/>
<polygon fill="#63b8ff" stroke="#63b8ff" points="281.35,-77.48 270.93,-75.58 277.9,-83.56 281.35,-77.48"/>
</a>
</g>
</g>
<!-- Node8 -->
<g id="Node000008" class="node">
<title>Node8</title>
<g id="a_Node000008"><a xlink:href="heat__equation__solver_8hpp.html" target="_top" xlink:title="1D and 2D Heat Equation Solvers &#45; Implicit Finite Differences">
<polygon fill="white" stroke="#666666" points="300,-129.75 173.75,-129.75 173.75,-110.5 300,-110.5 300,-129.75"/>
<text xml:space="preserve" text-anchor="middle" x="236.88" y="-116.25" font-family="Helvetica,sans-Serif" font-size="10.00">heat_equation_solver.hpp</text>
</a>
</g>
</g>
<!-- Node1&#45;&gt;Node8 -->
<g id="edge11_Node000001_Node000008" class="edge">
<title>Node1&#45;&gt;Node8</title>
<g id="a_edge11_Node000001_Node000008"><a xlink:title=" ">
<path fill="none" stroke="#63b8ff" d="M184.56,-165.34C193.58,-157.72 206.71,-146.62 217.56,-137.45"/>
<polygon fill="#63b8ff" stroke="#63b8ff" points="219.81,-140.13 225.19,-131 215.29,-134.78 219.81,-140.13"/>
</a>
</g>
</g>
<!-- Node9 -->
<g id="Node000009" class="node">
<title>Node9</title>
<g id="a_Node000009"><a xlink:title=" ">
<polygon fill="#e0e0e0" stroke="#999999" points="407.5,-129.75 356.25,-129.75 356.25,-110.5 407.5,-110.5 407.5,-129.75"/>
<text xml:space="preserve" text-anchor="middle" x="381.88" y="-116.25" font-family="Helvetica,sans-Serif" font-size="10.00">memory</text>
</a>
</g>
</g>
<!-- Node1&#45;&gt;Node9 -->
<g id="edge14_Node000001_Node000009" class="edge">
<title>Node1&#45;&gt;Node9</title>
<g id="a_edge14_Node000001_Node000009"><a xlink:title=" ">
<path fill="none" stroke="#63b8ff" d="M208.22,-165.58C246.03,-155.9 306.56,-140.41 345.25,-130.5"/>
<polygon fill="#63b8ff" stroke="#63b8ff" points="345.75,-133.99 354.56,-128.12 344.01,-127.21 345.75,-133.99"/>
</a>
</g>
</g>
<!-- Node3&#45;&gt;Node2 -->
<g id="edge3_Node000003_Node000002" class="edge">
<title>Node3&#45;&gt;Node2</title>
<g id="a_edge3_Node000003_Node000002"><a xlink:title=" ">
<path fill="none" stroke="#63b8ff" d="M51.1,-55.08C46.46,-48.03 39.8,-37.9 34.01,-29.08"/>
<polygon fill="#63b8ff" stroke="#63b8ff" points="37.03,-27.31 28.61,-20.87 31.18,-31.15 37.03,-27.31"/>
</a>
</g>
</g>
<!-- Node4 -->
<g id="Node000004" class="node">
<title>Node4</title>
<g id="a_Node000004"><a xlink:title=" ">
<polygon fill="#e0e0e0" stroke="#999999" points="146.88,-19.25 106.88,-19.25 106.88,0 146.88,0 146.88,-19.25"/>
<text xml:space="preserve" text-anchor="middle" x="126.88" y="-5.75" font-family="Helvetica,sans-Serif" font-size="10.00">string</text>
</a>
</g>
</g>
<!-- Node3&#45;&gt;Node4 -->
<g id="edge4_Node000003_Node000004" class="edge">
<title>Node3&#45;&gt;Node4</title>
<g id="a_edge4_Node000003_Node000004"><a xlink:title=" ">
<path fill="none" stroke="#63b8ff" d="M68.75,-54.84C78.97,-47.07 93.95,-35.67 106.14,-26.4"/>
<polygon fill="#63b8ff" stroke="#63b8ff" points="108.13,-29.28 113.97,-20.44 103.89,-23.71 108.13,-29.28"/>
</a>
</g>
</g>
<!-- Node5&#45;&gt;Node3 -->
<g id="edge6_Node000005_Node000003" class="edge">
<title>Node5&#45;&gt;Node3</title>
<g id="a_edge6_Node000005_Node000003"><a xlink:title=" ">
<path fill="none" stroke="#63b8ff" d="M101.96,-110.33C94.42,-102.9 83.41,-92.04 74.15,-82.91"/>
<polygon fill="#63b8ff" stroke="#63b8ff" points="76.64,-80.45 67.06,-75.92 71.73,-85.44 76.64,-80.45"/>
</a>
</g>
</g>
<!-- Node5&#45;&gt;Node4 -->
<g id="edge8_Node000005_Node000004" class="edge">
<title>Node5&#45;&gt;Node4</title>
<g id="a_edge8_Node000005_Node000004"><a xlink:title=" ">
<path fill="none" stroke="#63b8ff" d="M112.18,-110.25C114.73,-93 120.39,-54.58 123.9,-30.81"/>
<polygon fill="#63b8ff" stroke="#63b8ff" points="127.33,-31.53 125.33,-21.12 120.41,-30.51 127.33,-31.53"/>
</a>
</g>
</g>
<!-- Node6 -->
<g id="Node000006" class="node">
<title>Node6</title>
<g id="a_Node000006"><a xlink:title=" ">
<polygon fill="#e0e0e0" stroke="#999999" points="198.38,-74.5 155.38,-74.5 155.38,-55.25 198.38,-55.25 198.38,-74.5"/>
<text xml:space="preserve" text-anchor="middle" x="176.88" y="-61" font-family="Helvetica,sans-Serif" font-size="10.00">vector</text>
</a>
</g>
</g>
<!-- Node5&#45;&gt;Node6 -->
<g id="edge7_Node000005_Node000006" class="edge">
<title>Node5&#45;&gt;Node6</title>
<g id="a_edge7_Node000005_Node000006"><a xlink:title=" ">
<path fill="none" stroke="#63b8ff" d="M122.07,-110.09C131.61,-102.4 145.55,-91.15 156.98,-81.93"/>
<polygon fill="#63b8ff" stroke="#63b8ff" points="159.08,-84.73 164.67,-75.73 154.69,-79.28 159.08,-84.73"/>
</a>
</g>
</g>
<!-- Node7&#45;&gt;Node4 -->
<g id="edge10_Node000007_Node000004" class="edge">
<title>Node7&#45;&gt;Node4</title>
<g id="a_edge10_Node000007_Node000004"><a xlink:title=" ">
<path fill="none" stroke="#63b8ff" d="M229.84,-54.84C210.01,-46.32 180.05,-33.46 157.56,-23.8"/>
<polygon fill="#63b8ff" stroke="#63b8ff" points="159.15,-20.68 148.58,-19.95 156.39,-27.11 159.15,-20.68"/>
</a>
</g>
</g>
<!-- Node8&#45;&gt;Node6 -->
<g id="edge13_Node000008_Node000006" class="edge">
<title>Node8&#45;&gt;Node6</title>
<g id="a_edge13_Node000008_Node000006"><a xlink:title=" ">
<path fill="none" stroke="#63b8ff" d="M226.7,-110.09C218.11,-102.47 205.61,-91.37 195.27,-82.2"/>
<polygon fill="#63b8ff" stroke="#63b8ff" points="197.84,-79.8 188.03,-75.78 193.19,-85.04 197.84,-79.8"/>
</a>
</g>
</g>
<!-- Node8&#45;&gt;Node7 -->
<g id="edge12_Node000008_Node000007" class="edge">
<title>Node8&#45;&gt;Node7</title>
<g id="a_edge12_Node000008_Node000007"><a xlink:title=" ">
<path fill="none" stroke="#63b8ff" d="M239.19,-110.33C240.94,-103.67 243.42,-94.24 245.64,-85.78"/>
<polygon fill="#63b8ff" stroke="#63b8ff" points="248.97,-86.88 248.13,-76.32 242.2,-85.1 248.97,-86.88"/>
</a>
</g>
</g>
</g>
</svg>
