<?xml version="1.0" encoding="UTF-8" standalone="no"?>
<!DOCTYPE svg PUBLIC "-//W3C//DTD SVG 1.1//EN"
 "http://www.w3.org/Graphics/SVG/1.1/DTD/svg11.dtd">
<!-- Generated by graphviz version 14.1.1 (20251213.1925)
 -->
<!-- Title: sdl_window.hpp Pages: 1 -->
<svg width="296pt" height="193pt"
 viewBox="0.00 0.00 296.00 193.00" xmlns="http://www.w3.org/2000/svg" xmlns:xlink="http://www.w3.org/1999/xlink">
<g id="graph0" class="graph" transform="scale(1 1) rotate(0) translate(4 189)">
<title>sdl_window.hpp</title>
<!-- Node1 -->
<g id="Node000001" class="node">
<title>Node1</title>
<g id="a_Node000001"><a xlink:title="SDL2 window and renderer wrapper.">
<polygon fill="#999999" stroke="#666666" points="183,-185 98.75,-185 98.75,-165.75 183,-165.75 183,-185"/>
<text xml:space="preserve" text-anchor="middle" x="140.88" y="-171.5" font-family="Helvetica,sans-Serif" font-size="10.00">sdl_window.hpp</text>
</a>
</g>
</g>
<!-- Node2 -->
<g id="Node000002" class="node">
<title>Node2</title>
<g id="a_Node000002"><a xlink:href="sdl__app_8hpp.html" target="_top" xlink:title="SDL2 application for heat equation visualization.">
<polygon fill="white" stroke="#666666" points="102.12,-74.5 33.62,-74.5 33.62,-55.25 102.12,-55.25 102.12,-74.5"/>
<text xml:space="preserve" text-anchor="middle" x="67.88" y="-61" font-family="Helvetica,sans-Serif" font-size="10.00">sdl_app.hpp</text>
</a>
</g>
</g>
<!-- Node1&#45;&gt;Node2 -->
<g id="edge1_Node000001_Node000002" class="edge">
<title>Node1&#45;&gt;Node2</title>
<g id="a_edge1_Node000001_Node000002"><a xlink:title=" ">
<path fill="none" stroke="#63b8ff" d="M116.02,-158.71C105.7,-151.1 94.4,-141.12 86.88,-129.75 75.38,-112.38 70.66,-87.86 68.87,-74.83"/>
<polygon fill="#63b8ff" stroke="#63b8ff" points="114,-161.58 124.21,-164.4 117.99,-155.82 114,-161.58"/>
</a>
</g>
</g>
<!-- Node5 -->
<g id="Node000005" class="node">
<title>Node5</title>
<g id="a_Node000005"><a xlink:href="sdl__heatmap_8hpp.html" target="_top" xlink:title="Temperature visualization using Inferno colormap.">
<polygon fill="white" stroke="#666666" points="186,-129.75 95.75,-129.75 95.75,-110.5 186,-110.5 186,-129.75"/>
<text xml:space="preserve" text-anchor="middle" x="140.88" y="-116.25" font-family="Helvetica,sans-Serif" font-size="10.00">sdl_heatmap.hpp</text>
</a>
</g>
</g>
<!-- Node1&#45;&gt;Node5 -->
<g id="edge4_Node000001_Node000005" class="edge">
<title>Node1&#45;&gt;Node5</title>
<g id="a_edge4_Node000001_Node000005"><a xlink:title=" ">
<path fill="none" stroke="#63b8ff" d="M140.88,-154.13C140.88,-145.84 140.88,-136.67 140.88,-130.11"/>
<polygon fill="#63b8ff" stroke="#63b8ff" points="137.38,-154.07 140.88,-164.07 144.38,-154.07 137.38,-154.07"/>
</a>
</g>
</g>
<!-- Node7 -->
<g id="Node000007" class="node">
<title>Node7</title>
<g id="a_Node000007"><a xlink:href="sdl__window_8cpp.html" target="_top" xlink:title="SDL2 window implementation.">
<polygon fill="white" stroke="#666666" points="288,-129.75 203.75,-129.75 203.75,-110.5 288,-110.5 288,-129.75"/>
<text xml:space="preserve" text-anchor="middle" x="245.88" y="-116.25" font-family="Helvetica,sans-Serif" font-size="10.00">sdl_window.cpp</text>
</a>
</g>
</g>
<!-- Node1&#45;&gt;Node7 -->
<g id="edge7_Node000001_Node000007" class="edge">
<title>Node1&#45;&gt;Node7</title>
<g id="a_edge7_Node000001_Node000007"><a xlink:title=" ">
<path fill="none" stroke="#63b8ff" d="M168.74,-160.24C187.52,-150.72 211.73,-138.44 227.98,-130.2"/>
<polygon fill="#63b8ff" stroke="#63b8ff" points="167.37,-157.01 160.04,-164.66 170.54,-163.26 167.37,-157.01"/>
</a>
</g>
</g>
<!-- Node3 -->
<g id="Node000003" class="node">
<title>Node3</title>
<g id="a_Node000003"><a xlink:href="main_8cpp.html" target="_top" xlink:title="Console menu and SDL2 visualization launcher.">
<polygon fill="white" stroke="#666666" points="55.75,-19.25 0,-19.25 0,0 55.75,0 55.75,-19.25"/>
<text xml:space="preserve" text-anchor="middle" x="27.88" y="-5.75" font-family="Helvetica,sans-Serif" font-size="10.00">main.cpp</text>
</a>
</g>
</g>
<!-- Node2&#45;&gt;Node3 -->
<g id="edge2_Node000002_Node000003" class="edge">
<title>Node2&#45;&gt;Node3</title>
<g id="a_edge2_Node000002_Node000003"><a xlink:title=" ">
<path fill="none" stroke="#63b8ff" d="M54.4,-45.94C47.75,-37.09 40.02,-26.79 34.62,-19.61"/>
<polygon fill="#63b8ff" stroke="#63b8ff" points="51.56,-47.98 60.36,-53.87 57.15,-43.77 51.56,-47.98"/>
</a>
</g>
</g>
<!-- Node4 -->
<g id="Node000004" class="node">
<title>Node4</title>
<g id="a_Node000004"><a xlink:href="sdl__app_8cpp.html" target="_top" xlink:title="SDL2 application implementation.">
<polygon fill="white" stroke="#666666" points="142.12,-19.25 73.62,-19.25 73.62,0 142.12,0 142.12,-19.25"/>
<text xml:space="preserve" text-anchor="middle" x="107.88" y="-5.75" font-family="Helvetica,sans-Serif" font-size="10.00">sdl_app.cpp</text>
</a>
</g>
</g>
<!-- Node2&#45;&gt;Node4 -->
<g id="edge3_Node000002_Node000004" class="edge">
<title>Node2&#45;&gt;Node4</title>
<g id="a_edge3_Node000002_Node000004"><a xlink:title=" ">
<path fill="none" stroke="#63b8ff" d="M81.35,-45.94C88,-37.09 95.73,-26.79 101.13,-19.61"/>
<polygon fill="#63b8ff" stroke="#63b8ff" points="78.6,-43.77 75.39,-53.87 84.19,-47.98 78.6,-43.77"/>
</a>
</g>
</g>
<!-- Node5&#45;&gt;Node2 -->
<g id="edge5_Node000005_Node000002" class="edge">
<title>Node5&#45;&gt;Node2</title>
<g id="a_edge5_Node000005_Node000002"><a xlink:title=" ">
<path fill="none" stroke="#63b8ff" d="M119.41,-103.47C106.59,-94.12 90.78,-82.58 80.08,-74.77"/>
<polygon fill="#63b8ff" stroke="#63b8ff" points="117.13,-106.13 127.27,-109.2 121.25,-100.48 117.13,-106.13"/>
</a>
</g>
</g>
<!-- Node6 -->
<g id="Node000006" class="node">
<title>Node6</title>
<g id="a_Node000006"><a xlink:href="sdl__heatmap_8cpp.html" target="_top" xlink:title="Temperature visualization implementation.">
<polygon fill="white" stroke="#666666" points="210,-74.5 119.75,-74.5 119.75,-55.25 210,-55.25 210,-74.5"/>
<text xml:space="preserve" text-anchor="middle" x="164.88" y="-61" font-family="Helvetica,sans-Serif" font-size="10.00">sdl_heatmap.cpp</text>
</a>
</g>
</g>
<!-- Node5&#45;&gt;Node6 -->
<g id="edge6_Node000005_Node000006" class="edge">
<title>Node5&#45;&gt;Node6</title>
<g id="a_edge6_Node000005_Node000006"><a xlink:title=" ">
<path fill="none" stroke="#63b8ff" d="M149.48,-100.04C153.35,-91.46 157.73,-81.73 160.83,-74.86"/>
<polygon fill="#63b8ff" stroke="#63b8ff" points="146.38,-98.4 145.46,-108.95 152.76,-101.27 146.38,-98.4"/>
</a>
</g>
</g>
</g>
</svg>
