<?xml version="1.0" encoding="UTF-8" standalone="no"?>
<!DOCTYPE svg PUBLIC "-//W3C//DTD SVG 1.1//EN"
 "http://www.w3.org/Graphics/SVG/1.1/DTD/svg11.dtd">
<!-- Generated by graphviz version 14.1.1 (20251213.1925)
 -->
<!-- Title: sdl_heatmap.hpp Pages: 1 -->
<svg width="192pt" height="138pt"
 viewBox="0.00 0.00 192.00 138.00" xmlns="http://www.w3.org/2000/svg" xmlns:xlink="http://www.w3.org/1999/xlink">
<g id="graph0" class="graph" transform="scale(1 1) rotate(0) translate(4 133.75)">
<title>sdl_heatmap.hpp</title>
<!-- Node1 -->
<g id="Node000001" class="node">
<title>Node1</title>
<g id="a_Node000001"><a xlink:title="Temperature visualization using Inferno colormap.">
<polygon fill="#999999" stroke="#666666" points="157.25,-129.75 67,-129.75 67,-110.5 157.25,-110.5 157.25,-129.75"/>
<text xml:space="preserve" text-anchor="middle" x="112.12" y="-116.25" font-family="Helvetica,sans-Serif" font-size="10.00">sdl_heatmap.hpp</text>
</a>
</g>
</g>
<!-- Node2 -->
<g id="Node000002" class="node">
<title>Node2</title>
<g id="a_Node000002"><a xlink:href="sdl__window_8hpp.html" target="_top" xlink:title="SDL2 window and renderer wrapper.">
<polygon fill="white" stroke="#666666" points="84.25,-74.5 0,-74.5 0,-55.25 84.25,-55.25 84.25,-74.5"/>
<text xml:space="preserve" text-anchor="middle" x="42.12" y="-61" font-family="Helvetica,sans-Serif" font-size="10.00">sdl_window.hpp</text>
</a>
</g>
</g>
<!-- Node1&#45;&gt;Node2 -->
<g id="edge1_Node000001_Node000002" class="edge">
<title>Node1&#45;&gt;Node2</title>
<g id="a_edge1_Node000001_Node000002"><a xlink:title=" ">
<path fill="none" stroke="#63b8ff" d="M100.25,-110.09C90.03,-102.32 75.05,-90.92 62.86,-81.65"/>
<polygon fill="#63b8ff" stroke="#63b8ff" points="65.11,-78.96 55.03,-75.69 60.87,-84.53 65.11,-78.96"/>
</a>
</g>
</g>
<!-- Node4 -->
<g id="Node000004" class="node">
<title>Node4</title>
<g id="a_Node000004"><a xlink:title=" ">
<polygon fill="#e0e0e0" stroke="#999999" points="127.12,-19.25 87.12,-19.25 87.12,0 127.12,0 127.12,-19.25"/>
<text xml:space="preserve" text-anchor="middle" x="107.12" y="-5.75" font-family="Helvetica,sans-Serif" font-size="10.00">string</text>
</a>
</g>
</g>
<!-- Node1&#45;&gt;Node4 -->
<g id="edge5_Node000001_Node000004" class="edge">
<title>Node1&#45;&gt;Node4</title>
<g id="a_edge5_Node000001_Node000004"><a xlink:title=" ">
<path fill="none" stroke="#63b8ff" d="M111.72,-110.25C110.92,-93 109.15,-54.58 108.06,-30.81"/>
<polygon fill="#63b8ff" stroke="#63b8ff" points="111.57,-30.97 107.61,-21.14 104.57,-31.29 111.57,-30.97"/>
</a>
</g>
</g>
<!-- Node5 -->
<g id="Node000005" class="node">
<title>Node5</title>
<g id="a_Node000005"><a xlink:title=" ">
<polygon fill="#e0e0e0" stroke="#999999" points="183.62,-74.5 140.62,-74.5 140.62,-55.25 183.62,-55.25 183.62,-74.5"/>
<text xml:space="preserve" text-anchor="middle" x="162.12" y="-61" font-family="Helvetica,sans-Serif" font-size="10.00">vector</text>
</a>
</g>
</g>
<!-- Node1&#45;&gt;Node5 -->
<g id="edge4_Node000001_Node000005" class="edge">
<title>Node1&#45;&gt;Node5</title>
<g id="a_edge4_Node000001_Node000005"><a xlink:title=" ">
<path fill="none" stroke="#63b8ff" d="M120.38,-110.33C127.29,-102.98 137.35,-92.26 145.86,-83.19"/>
<polygon fill="#63b8ff" stroke="#63b8ff" points="148.36,-85.65 152.65,-75.96 143.26,-80.86 148.36,-85.65"/>
</a>
</g>
</g>
<!-- Node3 -->
<g id="Node000003" class="node">
<title>Node3</title>
<g id="a_Node000003"><a xlink:title=" ">
<polygon fill="#e0e0e0" stroke="#999999" points="64,-19.25 20.25,-19.25 20.25,0 64,0 64,-19.25"/>
<text xml:space="preserve" text-anchor="middle" x="42.12" y="-5.75" font-family="Helvetica,sans-Serif" font-size="10.00">SDL.h</text>
</a>
</g>
</g>
<!-- Node2&#45;&gt;Node3 -->
<g id="edge2_Node000002_Node000003" class="edge">
<title>Node2&#45;&gt;Node3</title>
<g id="a_edge2_Node000002_Node000003"><a xlink:title=" ">
<path fill="none" stroke="#63b8ff" d="M42.12,-55.08C42.12,-48.57 42.12,-39.42 42.12,-31.12"/>
<polygon fill="#63b8ff" stroke="#63b8ff" points="45.63,-31.12 42.13,-21.12 38.63,-31.12 45.63,-31.12"/>
</a>
</g>
</g>
<!-- Node2&#45;&gt;Node4 -->
<g id="edge3_Node000002_Node000004" class="edge">
<title>Node2&#45;&gt;Node4</title>
<g id="a_edge3_Node000002_Node000004"><a xlink:title=" ">
<path fill="none" stroke="#63b8ff" d="M53.15,-54.84C62.55,-47.15 76.27,-35.9 87.53,-26.68"/>
<polygon fill="#63b8ff" stroke="#63b8ff" points="89.57,-29.53 95.09,-20.48 85.14,-24.11 89.57,-29.53"/>
</a>
</g>
</g>
</g>
</svg>
