<?xml version="1.0" encoding="UTF-8" standalone="no"?>
<!DOCTYPE svg PUBLIC "-//W3C//DTD SVG 1.1//EN"
 "http://www.w3.org/Graphics/SVG/1.1/DTD/svg11.dtd">
<!-- Generated by graphviz version 14.1.1 (20251213.1925)
 -->
<!-- Title: sdl_app.cpp Pages: 1 -->
<svg width="527pt" height="248pt"
 viewBox="0.00 0.00 527.00 248.00" xmlns="http://www.w3.org/2000/svg" xmlns:xlink="http://www.w3.org/1999/xlink">
<g id="graph0" class="graph" transform="scale(1 1) rotate(0) translate(4 244.25)">
<title>sdl_app.cpp</title>
<!-- Node1 -->
<g id="Node000001" class="node">
<title>Node1</title>
<g id="a_Node000001"><a xlink:title="SDL2 application implementation.">
<polygon fill="#999999" stroke="#666666" points="469.32,-240.25 400.82,-240.25 400.82,-221 469.32,-221 469.32,-240.25"/>
<text xml:space="preserve" text-anchor="middle" x="435.07" y="-226.75" font-family="Helvetica,sans-Serif" font-size="10.00">sdl_app.cpp</text>
</a>
</g>
</g>
<!-- Node2 -->
<g id="Node000002" class="node">
<title>Node2</title>
<g id="a_Node000002"><a xlink:href="sdl__app_8hpp.html" target="_top" xlink:title="SDL2 application for heat equation visualization.">
<polygon fill="white" stroke="#666666" points="326.32,-185 257.82,-185 257.82,-165.75 326.32,-165.75 326.32,-185"/>
<text xml:space="preserve" text-anchor="middle" x="292.07" y="-171.5" font-family="Helvetica,sans-Serif" font-size="10.00">sdl_app.hpp</text>
</a>
</g>
</g>
<!-- Node1&#45;&gt;Node2 -->
<g id="edge1_Node000001_Node000002" class="edge">
<title>Node1&#45;&gt;Node2</title>
<g id="a_edge1_Node000001_Node000002"><a xlink:title=" ">
<path fill="none" stroke="#63b8ff" d="M410.81,-220.59C387.81,-212.02 352.98,-199.06 326.99,-189.38"/>
<polygon fill="#63b8ff" stroke="#63b8ff" points="328.46,-186.19 317.87,-185.98 326.02,-192.75 328.46,-186.19"/>
</a>
</g>
</g>
<!-- Node11 -->
<g id="Node000011" class="node">
<title>Node11</title>
<g id="a_Node000011"><a xlink:href="sdl__core_8hpp.html" target="_top" xlink:title="SDL2 initialization wrapper.">
<polygon fill="white" stroke="#666666" points="483.82,-74.5 412.32,-74.5 412.32,-55.25 483.82,-55.25 483.82,-74.5"/>
<text xml:space="preserve" text-anchor="middle" x="448.07" y="-61" font-family="Helvetica,sans-Serif" font-size="10.00">sdl_core.hpp</text>
</a>
</g>
</g>
<!-- Node1&#45;&gt;Node11 -->
<g id="edge16_Node000001_Node000011" class="edge">
<title>Node1&#45;&gt;Node11</title>
<g id="a_edge16_Node000001_Node000011"><a xlink:title=" ">
<path fill="none" stroke="#63b8ff" d="M435.77,-220.82C437.78,-195.5 443.62,-122 446.47,-86.09"/>
<polygon fill="#63b8ff" stroke="#63b8ff" points="449.95,-86.48 447.25,-76.23 442.97,-85.92 449.95,-86.48"/>
</a>
</g>
</g>
<!-- Node13 -->
<g id="Node000013" class="node">
<title>Node13</title>
<g id="a_Node000013"><a xlink:title=" ">
<polygon fill="#e0e0e0" stroke="#999999" points="518.95,-185 463.2,-185 463.2,-165.75 518.95,-165.75 518.95,-185"/>
<text xml:space="preserve" text-anchor="middle" x="491.07" y="-171.5" font-family="Helvetica,sans-Serif" font-size="10.00">algorithm</text>
</a>
</g>
</g>
<!-- Node1&#45;&gt;Node13 -->
<g id="edge20_Node000001_Node000013" class="edge">
<title>Node1&#45;&gt;Node13</title>
<g id="a_edge20_Node000001_Node000013"><a xlink:title=" ">
<path fill="none" stroke="#63b8ff" d="M444.57,-220.59C452.5,-213.05 464.02,-202.1 473.61,-192.98"/>
<polygon fill="#63b8ff" stroke="#63b8ff" points="475.78,-195.74 480.62,-186.32 470.96,-190.67 475.78,-195.74"/>
</a>
</g>
</g>
<!-- Node3 -->
<g id="Node000003" class="node">
<title>Node3</title>
<g id="a_Node000003"><a xlink:title=" ">
<polygon fill="#e0e0e0" stroke="#999999" points="402.95,-19.25 359.2,-19.25 359.2,0 402.95,0 402.95,-19.25"/>
<text xml:space="preserve" text-anchor="middle" x="381.07" y="-5.75" font-family="Helvetica,sans-Serif" font-size="10.00">SDL.h</text>
</a>
</g>
</g>
<!-- Node2&#45;&gt;Node3 -->
<g id="edge2_Node000002_Node000003" class="edge">
<title>Node2&#45;&gt;Node3</title>
<g id="a_edge2_Node000002_Node000003"><a xlink:title=" ">
<path fill="none" stroke="#63b8ff" d="M305.78,-165.27C316.99,-157.17 332.52,-144.36 342.07,-129.75 362.46,-98.58 373.02,-55.84 377.78,-30.93"/>
<polygon fill="#63b8ff" stroke="#63b8ff" points="381.21,-31.64 379.5,-21.18 374.32,-30.42 381.21,-31.64"/>
</a>
</g>
</g>
<!-- Node4 -->
<g id="Node000004" class="node">
<title>Node4</title>
<g id="a_Node000004"><a xlink:href="sdl__window_8hpp.html" target="_top" xlink:title="SDL2 window and renderer wrapper.">
<polygon fill="white" stroke="#666666" points="336.2,-74.5 251.95,-74.5 251.95,-55.25 336.2,-55.25 336.2,-74.5"/>
<text xml:space="preserve" text-anchor="middle" x="294.07" y="-61" font-family="Helvetica,sans-Serif" font-size="10.00">sdl_window.hpp</text>
</a>
</g>
</g>
<!-- Node2&#45;&gt;Node4 -->
<g id="edge3_Node000002_Node000004" class="edge">
<title>Node2&#45;&gt;Node4</title>
<g id="a_edge3_Node000002_Node000004"><a xlink:title=" ">
<path fill="none" stroke="#63b8ff" d="M302.29,-165.27C310.76,-156.98 322.19,-143.9 327.07,-129.75 332.84,-113.04 322.13,-95.27 311.4,-82.73"/>
<polygon fill="#63b8ff" stroke="#63b8ff" points="314.24,-80.64 304.86,-75.71 309.12,-85.41 314.24,-80.64"/>
</a>
</g>
</g>
<!-- Node6 -->
<g id="Node000006" class="node">
<title>Node6</title>
<g id="a_Node000006"><a xlink:href="sdl__heatmap_8hpp.html" target="_top" xlink:title="Temperature visualization using Inferno colormap.">
<polygon fill="white" stroke="#666666" points="248.2,-129.75 157.95,-129.75 157.95,-110.5 248.2,-110.5 248.2,-129.75"/>
<text xml:space="preserve" text-anchor="middle" x="203.07" y="-116.25" font-family="Helvetica,sans-Serif" font-size="10.00">sdl_heatmap.hpp</text>
</a>
</g>
</g>
<!-- Node2&#45;&gt;Node6 -->
<g id="edge6_Node000002_Node000006" class="edge">
<title>Node2&#45;&gt;Node6</title>
<g id="a_edge6_Node000002_Node000006"><a xlink:title=" ">
<path fill="none" stroke="#63b8ff" d="M276.97,-165.34C263.55,-157.31 243.66,-145.41 227.9,-135.98"/>
<polygon fill="#63b8ff" stroke="#63b8ff" points="229.92,-133.11 219.54,-130.98 226.33,-139.12 229.92,-133.11"/>
</a>
</g>
</g>
<!-- Node8 -->
<g id="Node000008" class="node">
<title>Node8</title>
<g id="a_Node000008"><a xlink:href="material_8hpp.html" target="_top" xlink:title=" ">
<polygon fill="white" stroke="#666666" points="111.7,-74.5 42.45,-74.5 42.45,-55.25 111.7,-55.25 111.7,-74.5"/>
<text xml:space="preserve" text-anchor="middle" x="77.07" y="-61" font-family="Helvetica,sans-Serif" font-size="10.00">material.hpp</text>
</a>
</g>
</g>
<!-- Node2&#45;&gt;Node8 -->
<g id="edge10_Node000002_Node000008" class="edge">
<title>Node2&#45;&gt;Node8</title>
<g id="a_edge10_Node000002_Node000008"><a xlink:title=" ">
<path fill="none" stroke="#63b8ff" d="M257.46,-174.36C188.37,-173.5 37.22,-167.28 5.07,-129.75 -11.36,-110.56 16.72,-91.76 42.47,-79.58"/>
<polygon fill="#63b8ff" stroke="#63b8ff" points="43.78,-82.83 51.48,-75.56 40.92,-76.44 43.78,-82.83"/>
</a>
</g>
</g>
<!-- Node9 -->
<g id="Node000009" class="node">
<title>Node9</title>
<g id="a_Node000009"><a xlink:href="heat__equation__solver_8hpp.html" target="_top" xlink:title="1D and 2D Heat Equation Solvers &#45; Implicit Finite Differences">
<polygon fill="white" stroke="#666666" points="140.2,-129.75 13.95,-129.75 13.95,-110.5 140.2,-110.5 140.2,-129.75"/>
<text xml:space="preserve" text-anchor="middle" x="77.07" y="-116.25" font-family="Helvetica,sans-Serif" font-size="10.00">heat_equation_solver.hpp</text>
</a>
</g>
</g>
<!-- Node2&#45;&gt;Node9 -->
<g id="edge12_Node000002_Node000009" class="edge">
<title>Node2&#45;&gt;Node9</title>
<g id="a_edge12_Node000002_Node000009"><a xlink:title=" ">
<path fill="none" stroke="#63b8ff" d="M257.53,-165.82C221.58,-156.92 165.03,-142.91 124.82,-132.95"/>
<polygon fill="#63b8ff" stroke="#63b8ff" points="125.71,-129.56 115.16,-130.56 124.02,-136.36 125.71,-129.56"/>
</a>
</g>
</g>
<!-- Node10 -->
<g id="Node000010" class="node">
<title>Node10</title>
<g id="a_Node000010"><a xlink:title=" ">
<polygon fill="#e0e0e0" stroke="#999999" points="317.7,-129.75 266.45,-129.75 266.45,-110.5 317.7,-110.5 317.7,-129.75"/>
<text xml:space="preserve" text-anchor="middle" x="292.07" y="-116.25" font-family="Helvetica,sans-Serif" font-size="10.00">memory</text>
</a>
</g>
</g>
<!-- Node2&#45;&gt;Node10 -->
<g id="edge15_Node000002_Node000010" class="edge">
<title>Node2&#45;&gt;Node10</title>
<g id="a_edge15_Node000002_Node000010"><a xlink:title=" ">
<path fill="none" stroke="#63b8ff" d="M292.07,-165.58C292.07,-159.07 292.07,-149.92 292.07,-141.62"/>
<polygon fill="#63b8ff" stroke="#63b8ff" points="295.57,-141.62 292.07,-131.62 288.57,-141.62 295.57,-141.62"/>
</a>
</g>
</g>
<!-- Node4&#45;&gt;Node3 -->
<g id="edge4_Node000004_Node000003" class="edge">
<title>Node4&#45;&gt;Node3</title>
<g id="a_edge4_Node000004_Node000003"><a xlink:title=" ">
<path fill="none" stroke="#63b8ff" d="M308.83,-54.84C321.95,-46.81 341.39,-34.91 356.8,-25.48"/>
<polygon fill="#63b8ff" stroke="#63b8ff" points="358.25,-28.7 364.95,-20.49 354.59,-22.73 358.25,-28.7"/>
</a>
</g>
</g>
<!-- Node5 -->
<g id="Node000005" class="node">
<title>Node5</title>
<g id="a_Node000005"><a xlink:title=" ">
<polygon fill="#e0e0e0" stroke="#999999" points="269.07,-19.25 229.07,-19.25 229.07,0 269.07,0 269.07,-19.25"/>
<text xml:space="preserve" text-anchor="middle" x="249.07" y="-5.75" font-family="Helvetica,sans-Serif" font-size="10.00">string</text>
</a>
</g>
</g>
<!-- Node4&#45;&gt;Node5 -->
<g id="edge5_Node000004_Node000005" class="edge">
<title>Node4&#45;&gt;Node5</title>
<g id="a_edge5_Node000004_Node000005"><a xlink:title=" ">
<path fill="none" stroke="#63b8ff" d="M286.64,-55.08C280.49,-47.8 271.56,-37.23 263.95,-28.23"/>
<polygon fill="#63b8ff" stroke="#63b8ff" points="266.77,-26.14 257.64,-20.77 261.42,-30.66 266.77,-26.14"/>
</a>
</g>
</g>
<!-- Node6&#45;&gt;Node4 -->
<g id="edge7_Node000006_Node000004" class="edge">
<title>Node6&#45;&gt;Node4</title>
<g id="a_edge7_Node000006_Node000004"><a xlink:title=" ">
<path fill="none" stroke="#63b8ff" d="M218.51,-110.09C232.24,-102.06 252.57,-90.16 268.69,-80.73"/>
<polygon fill="#63b8ff" stroke="#63b8ff" points="270.39,-83.79 277.25,-75.72 266.85,-77.75 270.39,-83.79"/>
</a>
</g>
</g>
<!-- Node6&#45;&gt;Node5 -->
<g id="edge9_Node000006_Node000005" class="edge">
<title>Node6&#45;&gt;Node5</title>
<g id="a_edge9_Node000006_Node000005"><a xlink:title=" ">
<path fill="none" stroke="#63b8ff" d="M206.84,-110.25C214.22,-92.84 230.74,-53.87 240.79,-30.16"/>
<polygon fill="#63b8ff" stroke="#63b8ff" points="243.98,-31.59 244.66,-21.02 237.54,-28.86 243.98,-31.59"/>
</a>
</g>
</g>
<!-- Node7 -->
<g id="Node000007" class="node">
<title>Node7</title>
<g id="a_Node000007"><a xlink:title=" ">
<polygon fill="#e0e0e0" stroke="#999999" points="183.57,-74.5 140.57,-74.5 140.57,-55.25 183.57,-55.25 183.57,-74.5"/>
<text xml:space="preserve" text-anchor="middle" x="162.07" y="-61" font-family="Helvetica,sans-Serif" font-size="10.00">vector</text>
</a>
</g>
</g>
<!-- Node6&#45;&gt;Node7 -->
<g id="edge8_Node000006_Node000007" class="edge">
<title>Node6&#45;&gt;Node7</title>
<g id="a_edge8_Node000006_Node000007"><a xlink:title=" ">
<path fill="none" stroke="#63b8ff" d="M196.3,-110.33C190.76,-103.13 182.73,-92.71 175.84,-83.76"/>
<polygon fill="#63b8ff" stroke="#63b8ff" points="178.79,-81.85 169.91,-76.06 173.24,-86.12 178.79,-81.85"/>
</a>
</g>
</g>
<!-- Node8&#45;&gt;Node5 -->
<g id="edge11_Node000008_Node000005" class="edge">
<title>Node8&#45;&gt;Node5</title>
<g id="a_edge11_Node000008_Node000005"><a xlink:title=" ">
<path fill="none" stroke="#63b8ff" d="M106.25,-54.84C137.24,-45.25 186.04,-30.14 217.8,-20.31"/>
<polygon fill="#63b8ff" stroke="#63b8ff" points="218.7,-23.69 227.22,-17.39 216.63,-17 218.7,-23.69"/>
</a>
</g>
</g>
<!-- Node9&#45;&gt;Node7 -->
<g id="edge14_Node000009_Node000007" class="edge">
<title>Node9&#45;&gt;Node7</title>
<g id="a_edge14_Node000009_Node000007"><a xlink:title=" ">
<path fill="none" stroke="#63b8ff" d="M91.49,-110.09C104.19,-102.14 122.95,-90.39 137.93,-81"/>
<polygon fill="#63b8ff" stroke="#63b8ff" points="139.68,-84.03 146.3,-75.76 135.97,-78.1 139.68,-84.03"/>
</a>
</g>
</g>
<!-- Node9&#45;&gt;Node8 -->
<g id="edge13_Node000009_Node000008" class="edge">
<title>Node9&#45;&gt;Node8</title>
<g id="a_edge13_Node000009_Node000008"><a xlink:title=" ">
<path fill="none" stroke="#63b8ff" d="M77.07,-110.33C77.07,-103.82 77.07,-94.67 77.07,-86.37"/>
<polygon fill="#63b8ff" stroke="#63b8ff" points="80.57,-86.37 77.07,-76.37 73.57,-86.37 80.57,-86.37"/>
</a>
</g>
</g>
<!-- Node11&#45;&gt;Node3 -->
<g id="edge17_Node000011_Node000003" class="edge">
<title>Node11&#45;&gt;Node3</title>
<g id="a_edge17_Node000011_Node000003"><a xlink:title=" ">
<path fill="none" stroke="#63b8ff" d="M436.71,-54.84C427.02,-47.15 412.87,-35.9 401.27,-26.68"/>
<polygon fill="#63b8ff" stroke="#63b8ff" points="403.46,-23.95 393.45,-20.47 399.11,-29.43 403.46,-23.95"/>
</a>
</g>
</g>
<!-- Node11&#45;&gt;Node5 -->
<g id="edge18_Node000011_Node000005" class="edge">
<title>Node11&#45;&gt;Node5</title>
<g id="a_edge18_Node000011_Node000005"><a xlink:title=" ">
<path fill="none" stroke="#63b8ff" d="M414.31,-54.84C376.79,-44.8 316.69,-28.72 280.25,-18.97"/>
<polygon fill="#63b8ff" stroke="#63b8ff" points="281.33,-15.63 270.76,-16.43 279.52,-22.4 281.33,-15.63"/>
</a>
</g>
</g>
<!-- Node12 -->
<g id="Node000012" class="node">
<title>Node12</title>
<g id="a_Node000012"><a xlink:title=" ">
<polygon fill="#e0e0e0" stroke="#999999" points="479.45,-19.25 420.7,-19.25 420.7,0 479.45,0 479.45,-19.25"/>
<text xml:space="preserve" text-anchor="middle" x="450.07" y="-5.75" font-family="Helvetica,sans-Serif" font-size="10.00">stdexcept</text>
</a>
</g>
</g>
<!-- Node11&#45;&gt;Node12 -->
<g id="edge19_Node000011_Node000012" class="edge">
<title>Node11&#45;&gt;Node12</title>
<g id="a_edge19_Node000011_Node000012"><a xlink:title=" ">
<path fill="none" stroke="#63b8ff" d="M448.4,-55.08C448.65,-48.49 449,-39.21 449.31,-30.82"/>
<polygon fill="#63b8ff" stroke="#63b8ff" points="452.8,-31.25 449.68,-21.12 445.8,-30.98 452.8,-31.25"/>
</a>
</g>
</g>
</g>
</svg>
