<?xml version="1.0" encoding="UTF-8" standalone="no"?>
<!DOCTYPE svg PUBLIC "-//W3C//DTD SVG 1.1//EN"
 "http://www.w3.org/Graphics/SVG/1.1/DTD/svg11.dtd">
<!-- Generated by graphviz version 14.1.1 (20251213.1925)
 -->
<!-- Title: sdl_core.hpp Pages: 1 -->
<svg width="342pt" height="83pt"
 viewBox="0.00 0.00 342.00 83.00" xmlns="http://www.w3.org/2000/svg" xmlns:xlink="http://www.w3.org/1999/xlink">
<g id="graph0" class="graph" transform="scale(1 1) rotate(0) translate(4 78.5)">
<title>sdl_core.hpp</title>
<!-- Node1 -->
<g id="Node000001" class="node">
<title>Node1</title>
<g id="a_Node000001"><a xlink:title="SDL2 initialization wrapper.">
<polygon fill="#999999" stroke="#666666" points="187.62,-74.5 116.12,-74.5 116.12,-55.25 187.62,-55.25 187.62,-74.5"/>
<text xml:space="preserve" text-anchor="middle" x="151.88" y="-61" font-family="Helvetica,sans-Serif" font-size="10.00">sdl_core.hpp</text>
</a>
</g>
</g>
<!-- Node2 -->
<g id="Node000002" class="node">
<title>Node2</title>
<g id="a_Node000002"><a xlink:href="main_8cpp.html" target="_top" xlink:title="Console menu and SDL2 visualization launcher.">
<polygon fill="white" stroke="#666666" points="55.75,-19.25 0,-19.25 0,0 55.75,0 55.75,-19.25"/>
<text xml:space="preserve" text-anchor="middle" x="27.88" y="-5.75" font-family="Helvetica,sans-Serif" font-size="10.00">main.cpp</text>
</a>
</g>
</g>
<!-- Node1&#45;&gt;Node2 -->
<g id="edge1_Node000001_Node000002" class="edge">
<title>Node1&#45;&gt;Node2</title>
<g id="a_edge1_Node000001_Node000002"><a xlink:title=" ">
<path fill="none" stroke="#63b8ff" d="M120.5,-50.4C98.13,-40.79 68.64,-28.13 49.01,-19.7"/>
<polygon fill="#63b8ff" stroke="#63b8ff" points="118.88,-53.51 129.45,-54.24 121.64,-47.08 118.88,-53.51"/>
</a>
</g>
</g>
<!-- Node3 -->
<g id="Node000003" class="node">
<title>Node3</title>
<g id="a_Node000003"><a xlink:href="sdl__app_8cpp.html" target="_top" xlink:title="SDL2 application implementation.">
<polygon fill="white" stroke="#666666" points="142.12,-19.25 73.62,-19.25 73.62,0 142.12,0 142.12,-19.25"/>
<text xml:space="preserve" text-anchor="middle" x="107.88" y="-5.75" font-family="Helvetica,sans-Serif" font-size="10.00">sdl_app.cpp</text>
</a>
</g>
</g>
<!-- Node1&#45;&gt;Node3 -->
<g id="edge2_Node000001_Node000003" class="edge">
<title>Node1&#45;&gt;Node3</title>
<g id="a_edge2_Node000001_Node000003"><a xlink:title=" ">
<path fill="none" stroke="#63b8ff" d="M137.29,-46.22C129.92,-37.31 121.3,-26.87 115.3,-19.61"/>
<polygon fill="#63b8ff" stroke="#63b8ff" points="134.58,-48.44 143.65,-53.92 139.97,-43.98 134.58,-48.44"/>
</a>
</g>
</g>
<!-- Node4 -->
<g id="Node000004" class="node">
<title>Node4</title>
<g id="a_Node000004"><a xlink:href="sdl__core_8cpp.html" target="_top" xlink:title="SDL2 initialization implementation.">
<polygon fill="white" stroke="#666666" points="231.62,-19.25 160.12,-19.25 160.12,0 231.62,0 231.62,-19.25"/>
<text xml:space="preserve" text-anchor="middle" x="195.88" y="-5.75" font-family="Helvetica,sans-Serif" font-size="10.00">sdl_core.cpp</text>
</a>
</g>
</g>
<!-- Node1&#45;&gt;Node4 -->
<g id="edge3_Node000001_Node000004" class="edge">
<title>Node1&#45;&gt;Node4</title>
<g id="a_edge3_Node000001_Node000004"><a xlink:title=" ">
<path fill="none" stroke="#63b8ff" d="M166.46,-46.22C173.83,-37.31 182.45,-26.87 188.45,-19.61"/>
<polygon fill="#63b8ff" stroke="#63b8ff" points="163.78,-43.98 160.1,-53.92 169.17,-48.44 163.78,-43.98"/>
</a>
</g>
</g>
<!-- Node5 -->
<g id="Node000005" class="node">
<title>Node5</title>
<g id="a_Node000005"><a xlink:href="sdl__window_8cpp.html" target="_top" xlink:title="SDL2 window implementation.">
<polygon fill="white" stroke="#666666" points="334,-19.25 249.75,-19.25 249.75,0 334,0 334,-19.25"/>
<text xml:space="preserve" text-anchor="middle" x="291.88" y="-5.75" font-family="Helvetica,sans-Serif" font-size="10.00">sdl_window.cpp</text>
</a>
</g>
</g>
<!-- Node1&#45;&gt;Node5 -->
<g id="edge4_Node000001_Node000005" class="edge">
<title>Node1&#45;&gt;Node5</title>
<g id="a_edge4_Node000001_Node000005"><a xlink:title=" ">
<path fill="none" stroke="#63b8ff" d="M186.27,-50.79C211.65,-41.14 245.54,-28.25 268.01,-19.7"/>
<polygon fill="#63b8ff" stroke="#63b8ff" points="185.14,-47.48 177.04,-54.3 187.63,-54.02 185.14,-47.48"/>
</a>
</g>
</g>
</g>
</svg>
