<?xml version="1.0" encoding="UTF-8" standalone="no"?>
<!DOCTYPE svg PUBLIC "-//W3C//DTD SVG 1.1//EN"
 "http://www.w3.org/Graphics/SVG/1.1/DTD/svg11.dtd">
<!-- Generated by graphviz version 14.1.1 (20251213.1925)
 -->
<!-- Title: sdl_core.cpp Pages: 1 -->
<svg width="186pt" height="138pt"
 viewBox="0.00 0.00 186.00 138.00" xmlns="http://www.w3.org/2000/svg" xmlns:xlink="http://www.w3.org/1999/xlink">
<g id="graph0" class="graph" transform="scale(1 1) rotate(0) translate(4 133.75)">
<title>sdl_core.cpp</title>
<!-- Node1 -->
<g id="Node000001" class="node">
<title>Node1</title>
<g id="a_Node000001"><a xlink:title="SDL2 initialization implementation.">
<polygon fill="#999999" stroke="#666666" points="117.62,-129.75 46.12,-129.75 46.12,-110.5 117.62,-110.5 117.62,-129.75"/>
<text xml:space="preserve" text-anchor="middle" x="81.88" y="-116.25" font-family="Helvetica,sans-Serif" font-size="10.00">sdl_core.cpp</text>
</a>
</g>
</g>
<!-- Node2 -->
<g id="Node000002" class="node">
<title>Node2</title>
<g id="a_Node000002"><a xlink:href="sdl__core_8hpp.html" target="_top" xlink:title="SDL2 initialization wrapper.">
<polygon fill="white" stroke="#666666" points="117.62,-74.5 46.12,-74.5 46.12,-55.25 117.62,-55.25 117.62,-74.5"/>
<text xml:space="preserve" text-anchor="middle" x="81.88" y="-61" font-family="Helvetica,sans-Serif" font-size="10.00">sdl_core.hpp</text>
</a>
</g>
</g>
<!-- Node1&#45;&gt;Node2 -->
<g id="edge1_Node000001_Node000002" class="edge">
<title>Node1&#45;&gt;Node2</title>
<g id="a_edge1_Node000001_Node000002"><a xlink:title=" ">
<path fill="none" stroke="#63b8ff" d="M81.88,-110.33C81.88,-103.82 81.88,-94.67 81.88,-86.37"/>
<polygon fill="#63b8ff" stroke="#63b8ff" points="85.38,-86.37 81.88,-76.37 78.38,-86.37 85.38,-86.37"/>
</a>
</g>
</g>
<!-- Node3 -->
<g id="Node000003" class="node">
<title>Node3</title>
<g id="a_Node000003"><a xlink:title=" ">
<polygon fill="#e0e0e0" stroke="#999999" points="43.75,-19.25 0,-19.25 0,0 43.75,0 43.75,-19.25"/>
<text xml:space="preserve" text-anchor="middle" x="21.88" y="-5.75" font-family="Helvetica,sans-Serif" font-size="10.00">SDL.h</text>
</a>
</g>
</g>
<!-- Node2&#45;&gt;Node3 -->
<g id="edge2_Node000002_Node000003" class="edge">
<title>Node2&#45;&gt;Node3</title>
<g id="a_edge2_Node000002_Node000003"><a xlink:title=" ">
<path fill="none" stroke="#63b8ff" d="M71.7,-54.84C63.11,-47.22 50.61,-36.12 40.27,-26.95"/>
<polygon fill="#63b8ff" stroke="#63b8ff" points="42.84,-24.55 33.03,-20.53 38.19,-29.79 42.84,-24.55"/>
</a>
</g>
</g>
<!-- Node4 -->
<g id="Node000004" class="node">
<title>Node4</title>
<g id="a_Node000004"><a xlink:title=" ">
<polygon fill="#e0e0e0" stroke="#999999" points="101.88,-19.25 61.88,-19.25 61.88,0 101.88,0 101.88,-19.25"/>
<text xml:space="preserve" text-anchor="middle" x="81.88" y="-5.75" font-family="Helvetica,sans-Serif" font-size="10.00">string</text>
</a>
</g>
</g>
<!-- Node2&#45;&gt;Node4 -->
<g id="edge3_Node000002_Node000004" class="edge">
<title>Node2&#45;&gt;Node4</title>
<g id="a_edge3_Node000002_Node000004"><a xlink:title=" ">
<path fill="none" stroke="#63b8ff" d="M81.88,-55.08C81.88,-48.57 81.88,-39.42 81.88,-31.12"/>
<polygon fill="#63b8ff" stroke="#63b8ff" points="85.38,-31.12 81.88,-21.12 78.38,-31.12 85.38,-31.12"/>
</a>
</g>
</g>
<!-- Node5 -->
<g id="Node000005" class="node">
<title>Node5</title>
<g id="a_Node000005"><a xlink:title=" ">
<polygon fill="#e0e0e0" stroke="#999999" points="178.25,-19.25 119.5,-19.25 119.5,0 178.25,0 178.25,-19.25"/>
<text xml:space="preserve" text-anchor="middle" x="148.88" y="-5.75" font-family="Helvetica,sans-Serif" font-size="10.00">stdexcept</text>
</a>
</g>
</g>
<!-- Node2&#45;&gt;Node5 -->
<g id="edge4_Node000002_Node000005" class="edge">
<title>Node2&#45;&gt;Node5</title>
<g id="a_edge4_Node000002_Node000005"><a xlink:title=" ">
<path fill="none" stroke="#63b8ff" d="M93.24,-54.84C102.92,-47.15 117.07,-35.9 128.68,-26.68"/>
<polygon fill="#63b8ff" stroke="#63b8ff" points="130.84,-29.43 136.49,-20.47 126.49,-23.95 130.84,-29.43"/>
</a>
</g>
</g>
</g>
</svg>
