<?xml version="1.0" encoding="UTF-8" standalone="no"?>
<!DOCTYPE svg PUBLIC "-//W3C//DTD SVG 1.1//EN"
 "http://www.w3.org/Graphics/SVG/1.1/DTD/svg11.dtd">
<!-- Generated by graphviz version 14.1.1 (20251213.1925)
 -->
<!-- Title: sdl_app.hpp Pages: 1 -->
<svg width="150pt" height="83pt"
 viewBox="0.00 0.00 150.00 83.00" xmlns="http://www.w3.org/2000/svg" xmlns:xlink="http://www.w3.org/1999/xlink">
<g id="graph0" class="graph" transform="scale(1 1) rotate(0) translate(4 78.5)">
<title>sdl_app.hpp</title>
<!-- Node1 -->
<g id="Node000001" class="node">
<title>Node1</title>
<g id="a_Node000001"><a xlink:title="SDL2 application for heat equation visualization.">
<polygon fill="#999999" stroke="#666666" points="102.12,-74.5 33.62,-74.5 33.62,-55.25 102.12,-55.25 102.12,-74.5"/>
<text xml:space="preserve" text-anchor="middle" x="67.88" y="-61" font-family="Helvetica,sans-Serif" font-size="10.00">sdl_app.hpp</text>
</a>
</g>
</g>
<!-- Node2 -->
<g id="Node000002" class="node">
<title>Node2</title>
<g id="a_Node000002"><a xlink:href="main_8cpp.html" target="_top" xlink:title="Console menu and SDL2 visualization launcher.">
<polygon fill="white" stroke="#666666" points="55.75,-19.25 0,-19.25 0,0 55.75,0 55.75,-19.25"/>
<text xml:space="preserve" text-anchor="middle" x="27.88" y="-5.75" font-family="Helvetica,sans-Serif" font-size="10.00">main.cpp</text>
</a>
</g>
</g>
<!-- Node1&#45;&gt;Node2 -->
<g id="edge1_Node000001_Node000002" class="edge">
<title>Node1&#45;&gt;Node2</title>
<g id="a_edge1_Node000001_Node000002"><a xlink:title=" ">
<path fill="none" stroke="#63b8ff" d="M54.4,-45.94C47.75,-37.09 40.02,-26.79 34.62,-19.61"/>
<polygon fill="#63b8ff" stroke="#63b8ff" points="51.56,-47.98 60.36,-53.87 57.15,-43.77 51.56,-47.98"/>
</a>
</g>
</g>
<!-- Node3 -->
<g id="Node000003" class="node">
<title>Node3</title>
<g id="a_Node000003"><a xlink:href="sdl__app_8cpp.html" target="_top" xlink:title="SDL2 application implementation.">
<polygon fill="white" stroke="#666666" points="142.12,-19.25 73.62,-19.25 73.62,0 142.12,0 142.12,-19.25"/>
<text xml:space="preserve" text-anchor="middle" x="107.88" y="-5.75" font-family="Helvetica,sans-Serif" font-size="10.00">sdl_app.cpp</text>
</a>
</g>
</g>
<!-- Node1&#45;&gt;Node3 -->
<g id="edge2_Node000001_Node000003" class="edge">
<title>Node1&#45;&gt;Node3</title>
<g id="a_edge2_Node000001_Node000003"><a xlink:title=" ">
<path fill="none" stroke="#63b8ff" d="M81.35,-45.94C88,-37.09 95.73,-26.79 101.13,-19.61"/>
<polygon fill="#63b8ff" stroke="#63b8ff" points="78.6,-43.77 75.39,-53.87 84.19,-47.98 78.6,-43.77"/>
</a>
</g>
</g>
</g>
</svg>
